solid OpenSCAD_Model
  facet normal 0 0.900969 -0.433884
    outer loop
      vertex -35 -21.003 42.6863
      vertex -37 -20.25 44.25
      vertex -35 -20.25 44.25
    endloop
  endfacet
  facet normal 0 0.900969 -0.433884
    outer loop
      vertex -37 -20.25 44.25
      vertex -35 -21.003 42.6863
      vertex -37 -21.003 42.6863
    endloop
  endfacet
  facet normal 0 -1 0
    outer loop
      vertex -37 -24.0519 43.3822
      vertex -35 -24.0519 45.1178
      vertex -37 -24.0519 45.1178
    endloop
  endfacet
  facet normal 0 -1 -0
    outer loop
      vertex -35 -24.0519 45.1178
      vertex -37 -24.0519 43.3822
      vertex -35 -24.0519 43.3822
    endloop
  endfacet
  facet normal 0 0.222521 -0.974928
    outer loop
      vertex -37 -22.695 42.3001
      vertex -35 -21.003 42.6863
      vertex -35 -22.695 42.3001
    endloop
  endfacet
  facet normal 0 0.222521 -0.974928
    outer loop
      vertex -35 -21.003 42.6863
      vertex -37 -22.695 42.3001
      vertex -37 -21.003 42.6863
    endloop
  endfacet
  facet normal -1 0 0
    outer loop
      vertex -37 -21.003 42.6863
      vertex -37 -20.75 44.25
      vertex -37 -20.25 44.25
    endloop
  endfacet
  facet normal -1 0 0
    outer loop
      vertex -37 -21.003 42.6863
      vertex -37 -21.7865 42.8234
      vertex -37 -20.75 44.25
    endloop
  endfacet
  facet normal -1 0 0
    outer loop
      vertex -37 -22.695 42.3001
      vertex -37 -21.7865 42.8234
      vertex -37 -21.003 42.6863
    endloop
  endfacet
  facet normal -1 0 0
    outer loop
      vertex -37 -22.695 42.3001
      vertex -37 -23.4635 43.3683
      vertex -37 -21.7865 42.8234
    endloop
  endfacet
  facet normal -1 0 0
    outer loop
      vertex -37 -23.4635 43.3683
      vertex -37 -24.0519 43.3822
      vertex -37 -23.4635 45.1317
    endloop
  endfacet
  facet normal -1 0 0
    outer loop
      vertex -37 -24.0519 43.3822
      vertex -37 -23.4635 43.3683
      vertex -37 -22.695 42.3001
    endloop
  endfacet
  facet normal -1 0 0
    outer loop
      vertex -37 -20.75 44.25
      vertex -37 -21.003 45.8137
      vertex -37 -20.25 44.25
    endloop
  endfacet
  facet normal -1 0 0
    outer loop
      vertex -37 -21.7865 45.6766
      vertex -37 -21.003 45.8137
      vertex -37 -20.75 44.25
    endloop
  endfacet
  facet normal -1 0 0
    outer loop
      vertex -37 -21.7865 45.6766
      vertex -37 -22.695 46.1999
      vertex -37 -21.003 45.8137
    endloop
  endfacet
  facet normal -1 0 0
    outer loop
      vertex -37 -23.4635 45.1317
      vertex -37 -22.695 46.1999
      vertex -37 -21.7865 45.6766
    endloop
  endfacet
  facet normal -1 -0 0
    outer loop
      vertex -37 -23.4635 45.1317
      vertex -37 -24.0519 45.1178
      vertex -37 -22.695 46.1999
    endloop
  endfacet
  facet normal -1 0 0
    outer loop
      vertex -37 -24.0519 45.1178
      vertex -37 -23.4635 45.1317
      vertex -37 -24.0519 43.3822
    endloop
  endfacet
  facet normal 0 -0.62349 -0.781831
    outer loop
      vertex -37 -24.0519 43.3822
      vertex -35 -22.695 42.3001
      vertex -35 -24.0519 43.3822
    endloop
  endfacet
  facet normal -0 -0.62349 -0.781831
    outer loop
      vertex -35 -22.695 42.3001
      vertex -37 -24.0519 43.3822
      vertex -37 -22.695 42.3001
    endloop
  endfacet
  facet normal 0 0.900969 0.433884
    outer loop
      vertex -35 -20.25 44.25
      vertex -37 -21.003 45.8137
      vertex -35 -21.003 45.8137
    endloop
  endfacet
  facet normal 0 0.900969 0.433884
    outer loop
      vertex -37 -21.003 45.8137
      vertex -35 -20.25 44.25
      vertex -37 -20.25 44.25
    endloop
  endfacet
  facet normal -1 0 0
    outer loop
      vertex -35 -22.695 8.69986
      vertex -35 -13.4499 20.555
      vertex -35 -21.003 8.31366
    endloop
  endfacet
  facet normal -1 0 -0
    outer loop
      vertex -35 -21.003 42.6863
      vertex -35 -13.4499 20.555
      vertex -35 -24 25
    endloop
  endfacet
  facet normal -1 -0 0
    outer loop
      vertex -35 -13.4499 20.555
      vertex -35 -22.695 8.69986
      vertex -35 -24 25
    endloop
  endfacet
  facet normal -1 0 0
    outer loop
      vertex -35 -13.4499 20.555
      vertex -35 -21.003 42.6863
      vertex -35 -20.25 44.25
    endloop
  endfacet
  facet normal -1 0 0
    outer loop
      vertex -35 -24 25
      vertex -35 -22.695 8.69986
      vertex -35 -24 7.65919
    endloop
  endfacet
  facet normal -1 0 0
    outer loop
      vertex -35 -21.003 42.6863
      vertex -35 -24 25
      vertex -35 -22.695 42.3001
    endloop
  endfacet
  facet normal -1 0 0
    outer loop
      vertex -35 -26 25
      vertex -35 -22.695 42.3001
      vertex -35 -24 25
    endloop
  endfacet
  facet normal -1 0 0
    outer loop
      vertex -35 -26 48
      vertex -35 -24.0519 43.3822
      vertex -35 -26 25
    endloop
  endfacet
  facet normal -1 -0 0
    outer loop
      vertex -35 -22.695 42.3001
      vertex -35 -26 25
      vertex -35 -24.0519 43.3822
    endloop
  endfacet
  facet normal -1 0 0
    outer loop
      vertex -35 -13.4499 7.77156e-15
      vertex -35 -20.25 6.75
      vertex -35 -13.4499 20.555
    endloop
  endfacet
  facet normal -1 0 0
    outer loop
      vertex -35 -13.4499 7.77156e-15
      vertex -35 -21.003 5.18634
      vertex -35 -20.25 6.75
    endloop
  endfacet
  facet normal -1 0 0
    outer loop
      vertex -35 -24 7.77156e-15
      vertex -35 -21.003 5.18634
      vertex -35 -13.4499 7.77156e-15
    endloop
  endfacet
  facet normal -1 0 0
    outer loop
      vertex -35 -21.003 5.18634
      vertex -35 -24 7.77156e-15
      vertex -35 -22.695 4.80014
    endloop
  endfacet
  facet normal -1 -0 0
    outer loop
      vertex -35 -22.695 4.80014
      vertex -35 -24 7.77156e-15
      vertex -35 -24 5.84081
    endloop
  endfacet
  facet normal -1 0 0
    outer loop
      vertex -35 24 7.26913
      vertex -35 23.497 8.31366
      vertex -35 24 25
    endloop
  endfacet
  facet normal -1 0 0
    outer loop
      vertex -35 26 25
      vertex -35 24.25 44.25
      vertex -35 26 48
    endloop
  endfacet
  facet normal -1 0 0
    outer loop
      vertex -35 23.497 42.6863
      vertex -35 26 25
      vertex -35 24 25
    endloop
  endfacet
  facet normal -1 0 0
    outer loop
      vertex -35 21.805 8.69986
      vertex -35 24 25
      vertex -35 23.497 8.31366
    endloop
  endfacet
  facet normal -1 0 0
    outer loop
      vertex -35 26 25
      vertex -35 23.497 42.6863
      vertex -35 24.25 44.25
    endloop
  endfacet
  facet normal -1 0 0
    outer loop
      vertex -35 24 25
      vertex -35 21.805 8.69986
      vertex -35 13.4499 20.555
    endloop
  endfacet
  facet normal -1 0 0
    outer loop
      vertex -35 13.0637 22.247
      vertex -35 24 25
      vertex -35 13.4499 20.555
    endloop
  endfacet
  facet normal -1 0 0
    outer loop
      vertex -35 13.4499 20.555
      vertex -35 21.805 8.69986
      vertex -35 20.4481 7.61777
    endloop
  endfacet
  facet normal -1 0 0
    outer loop
      vertex -35 11.5 23
      vertex -35 24 25
      vertex -35 13.0637 22.247
    endloop
  endfacet
  facet normal -1 0 0
    outer loop
      vertex -35 23.497 45.8137
      vertex -35 26 48
      vertex -35 24.25 44.25
    endloop
  endfacet
  facet normal -1 0 0
    outer loop
      vertex -35 21.805 46.1999
      vertex -35 26 48
      vertex -35 23.497 45.8137
    endloop
  endfacet
  facet normal -1 -0 0
    outer loop
      vertex -35 24 25
      vertex -35 11.5 23
      vertex -35 21.805 42.3001
    endloop
  endfacet
  facet normal -1 -0 0
    outer loop
      vertex -35 21.805 42.3001
      vertex -35 11.5 23
      vertex -35 20.4481 43.3822
    endloop
  endfacet
  facet normal -1 0 0
    outer loop
      vertex -35 -20.25 44.25
      vertex -35 20.4481 43.3822
      vertex -35 11.5 23
    endloop
  endfacet
  facet normal -1 0 0
    outer loop
      vertex -35 -20.25 44.25
      vertex -35 11.5 23
      vertex -35 -11.5 23
    endloop
  endfacet
  facet normal -1 0 0
    outer loop
      vertex -35 20.4481 43.3822
      vertex -35 -20.25 44.25
      vertex -35 20.4481 45.1178
    endloop
  endfacet
  facet normal -1 0 0
    outer loop
      vertex -35 -20.25 44.25
      vertex -35 -11.5 23
      vertex -35 -13.0637 22.247
    endloop
  endfacet
  facet normal -1 0 0
    outer loop
      vertex -35 -21.003 8.31366
      vertex -35 -13.4499 20.555
      vertex -35 -20.25 6.75
    endloop
  endfacet
  facet normal -1 0 0
    outer loop
      vertex -35 -13.4499 20.555
      vertex -35 -20.25 44.25
      vertex -35 -13.0637 22.247
    endloop
  endfacet
  facet normal -1 0 0
    outer loop
      vertex -35 -21.003 45.8137
      vertex -35 20.4481 45.1178
      vertex -35 -20.25 44.25
    endloop
  endfacet
  facet normal -1 0 0
    outer loop
      vertex -35 20.4481 45.1178
      vertex -35 -21.003 45.8137
      vertex -35 21.805 46.1999
    endloop
  endfacet
  facet normal -1 0 0
    outer loop
      vertex -35 -26 48
      vertex -35 21.805 46.1999
      vertex -35 -21.003 45.8137
    endloop
  endfacet
  facet normal -1 0 0
    outer loop
      vertex -35 -26 48
      vertex -35 -21.003 45.8137
      vertex -35 -22.695 46.1999
    endloop
  endfacet
  facet normal -1 0 0
    outer loop
      vertex -35 21.805 46.1999
      vertex -35 -26 48
      vertex -35 26 48
    endloop
  endfacet
  facet normal -1 0 0
    outer loop
      vertex -35 -24.0519 45.1178
      vertex -35 -26 48
      vertex -35 -22.695 46.1999
    endloop
  endfacet
  facet normal -1 0 0
    outer loop
      vertex -35 -24.0519 43.3822
      vertex -35 -26 48
      vertex -35 -24.0519 45.1178
    endloop
  endfacet
  facet normal -1 0 0
    outer loop
      vertex -35 24 7.77156e-15
      vertex -35 23.497 5.18634
      vertex -35 24 6.23087
    endloop
  endfacet
  facet normal -1 0 0
    outer loop
      vertex -35 24 7.77156e-15
      vertex -35 21.805 4.80014
      vertex -35 23.497 5.18634
    endloop
  endfacet
  facet normal -1 0 0
    outer loop
      vertex -35 13.4499 7.77156e-15
      vertex -35 21.805 4.80014
      vertex -35 24 7.77156e-15
    endloop
  endfacet
  facet normal -1 0 0
    outer loop
      vertex -35 13.4499 7.77156e-15
      vertex -35 20.4481 7.61777
      vertex -35 20.4481 5.88223
    endloop
  endfacet
  facet normal -1 0 0
    outer loop
      vertex -35 13.4499 20.555
      vertex -35 20.4481 7.61777
      vertex -35 13.4499 7.77156e-15
    endloop
  endfacet
  facet normal -1 0 0
    outer loop
      vertex -35 24 25
      vertex -35 21.805 42.3001
      vertex -35 23.497 42.6863
    endloop
  endfacet
  facet normal -1 -0 0
    outer loop
      vertex -35 21.805 4.80014
      vertex -35 13.4499 7.77156e-15
      vertex -35 20.4481 5.88223
    endloop
  endfacet
  facet normal 0 0 0
    outer loop
      vertex -35 -26 7.77156e-15
      vertex -35 -26 2.38419e-07
      vertex -35 -26 2
    endloop
  endfacet
  facet normal -0 0 0
    outer loop
      vertex -35 26 25
      vertex -35 26 48
      vertex -35 26 2
    endloop
  endfacet
  facet normal 0 0 0
    outer loop
      vertex -35 26 25
      vertex -35 26 2
      vertex -35 26 2.38419e-07
    endloop
  endfacet
  facet normal 0 0 0
    outer loop
      vertex -35 26 25
      vertex -35 26 2.38419e-07
      vertex -35 26 7.77156e-15
    endloop
  endfacet
  facet normal 0 0 0
    outer loop
      vertex -35 -26 7.77156e-15
      vertex -35 -26 2
      vertex -35 -26 48
    endloop
  endfacet
  facet normal 0 0 0
    outer loop
      vertex -35 -26 48
      vertex -35 -26 25
      vertex -35 -26 7.77156e-15
    endloop
  endfacet
  facet normal -0 0.222521 0.974928
    outer loop
      vertex -37 -21.003 45.8137
      vertex -35 -22.695 46.1999
      vertex -35 -21.003 45.8137
    endloop
  endfacet
  facet normal 0 0.222521 0.974928
    outer loop
      vertex -35 -22.695 46.1999
      vertex -37 -21.003 45.8137
      vertex -37 -22.695 46.1999
    endloop
  endfacet
  facet normal 0 -0.62349 0.781831
    outer loop
      vertex -37 -22.695 46.1999
      vertex -35 -24.0519 45.1178
      vertex -35 -22.695 46.1999
    endloop
  endfacet
  facet normal 0 -0.62349 0.781831
    outer loop
      vertex -35 -24.0519 45.1178
      vertex -37 -22.695 46.1999
      vertex -37 -24.0519 45.1178
    endloop
  endfacet
  facet normal 0 0.809016 -0.587787
    outer loop
      vertex -37 -21.7865 42.8234
      vertex -38 -20.75 44.25
      vertex -37 -20.75 44.25
    endloop
  endfacet
  facet normal 0 0.809016 -0.587787
    outer loop
      vertex -38 -20.75 44.25
      vertex -37 -21.7865 42.8234
      vertex -38 -21.7865 42.8234
    endloop
  endfacet
  facet normal 0 -1 0
    outer loop
      vertex -38 -23.4635 43.3683
      vertex -37 -23.4635 45.1317
      vertex -38 -23.4635 45.1317
    endloop
  endfacet
  facet normal 0 -1 -0
    outer loop
      vertex -37 -23.4635 45.1317
      vertex -38 -23.4635 43.3683
      vertex -37 -23.4635 43.3683
    endloop
  endfacet
  facet normal 0 -0.309017 -0.951056
    outer loop
      vertex -38 -23.4635 43.3683
      vertex -37 -21.7865 42.8234
      vertex -37 -23.4635 43.3683
    endloop
  endfacet
  facet normal -0 -0.309017 -0.951056
    outer loop
      vertex -37 -21.7865 42.8234
      vertex -38 -23.4635 43.3683
      vertex -38 -21.7865 42.8234
    endloop
  endfacet
  facet normal 0 -0.309017 0.951056
    outer loop
      vertex -38 -21.7865 45.6766
      vertex -37 -23.4635 45.1317
      vertex -37 -21.7865 45.6766
    endloop
  endfacet
  facet normal 0 -0.309017 0.951056
    outer loop
      vertex -37 -23.4635 45.1317
      vertex -38 -21.7865 45.6766
      vertex -38 -23.4635 45.1317
    endloop
  endfacet
  facet normal -1 0 0
    outer loop
      vertex -38 -21.7865 42.8234
      vertex -38 -21.7865 45.6766
      vertex -38 -20.75 44.25
    endloop
  endfacet
  facet normal -1 0 0
    outer loop
      vertex -38 -23.4635 43.3683
      vertex -38 -21.7865 45.6766
      vertex -38 -21.7865 42.8234
    endloop
  endfacet
  facet normal -1 0 0
    outer loop
      vertex -38 -21.7865 45.6766
      vertex -38 -23.4635 43.3683
      vertex -38 -23.4635 45.1317
    endloop
  endfacet
  facet normal 0 0.809016 0.587787
    outer loop
      vertex -37 -20.75 44.25
      vertex -38 -21.7865 45.6766
      vertex -37 -21.7865 45.6766
    endloop
  endfacet
  facet normal 0 0.809016 0.587787
    outer loop
      vertex -38 -21.7865 45.6766
      vertex -37 -20.75 44.25
      vertex -38 -20.75 44.25
    endloop
  endfacet
  facet normal 0 0.900969 -0.433884
    outer loop
      vertex -35 -21.003 5.18634
      vertex -37 -20.25 6.75
      vertex -35 -20.25 6.75
    endloop
  endfacet
  facet normal 0 0.900969 -0.433884
    outer loop
      vertex -37 -20.25 6.75
      vertex -35 -21.003 5.18634
      vertex -37 -21.003 5.18634
    endloop
  endfacet
  facet normal 0 0.222521 -0.974928
    outer loop
      vertex -37 -22.695 4.80014
      vertex -35 -21.003 5.18634
      vertex -35 -22.695 4.80014
    endloop
  endfacet
  facet normal 0 0.222521 -0.974928
    outer loop
      vertex -35 -21.003 5.18634
      vertex -37 -22.695 4.80014
      vertex -37 -21.003 5.18634
    endloop
  endfacet
  facet normal -1 0 0
    outer loop
      vertex -37 -21.003 5.18634
      vertex -37 -20.75 6.75
      vertex -37 -20.25 6.75
    endloop
  endfacet
  facet normal -1 0 0
    outer loop
      vertex -37 -21.003 5.18634
      vertex -37 -21.7865 5.32342
      vertex -37 -20.75 6.75
    endloop
  endfacet
  facet normal -1 0 0
    outer loop
      vertex -37 -22.695 4.80014
      vertex -37 -21.7865 5.32342
      vertex -37 -21.003 5.18634
    endloop
  endfacet
  facet normal -1 0 0
    outer loop
      vertex -37 -22.695 4.80014
      vertex -37 -23.4635 5.86832
      vertex -37 -21.7865 5.32342
    endloop
  endfacet
  facet normal -1 -0 0
    outer loop
      vertex -37 -23.4635 5.86832
      vertex -37 -24 5.84081
      vertex -37 -23.4635 7.63168
    endloop
  endfacet
  facet normal -1 0 0
    outer loop
      vertex -37 -24 5.84081
      vertex -37 -23.4635 5.86832
      vertex -37 -22.695 4.80014
    endloop
  endfacet
  facet normal -1 0 0
    outer loop
      vertex -37 -20.75 6.75
      vertex -37 -21.003 8.31366
      vertex -37 -20.25 6.75
    endloop
  endfacet
  facet normal -1 0 0
    outer loop
      vertex -37 -21.7865 8.17658
      vertex -37 -21.003 8.31366
      vertex -37 -20.75 6.75
    endloop
  endfacet
  facet normal -1 0 0
    outer loop
      vertex -37 -21.7865 8.17658
      vertex -37 -22.695 8.69986
      vertex -37 -21.003 8.31366
    endloop
  endfacet
  facet normal -1 0 0
    outer loop
      vertex -37 -23.4635 7.63168
      vertex -37 -22.695 8.69986
      vertex -37 -21.7865 8.17658
    endloop
  endfacet
  facet normal -1 0 0
    outer loop
      vertex -37 -23.4635 7.63168
      vertex -37 -24 7.65919
      vertex -37 -22.695 8.69986
    endloop
  endfacet
  facet normal -1 0 0
    outer loop
      vertex -37 -24 7.65919
      vertex -37 -23.4635 7.63168
      vertex -37 -24 5.84081
    endloop
  endfacet
  facet normal 0 -0.62349 -0.781832
    outer loop
      vertex -37 -24 5.84081
      vertex -35 -22.695 4.80014
      vertex -35 -24 5.84081
    endloop
  endfacet
  facet normal -0 -0.62349 -0.781832
    outer loop
      vertex -35 -22.695 4.80014
      vertex -37 -24 5.84081
      vertex -37 -22.695 4.80014
    endloop
  endfacet
  facet normal 0 0.900969 0.433884
    outer loop
      vertex -35 -20.25 6.75
      vertex -37 -21.003 8.31366
      vertex -35 -21.003 8.31366
    endloop
  endfacet
  facet normal 0 0.900969 0.433884
    outer loop
      vertex -37 -21.003 8.31366
      vertex -35 -20.25 6.75
      vertex -37 -20.25 6.75
    endloop
  endfacet
  facet normal -0 0.222521 0.974928
    outer loop
      vertex -37 -21.003 8.31366
      vertex -35 -22.695 8.69986
      vertex -35 -21.003 8.31366
    endloop
  endfacet
  facet normal 0 0.222521 0.974928
    outer loop
      vertex -35 -22.695 8.69986
      vertex -37 -21.003 8.31366
      vertex -37 -22.695 8.69986
    endloop
  endfacet
  facet normal 0 -0.62349 0.781832
    outer loop
      vertex -37 -22.695 8.69986
      vertex -35 -24 7.65919
      vertex -35 -22.695 8.69986
    endloop
  endfacet
  facet normal 0 -0.62349 0.781832
    outer loop
      vertex -35 -24 7.65919
      vertex -37 -22.695 8.69986
      vertex -37 -24 7.65919
    endloop
  endfacet
  facet normal 0 0.809017 -0.587785
    outer loop
      vertex -37 -21.7865 5.32342
      vertex -38 -20.75 6.75
      vertex -37 -20.75 6.75
    endloop
  endfacet
  facet normal 0 0.809017 -0.587785
    outer loop
      vertex -38 -20.75 6.75
      vertex -37 -21.7865 5.32342
      vertex -38 -21.7865 5.32342
    endloop
  endfacet
  facet normal 0 -1 0
    outer loop
      vertex -38 -23.4635 5.86832
      vertex -37 -23.4635 7.63168
      vertex -38 -23.4635 7.63168
    endloop
  endfacet
  facet normal 0 -1 -0
    outer loop
      vertex -37 -23.4635 7.63168
      vertex -38 -23.4635 5.86832
      vertex -37 -23.4635 5.86832
    endloop
  endfacet
  facet normal 0 -0.309017 -0.951056
    outer loop
      vertex -38 -23.4635 5.86832
      vertex -37 -21.7865 5.32342
      vertex -37 -23.4635 5.86832
    endloop
  endfacet
  facet normal -0 -0.309017 -0.951056
    outer loop
      vertex -37 -21.7865 5.32342
      vertex -38 -23.4635 5.86832
      vertex -38 -21.7865 5.32342
    endloop
  endfacet
  facet normal 0 -0.309017 0.951056
    outer loop
      vertex -38 -21.7865 8.17658
      vertex -37 -23.4635 7.63168
      vertex -37 -21.7865 8.17658
    endloop
  endfacet
  facet normal 0 -0.309017 0.951056
    outer loop
      vertex -37 -23.4635 7.63168
      vertex -38 -21.7865 8.17658
      vertex -38 -23.4635 7.63168
    endloop
  endfacet
  facet normal -1 0 0
    outer loop
      vertex -38 -21.7865 5.32342
      vertex -38 -21.7865 8.17658
      vertex -38 -20.75 6.75
    endloop
  endfacet
  facet normal -1 0 0
    outer loop
      vertex -38 -23.4635 5.86832
      vertex -38 -21.7865 8.17658
      vertex -38 -21.7865 5.32342
    endloop
  endfacet
  facet normal -1 0 0
    outer loop
      vertex -38 -21.7865 8.17658
      vertex -38 -23.4635 5.86832
      vertex -38 -23.4635 7.63168
    endloop
  endfacet
  facet normal 0 0.809017 0.587785
    outer loop
      vertex -37 -20.75 6.75
      vertex -38 -21.7865 8.17658
      vertex -37 -21.7865 8.17658
    endloop
  endfacet
  facet normal 0 0.809017 0.587785
    outer loop
      vertex -38 -21.7865 8.17658
      vertex -37 -20.75 6.75
      vertex -38 -20.75 6.75
    endloop
  endfacet
  facet normal 0 0.900969 -0.433884
    outer loop
      vertex -35 23.497 42.6863
      vertex -37 24.25 44.25
      vertex -35 24.25 44.25
    endloop
  endfacet
  facet normal 0 0.900969 -0.433884
    outer loop
      vertex -37 24.25 44.25
      vertex -35 23.497 42.6863
      vertex -37 23.497 42.6863
    endloop
  endfacet
  facet normal 0 -1 0
    outer loop
      vertex -37 20.4481 43.3822
      vertex -35 20.4481 45.1178
      vertex -37 20.4481 45.1178
    endloop
  endfacet
  facet normal 0 -1 -0
    outer loop
      vertex -35 20.4481 45.1178
      vertex -37 20.4481 43.3822
      vertex -35 20.4481 43.3822
    endloop
  endfacet
  facet normal 0 0.222521 -0.974928
    outer loop
      vertex -37 21.805 42.3001
      vertex -35 23.497 42.6863
      vertex -35 21.805 42.3001
    endloop
  endfacet
  facet normal 0 0.222521 -0.974928
    outer loop
      vertex -35 23.497 42.6863
      vertex -37 21.805 42.3001
      vertex -37 23.497 42.6863
    endloop
  endfacet
  facet normal -1 0 0
    outer loop
      vertex -37 23.497 42.6863
      vertex -37 23.75 44.25
      vertex -37 24.25 44.25
    endloop
  endfacet
  facet normal -1 0 0
    outer loop
      vertex -37 23.497 42.6863
      vertex -37 22.7135 42.8234
      vertex -37 23.75 44.25
    endloop
  endfacet
  facet normal -1 0 0
    outer loop
      vertex -37 21.805 42.3001
      vertex -37 22.7135 42.8234
      vertex -37 23.497 42.6863
    endloop
  endfacet
  facet normal -1 0 0
    outer loop
      vertex -37 21.805 42.3001
      vertex -37 21.0365 43.3683
      vertex -37 22.7135 42.8234
    endloop
  endfacet
  facet normal -1 0 0
    outer loop
      vertex -37 21.0365 43.3683
      vertex -37 20.4481 43.3822
      vertex -37 21.0365 45.1317
    endloop
  endfacet
  facet normal -1 0 0
    outer loop
      vertex -37 20.4481 43.3822
      vertex -37 21.0365 43.3683
      vertex -37 21.805 42.3001
    endloop
  endfacet
  facet normal -1 0 0
    outer loop
      vertex -37 23.75 44.25
      vertex -37 23.497 45.8137
      vertex -37 24.25 44.25
    endloop
  endfacet
  facet normal -1 0 0
    outer loop
      vertex -37 22.7135 45.6766
      vertex -37 23.497 45.8137
      vertex -37 23.75 44.25
    endloop
  endfacet
  facet normal -1 0 0
    outer loop
      vertex -37 22.7135 45.6766
      vertex -37 21.805 46.1999
      vertex -37 23.497 45.8137
    endloop
  endfacet
  facet normal -1 0 0
    outer loop
      vertex -37 21.0365 45.1317
      vertex -37 21.805 46.1999
      vertex -37 22.7135 45.6766
    endloop
  endfacet
  facet normal -1 -0 0
    outer loop
      vertex -37 21.0365 45.1317
      vertex -37 20.4481 45.1178
      vertex -37 21.805 46.1999
    endloop
  endfacet
  facet normal -1 0 0
    outer loop
      vertex -37 20.4481 45.1178
      vertex -37 21.0365 45.1317
      vertex -37 20.4481 43.3822
    endloop
  endfacet
  facet normal 0 -0.62349 -0.781831
    outer loop
      vertex -37 20.4481 43.3822
      vertex -35 21.805 42.3001
      vertex -35 20.4481 43.3822
    endloop
  endfacet
  facet normal -0 -0.62349 -0.781831
    outer loop
      vertex -35 21.805 42.3001
      vertex -37 20.4481 43.3822
      vertex -37 21.805 42.3001
    endloop
  endfacet
  facet normal 0 0.900969 0.433884
    outer loop
      vertex -35 24.25 44.25
      vertex -37 23.497 45.8137
      vertex -35 23.497 45.8137
    endloop
  endfacet
  facet normal 0 0.900969 0.433884
    outer loop
      vertex -37 23.497 45.8137
      vertex -35 24.25 44.25
      vertex -37 24.25 44.25
    endloop
  endfacet
  facet normal -0 0.222521 0.974928
    outer loop
      vertex -37 23.497 45.8137
      vertex -35 21.805 46.1999
      vertex -35 23.497 45.8137
    endloop
  endfacet
  facet normal 0 0.222521 0.974928
    outer loop
      vertex -35 21.805 46.1999
      vertex -37 23.497 45.8137
      vertex -37 21.805 46.1999
    endloop
  endfacet
  facet normal 0 -0.62349 0.781831
    outer loop
      vertex -37 21.805 46.1999
      vertex -35 20.4481 45.1178
      vertex -35 21.805 46.1999
    endloop
  endfacet
  facet normal 0 -0.62349 0.781831
    outer loop
      vertex -35 20.4481 45.1178
      vertex -37 21.805 46.1999
      vertex -37 20.4481 45.1178
    endloop
  endfacet
  facet normal 0 0.809016 -0.587787
    outer loop
      vertex -37 22.7135 42.8234
      vertex -38 23.75 44.25
      vertex -37 23.75 44.25
    endloop
  endfacet
  facet normal 0 0.809016 -0.587787
    outer loop
      vertex -38 23.75 44.25
      vertex -37 22.7135 42.8234
      vertex -38 22.7135 42.8234
    endloop
  endfacet
  facet normal 0 -1 0
    outer loop
      vertex -38 21.0365 43.3683
      vertex -37 21.0365 45.1317
      vertex -38 21.0365 45.1317
    endloop
  endfacet
  facet normal 0 -1 -0
    outer loop
      vertex -37 21.0365 45.1317
      vertex -38 21.0365 43.3683
      vertex -37 21.0365 43.3683
    endloop
  endfacet
  facet normal 0 -0.309017 -0.951056
    outer loop
      vertex -38 21.0365 43.3683
      vertex -37 22.7135 42.8234
      vertex -37 21.0365 43.3683
    endloop
  endfacet
  facet normal -0 -0.309017 -0.951056
    outer loop
      vertex -37 22.7135 42.8234
      vertex -38 21.0365 43.3683
      vertex -38 22.7135 42.8234
    endloop
  endfacet
  facet normal 0 -0.309017 0.951056
    outer loop
      vertex -38 22.7135 45.6766
      vertex -37 21.0365 45.1317
      vertex -37 22.7135 45.6766
    endloop
  endfacet
  facet normal 0 -0.309017 0.951056
    outer loop
      vertex -37 21.0365 45.1317
      vertex -38 22.7135 45.6766
      vertex -38 21.0365 45.1317
    endloop
  endfacet
  facet normal -1 0 0
    outer loop
      vertex -38 22.7135 42.8234
      vertex -38 22.7135 45.6766
      vertex -38 23.75 44.25
    endloop
  endfacet
  facet normal -1 0 0
    outer loop
      vertex -38 21.0365 43.3683
      vertex -38 22.7135 45.6766
      vertex -38 22.7135 42.8234
    endloop
  endfacet
  facet normal -1 0 0
    outer loop
      vertex -38 22.7135 45.6766
      vertex -38 21.0365 43.3683
      vertex -38 21.0365 45.1317
    endloop
  endfacet
  facet normal 0 0.809017 0.587785
    outer loop
      vertex -37 23.75 44.25
      vertex -38 22.7135 45.6766
      vertex -37 22.7135 45.6766
    endloop
  endfacet
  facet normal 0 0.809017 0.587785
    outer loop
      vertex -38 22.7135 45.6766
      vertex -37 23.75 44.25
      vertex -38 23.75 44.25
    endloop
  endfacet
  facet normal -1.03446e-07 0.900969 -0.433884
    outer loop
      vertex -35 23.497 5.18634
      vertex -37 24 6.23087
      vertex -35 24 6.23087
    endloop
  endfacet
  facet normal 0 0.900969 -0.433884
    outer loop
      vertex -37 24 6.23087
      vertex -35 23.497 5.18634
      vertex -37 23.497 5.18634
    endloop
  endfacet
  facet normal 0 -1 0
    outer loop
      vertex -37 20.4481 5.88223
      vertex -35 20.4481 7.61777
      vertex -37 20.4481 7.61777
    endloop
  endfacet
  facet normal 0 -1 -0
    outer loop
      vertex -35 20.4481 7.61777
      vertex -37 20.4481 5.88223
      vertex -35 20.4481 5.88223
    endloop
  endfacet
  facet normal 0 0.222521 -0.974928
    outer loop
      vertex -37 21.805 4.80014
      vertex -35 23.497 5.18634
      vertex -35 21.805 4.80014
    endloop
  endfacet
  facet normal 0 0.222521 -0.974928
    outer loop
      vertex -35 23.497 5.18634
      vertex -37 21.805 4.80014
      vertex -37 23.497 5.18634
    endloop
  endfacet
  facet normal -1 0 0
    outer loop
      vertex -37 24 6.23087
      vertex -37 23.75 6.75
      vertex -37 24 7.26913
    endloop
  endfacet
  facet normal -1 0 0
    outer loop
      vertex -37 22.7135 5.32342
      vertex -37 24 6.23087
      vertex -37 23.497 5.18634
    endloop
  endfacet
  facet normal -1 -0 0
    outer loop
      vertex -37 24 6.23087
      vertex -37 22.7135 5.32342
      vertex -37 23.75 6.75
    endloop
  endfacet
  facet normal -1 0 0
    outer loop
      vertex -37 21.805 4.80014
      vertex -37 22.7135 5.32342
      vertex -37 23.497 5.18634
    endloop
  endfacet
  facet normal -1 0 0
    outer loop
      vertex -37 21.805 4.80014
      vertex -37 21.0365 5.86832
      vertex -37 22.7135 5.32342
    endloop
  endfacet
  facet normal -1 0 0
    outer loop
      vertex -37 21.0365 5.86832
      vertex -37 20.4481 5.88223
      vertex -37 21.0365 7.63168
    endloop
  endfacet
  facet normal -1 0 0
    outer loop
      vertex -37 20.4481 5.88223
      vertex -37 21.0365 5.86832
      vertex -37 21.805 4.80014
    endloop
  endfacet
  facet normal -1 0 0
    outer loop
      vertex -37 22.7135 8.17658
      vertex -37 24 7.26913
      vertex -37 23.75 6.75
    endloop
  endfacet
  facet normal -1 0 0
    outer loop
      vertex -37 24 7.26913
      vertex -37 22.7135 8.17658
      vertex -37 23.497 8.31366
    endloop
  endfacet
  facet normal -1 0 0
    outer loop
      vertex -37 22.7135 8.17658
      vertex -37 21.805 8.69986
      vertex -37 23.497 8.31366
    endloop
  endfacet
  facet normal -1 0 0
    outer loop
      vertex -37 21.0365 7.63168
      vertex -37 21.805 8.69986
      vertex -37 22.7135 8.17658
    endloop
  endfacet
  facet normal -1 -0 0
    outer loop
      vertex -37 21.0365 7.63168
      vertex -37 20.4481 7.61777
      vertex -37 21.805 8.69986
    endloop
  endfacet
  facet normal -1 0 0
    outer loop
      vertex -37 20.4481 7.61777
      vertex -37 21.0365 7.63168
      vertex -37 20.4481 5.88223
    endloop
  endfacet
  facet normal 0 -0.62349 -0.781831
    outer loop
      vertex -37 20.4481 5.88223
      vertex -35 21.805 4.80014
      vertex -35 20.4481 5.88223
    endloop
  endfacet
  facet normal -0 -0.62349 -0.781831
    outer loop
      vertex -35 21.805 4.80014
      vertex -37 20.4481 5.88223
      vertex -37 21.805 4.80014
    endloop
  endfacet
  facet normal 0 0.900969 0.433884
    outer loop
      vertex -35 24 7.26913
      vertex -37 23.497 8.31366
      vertex -35 23.497 8.31366
    endloop
  endfacet
  facet normal -1.03446e-07 0.900969 0.433884
    outer loop
      vertex -37 23.497 8.31366
      vertex -35 24 7.26913
      vertex -37 24 7.26913
    endloop
  endfacet
  facet normal -0 0.222521 0.974928
    outer loop
      vertex -37 23.497 8.31366
      vertex -35 21.805 8.69986
      vertex -35 23.497 8.31366
    endloop
  endfacet
  facet normal 0 0.222521 0.974928
    outer loop
      vertex -35 21.805 8.69986
      vertex -37 23.497 8.31366
      vertex -37 21.805 8.69986
    endloop
  endfacet
  facet normal 0 -0.62349 0.781831
    outer loop
      vertex -37 21.805 8.69986
      vertex -35 20.4481 7.61777
      vertex -35 21.805 8.69986
    endloop
  endfacet
  facet normal 0 -0.62349 0.781831
    outer loop
      vertex -35 20.4481 7.61777
      vertex -37 21.805 8.69986
      vertex -37 20.4481 7.61777
    endloop
  endfacet
  facet normal 0 0.809017 -0.587785
    outer loop
      vertex -37 22.7135 5.32342
      vertex -38 23.75 6.75
      vertex -37 23.75 6.75
    endloop
  endfacet
  facet normal 0 0.809017 -0.587785
    outer loop
      vertex -38 23.75 6.75
      vertex -37 22.7135 5.32342
      vertex -38 22.7135 5.32342
    endloop
  endfacet
  facet normal 0 -1 0
    outer loop
      vertex -38 21.0365 5.86832
      vertex -37 21.0365 7.63168
      vertex -38 21.0365 7.63168
    endloop
  endfacet
  facet normal 0 -1 -0
    outer loop
      vertex -37 21.0365 7.63168
      vertex -38 21.0365 5.86832
      vertex -37 21.0365 5.86832
    endloop
  endfacet
  facet normal 0 -0.309017 -0.951056
    outer loop
      vertex -38 21.0365 5.86832
      vertex -37 22.7135 5.32342
      vertex -37 21.0365 5.86832
    endloop
  endfacet
  facet normal -0 -0.309017 -0.951056
    outer loop
      vertex -37 22.7135 5.32342
      vertex -38 21.0365 5.86832
      vertex -38 22.7135 5.32342
    endloop
  endfacet
  facet normal 0 -0.309017 0.951056
    outer loop
      vertex -38 22.7135 8.17658
      vertex -37 21.0365 7.63168
      vertex -37 22.7135 8.17658
    endloop
  endfacet
  facet normal 0 -0.309017 0.951056
    outer loop
      vertex -37 21.0365 7.63168
      vertex -38 22.7135 8.17658
      vertex -38 21.0365 7.63168
    endloop
  endfacet
  facet normal -1 0 0
    outer loop
      vertex -38 22.7135 5.32342
      vertex -38 22.7135 8.17658
      vertex -38 23.75 6.75
    endloop
  endfacet
  facet normal -1 0 0
    outer loop
      vertex -38 21.0365 5.86832
      vertex -38 22.7135 8.17658
      vertex -38 22.7135 5.32342
    endloop
  endfacet
  facet normal -1 0 0
    outer loop
      vertex -38 22.7135 8.17658
      vertex -38 21.0365 5.86832
      vertex -38 21.0365 7.63168
    endloop
  endfacet
  facet normal 0 0.809017 0.587785
    outer loop
      vertex -37 23.75 6.75
      vertex -38 22.7135 8.17658
      vertex -37 22.7135 8.17658
    endloop
  endfacet
  facet normal 0 0.809017 0.587785
    outer loop
      vertex -38 22.7135 8.17658
      vertex -37 23.75 6.75
      vertex -38 23.75 6.75
    endloop
  endfacet
  facet normal 1 0 0
    outer loop
      vertex -33 26 48
      vertex -33 24 25
      vertex -33 26 25
    endloop
  endfacet
  facet normal 1 0 0
    outer loop
      vertex -33 24 25
      vertex -33 13.4499 20.555
      vertex -33 24 7.32747e-15
    endloop
  endfacet
  facet normal 1 0 0
    outer loop
      vertex -33 11.5 23
      vertex -33 24 25
      vertex -33 26 48
    endloop
  endfacet
  facet normal 1 0 0
    outer loop
      vertex -33 24 25
      vertex -33 13.0637 22.247
      vertex -33 13.4499 20.555
    endloop
  endfacet
  facet normal 1 0 0
    outer loop
      vertex -33 24 25
      vertex -33 11.5 23
      vertex -33 13.0637 22.247
    endloop
  endfacet
  facet normal 1 0 0
    outer loop
      vertex -33 26 48
      vertex -33 -11.5 23
      vertex -33 11.5 23
    endloop
  endfacet
  facet normal 1 -0 0
    outer loop
      vertex -33 -26 48
      vertex -33 -11.5 23
      vertex -33 26 48
    endloop
  endfacet
  facet normal 1 0 0
    outer loop
      vertex -33 -24 7.32747e-15
      vertex -33 -13.4499 20.555
      vertex -33 -24 25
    endloop
  endfacet
  facet normal 1 0 0
    outer loop
      vertex -33 -13.0637 22.247
      vertex -33 -24 25
      vertex -33 -13.4499 20.555
    endloop
  endfacet
  facet normal 1 -0 -0
    outer loop
      vertex -33 -24 25
      vertex -33 -11.5 23
      vertex -33 -26 48
    endloop
  endfacet
  facet normal 1 0 0
    outer loop
      vertex -33 -11.5 23
      vertex -33 -24 25
      vertex -33 -13.0637 22.247
    endloop
  endfacet
  facet normal 1 0 0
    outer loop
      vertex -33 -24 25
      vertex -33 -26 48
      vertex -33 -26 25
    endloop
  endfacet
  facet normal 1 0 0
    outer loop
      vertex -33 24 7.32747e-15
      vertex -33 13.4499 20.555
      vertex -33 13.4499 7.32747e-15
    endloop
  endfacet
  facet normal 1 0 0
    outer loop
      vertex -33 -13.4499 20.555
      vertex -33 -24 7.32747e-15
      vertex -33 -13.4499 7.32747e-15
    endloop
  endfacet
  facet normal 0 0 0
    outer loop
      vertex -33 26 25
      vertex -33 26 7.32747e-15
      vertex -33 26 3.33786e-07
    endloop
  endfacet
  facet normal 0 0 0
    outer loop
      vertex -33 -26 48
      vertex -33 -26 2
      vertex -33 -26 3.33786e-07
    endloop
  endfacet
  facet normal 0 0 0
    outer loop
      vertex -33 26 48
      vertex -33 26 25
      vertex -33 26 3.33786e-07
    endloop
  endfacet
  facet normal 0 0 0
    outer loop
      vertex -33 -26 48
      vertex -33 -26 3.33786e-07
      vertex -33 -26 7.32747e-15
    endloop
  endfacet
  facet normal 0 0 0
    outer loop
      vertex -33 26 48
      vertex -33 26 3.33786e-07
      vertex -33 26 2
    endloop
  endfacet
  facet normal 0 0 0
    outer loop
      vertex -33 -26 48
      vertex -33 -26 7.32747e-15
      vertex -33 -26 25
    endloop
  endfacet
  facet normal -0 0 1
    outer loop
      vertex -35 26 48
      vertex -33 -26 48
      vertex -33 26 48
    endloop
  endfacet
  facet normal 0 0 1
    outer loop
      vertex -33 -26 48
      vertex -35 26 48
      vertex -35 -26 48
    endloop
  endfacet
  facet normal -2.22045e-16 0 -1
    outer loop
      vertex -42 -26 9.32587e-15
      vertex -35 -24 7.77156e-15
      vertex -35 -26 7.77156e-15
    endloop
  endfacet
  facet normal -2.22045e-16 0 -1
    outer loop
      vertex -35 -24 7.77156e-15
      vertex -42 -26 9.32587e-15
      vertex -42 -24 9.32587e-15
    endloop
  endfacet
  facet normal -2.22045e-16 0 -1
    outer loop
      vertex -33 -26 7.32747e-15
      vertex -12 -24 2.66454e-15
      vertex -12 -26 2.66454e-15
    endloop
  endfacet
  facet normal -2.22045e-16 0 -1
    outer loop
      vertex -33 -26 7.32747e-15
      vertex -33 -24 7.32747e-15
      vertex -12 -24 2.66454e-15
    endloop
  endfacet
  facet normal -2.22045e-16 0 -1
    outer loop
      vertex -35 -24 7.77156e-15
      vertex -33 -24 7.32747e-15
      vertex -33 -26 7.32747e-15
    endloop
  endfacet
  facet normal -2.22045e-16 -0 -1
    outer loop
      vertex -35 -24 7.77156e-15
      vertex -33 -26 7.32747e-15
      vertex -35 -26 7.77156e-15
    endloop
  endfacet
  facet normal -2.22045e-16 0 -1
    outer loop
      vertex -33 -24 7.32747e-15
      vertex -35 -24 7.77156e-15
      vertex -33 -13.4499 7.32747e-15
    endloop
  endfacet
  facet normal -2.22045e-16 0 -1
    outer loop
      vertex -33 -13.4499 7.32747e-15
      vertex -35 -24 7.77156e-15
      vertex -35 -13.4499 7.77156e-15
    endloop
  endfacet
  facet normal -2.22045e-16 0 -1
    outer loop
      vertex -10 -23 2.22045e-15
      vertex -2.77556e-15 -21 0
      vertex -2.77556e-15 -23 0
    endloop
  endfacet
  facet normal -2.22045e-16 0 -1
    outer loop
      vertex -10 -26 2.22045e-15
      vertex -12 -24 2.66454e-15
      vertex -10 -23 2.22045e-15
    endloop
  endfacet
  facet normal -2.22045e-16 -6.57384e-32 -1
    outer loop
      vertex -10 -23 2.22045e-15
      vertex -12 -21 2.66454e-15
      vertex -2.77556e-15 -21 0
    endloop
  endfacet
  facet normal -2.22045e-16 -0 -1
    outer loop
      vertex -12 -21 2.66454e-15
      vertex -10 -23 2.22045e-15
      vertex -12 -24 2.66454e-15
    endloop
  endfacet
  facet normal -2.22045e-16 -0 -1
    outer loop
      vertex -12 -24 2.66454e-15
      vertex -10 -26 2.22045e-15
      vertex -12 -26 2.66454e-15
    endloop
  endfacet
  facet normal -2.22045e-16 0 -1
    outer loop
      vertex -35 24 7.77156e-15
      vertex -33 24 7.32747e-15
      vertex -33 13.4499 7.32747e-15
    endloop
  endfacet
  facet normal -2.22045e-16 -0 -1
    outer loop
      vertex -35 24 7.77156e-15
      vertex -33 13.4499 7.32747e-15
      vertex -35 13.4499 7.77156e-15
    endloop
  endfacet
  facet normal -2.22045e-16 0 -1
    outer loop
      vertex -33 24 7.32747e-15
      vertex -35 24 7.77156e-15
      vertex -33 26 7.32747e-15
    endloop
  endfacet
  facet normal -2.22045e-16 0 -1
    outer loop
      vertex -35 24 7.77156e-15
      vertex -35 26 7.77156e-15
      vertex -33 26 7.32747e-15
    endloop
  endfacet
  facet normal -2.22045e-16 0 -1
    outer loop
      vertex -42 24 9.32587e-15
      vertex -35 26 7.77156e-15
      vertex -35 24 7.77156e-15
    endloop
  endfacet
  facet normal -2.22045e-16 0 -1
    outer loop
      vertex -35 26 7.77156e-15
      vertex -42 24 9.32587e-15
      vertex -42 26 9.32587e-15
    endloop
  endfacet
  facet normal -2.22045e-16 0 -1
    outer loop
      vertex -2.77556e-15 21 0
      vertex -10 23 2.22045e-15
      vertex -2.77556e-15 23 0
    endloop
  endfacet
  facet normal -2.22045e-16 6.57384e-32 -1
    outer loop
      vertex -12 21 2.66454e-15
      vertex -10 23 2.22045e-15
      vertex -2.77556e-15 21 0
    endloop
  endfacet
  facet normal -2.22045e-16 -0 -1
    outer loop
      vertex -12 24 2.66454e-15
      vertex -10 23 2.22045e-15
      vertex -12 21 2.66454e-15
    endloop
  endfacet
  facet normal -2.22045e-16 0 -1
    outer loop
      vertex -10 23 2.22045e-15
      vertex -12 24 2.66454e-15
      vertex -10 26 2.22045e-15
    endloop
  endfacet
  facet normal -2.22045e-16 0 -1
    outer loop
      vertex -12 24 2.66454e-15
      vertex -12 26 2.66454e-15
      vertex -10 26 2.22045e-15
    endloop
  endfacet
  facet normal -2.22045e-16 0 -1
    outer loop
      vertex -33 24 7.32747e-15
      vertex -12 26 2.66454e-15
      vertex -12 24 2.66454e-15
    endloop
  endfacet
  facet normal -2.22045e-16 0 -1
    outer loop
      vertex -12 26 2.66454e-15
      vertex -33 24 7.32747e-15
      vertex -33 26 7.32747e-15
    endloop
  endfacet
  facet normal 0 1 -0
    outer loop
      vertex -20 -26 9.53674e-07
      vertex -33 -26 2
      vertex -20 -26 2
    endloop
  endfacet
  facet normal 0 1 0
    outer loop
      vertex -33 -26 2
      vertex -20 -26 9.53674e-07
      vertex -33 -26 3.33786e-07
    endloop
  endfacet
  facet normal 0 1 -0
    outer loop
      vertex -35 -26 2.38419e-07
      vertex -40 -26 2
      vertex -35 -26 2
    endloop
  endfacet
  facet normal 0 1 0
    outer loop
      vertex -40 -26 2
      vertex -35 -26 2.38419e-07
      vertex -40 -26 8.88178e-15
    endloop
  endfacet
  facet normal 0 -1 0
    outer loop
      vertex -35 -26 7.77156e-15
      vertex -33 -26 3.33786e-07
      vertex -35 -26 2.38419e-07
    endloop
  endfacet
  facet normal 0 -1 -0
    outer loop
      vertex -33 -26 3.33786e-07
      vertex -35 -26 7.77156e-15
      vertex -33 -26 7.32747e-15
    endloop
  endfacet
  facet normal 0 -1 0
    outer loop
      vertex -35 -26 2
      vertex -33 -26 48
      vertex -35 -26 48
    endloop
  endfacet
  facet normal 0 -1 -0
    outer loop
      vertex -33 -26 48
      vertex -35 -26 2
      vertex -33 -26 2
    endloop
  endfacet
  facet normal 0 -1 0
    outer loop
      vertex -33 26 2
      vertex -20 26 9.53674e-07
      vertex -20 26 2
    endloop
  endfacet
  facet normal -0 -1 0
    outer loop
      vertex -20 26 9.53674e-07
      vertex -33 26 2
      vertex -33 26 3.33786e-07
    endloop
  endfacet
  facet normal 0 -1 0
    outer loop
      vertex -40 26 2
      vertex -35 26 2.38419e-07
      vertex -35 26 2
    endloop
  endfacet
  facet normal -0 -1 0
    outer loop
      vertex -35 26 2.38419e-07
      vertex -40 26 2
      vertex -40 26 8.88178e-15
    endloop
  endfacet
  facet normal 0 1 0
    outer loop
      vertex -33 26 3.33786e-07
      vertex -35 26 7.77156e-15
      vertex -35 26 2.38419e-07
    endloop
  endfacet
  facet normal -0 1 0
    outer loop
      vertex -35 26 7.77156e-15
      vertex -33 26 3.33786e-07
      vertex -33 26 7.32747e-15
    endloop
  endfacet
  facet normal 0 1 -0
    outer loop
      vertex -33 26 2
      vertex -35 26 48
      vertex -33 26 48
    endloop
  endfacet
  facet normal 0 1 0
    outer loop
      vertex -35 26 48
      vertex -33 26 2
      vertex -35 26 2
    endloop
  endfacet
  facet normal 0 -0.974928 -0.222521
    outer loop
      vertex -35 13.4499 20.555
      vertex -33 13.0637 22.247
      vertex -35 13.0637 22.247
    endloop
  endfacet
  facet normal 0 -0.974928 -0.222521
    outer loop
      vertex -33 13.0637 22.247
      vertex -35 13.4499 20.555
      vertex -33 13.4499 20.555
    endloop
  endfacet
  facet normal 0 0.433884 -0.900969
    outer loop
      vertex -35 -13.0637 22.247
      vertex -33 -11.5 23
      vertex -33 -13.0637 22.247
    endloop
  endfacet
  facet normal 0 0.433884 -0.900969
    outer loop
      vertex -33 -11.5 23
      vertex -35 -13.0637 22.247
      vertex -35 -11.5 23
    endloop
  endfacet
  facet normal 0 1 0
    outer loop
      vertex -33 -13.4499 20.555
      vertex -35 -13.4499 7.77156e-15
      vertex -35 -13.4499 20.555
    endloop
  endfacet
  facet normal -0 1 0
    outer loop
      vertex -35 -13.4499 7.77156e-15
      vertex -33 -13.4499 20.555
      vertex -33 -13.4499 7.32747e-15
    endloop
  endfacet
  facet normal 0 -0.433884 -0.900969
    outer loop
      vertex -35 11.5 23
      vertex -33 13.0637 22.247
      vertex -33 11.5 23
    endloop
  endfacet
  facet normal -0 -0.433884 -0.900969
    outer loop
      vertex -33 13.0637 22.247
      vertex -35 11.5 23
      vertex -35 13.0637 22.247
    endloop
  endfacet
  facet normal 0 -1 0
    outer loop
      vertex -35 13.4499 7.77156e-15
      vertex -33 13.4499 20.555
      vertex -35 13.4499 20.555
    endloop
  endfacet
  facet normal 0 -1 -0
    outer loop
      vertex -33 13.4499 20.555
      vertex -35 13.4499 7.77156e-15
      vertex -33 13.4499 7.32747e-15
    endloop
  endfacet
  facet normal 0 0.974928 -0.222521
    outer loop
      vertex -33 -13.4499 20.555
      vertex -35 -13.0637 22.247
      vertex -33 -13.0637 22.247
    endloop
  endfacet
  facet normal 0 0.974928 -0.222521
    outer loop
      vertex -35 -13.0637 22.247
      vertex -33 -13.4499 20.555
      vertex -35 -13.4499 20.555
    endloop
  endfacet
  facet normal 0 0 -1
    outer loop
      vertex -35 -11.5 23
      vertex -33 11.5 23
      vertex -33 -11.5 23
    endloop
  endfacet
  facet normal -0 0 -1
    outer loop
      vertex -33 11.5 23
      vertex -35 -11.5 23
      vertex -35 11.5 23
    endloop
  endfacet
  facet normal 0 1 0
    outer loop
      vertex 2.77556e-15 23 25
      vertex -10 23 2.22045e-15
      vertex -10 23 25
    endloop
  endfacet
  facet normal -0 1 0
    outer loop
      vertex -10 23 2.22045e-15
      vertex 2.77556e-15 23 25
      vertex -2.77556e-15 23 0
    endloop
  endfacet
  facet normal 1 0 -2.22045e-16
    outer loop
      vertex 2.77556e-15 21 25
      vertex -2.77556e-15 23 0
      vertex 2.77556e-15 23 25
    endloop
  endfacet
  facet normal 1 0 -2.22045e-16
    outer loop
      vertex -2.77556e-15 23 0
      vertex 2.77556e-15 21 25
      vertex -2.77556e-15 21 0
    endloop
  endfacet
  facet normal 1 -0 0
    outer loop
      vertex -10 23 25
      vertex -10 26 2.22045e-15
      vertex -10 26 25
    endloop
  endfacet
  facet normal 1 0 0
    outer loop
      vertex -10 26 2.22045e-15
      vertex -10 23 25
      vertex -10 23 2.22045e-15
    endloop
  endfacet
  facet normal 0 -1 0
    outer loop
      vertex -12 21 2.66454e-15
      vertex 2.77556e-15 21 25
      vertex -12 21 25
    endloop
  endfacet
  facet normal 0 -1 0
    outer loop
      vertex 2.77556e-15 21 25
      vertex -12 21 2.66454e-15
      vertex -2.77556e-15 21 0
    endloop
  endfacet
  facet normal 0 0 1
    outer loop
      vertex -12 24 25
      vertex -10 26 25
      vertex -12 26 25
    endloop
  endfacet
  facet normal -0 0 1
    outer loop
      vertex -10 23 25
      vertex 2.77556e-15 21 25
      vertex 2.77556e-15 23 25
    endloop
  endfacet
  facet normal 0 0 1
    outer loop
      vertex -10 26 25
      vertex -12 24 25
      vertex -10 23 25
    endloop
  endfacet
  facet normal 0 0 1
    outer loop
      vertex -10 23 25
      vertex -12 21 25
      vertex 2.77556e-15 21 25
    endloop
  endfacet
  facet normal 0 0 1
    outer loop
      vertex -12 21 25
      vertex -10 23 25
      vertex -12 24 25
    endloop
  endfacet
  facet normal -0 0 1
    outer loop
      vertex -33 26 25
      vertex -12 24 25
      vertex -12 26 25
    endloop
  endfacet
  facet normal 0 0 1
    outer loop
      vertex -12 24 25
      vertex -33 26 25
      vertex -33 24 25
    endloop
  endfacet
  facet normal -0 0 1
    outer loop
      vertex -42 26 25
      vertex -35 24 25
      vertex -35 26 25
    endloop
  endfacet
  facet normal 0 0 1
    outer loop
      vertex -35 24 25
      vertex -42 26 25
      vertex -42 24 25
    endloop
  endfacet
  facet normal 0 1 0
    outer loop
      vertex 2.77556e-15 -21 25
      vertex -12 -21 2.66454e-15
      vertex -12 -21 25
    endloop
  endfacet
  facet normal -0 1 0
    outer loop
      vertex -12 -21 2.66454e-15
      vertex 2.77556e-15 -21 25
      vertex -2.77556e-15 -21 0
    endloop
  endfacet
  facet normal 1 0 -2.22045e-16
    outer loop
      vertex 2.77556e-15 -23 25
      vertex -2.77556e-15 -21 0
      vertex 2.77556e-15 -21 25
    endloop
  endfacet
  facet normal 1 0 -2.22045e-16
    outer loop
      vertex -2.77556e-15 -21 0
      vertex 2.77556e-15 -23 25
      vertex -2.77556e-15 -23 0
    endloop
  endfacet
  facet normal 1 -0 0
    outer loop
      vertex -10 -26 25
      vertex -10 -23 2.22045e-15
      vertex -10 -23 25
    endloop
  endfacet
  facet normal 1 0 0
    outer loop
      vertex -10 -23 2.22045e-15
      vertex -10 -26 25
      vertex -10 -26 2.22045e-15
    endloop
  endfacet
  facet normal 0 -1 0
    outer loop
      vertex -10 -23 2.22045e-15
      vertex 2.77556e-15 -23 25
      vertex -10 -23 25
    endloop
  endfacet
  facet normal 0 -1 0
    outer loop
      vertex 2.77556e-15 -23 25
      vertex -10 -23 2.22045e-15
      vertex -2.77556e-15 -23 0
    endloop
  endfacet
  facet normal 0 0 1
    outer loop
      vertex 2.77556e-15 -21 25
      vertex -10 -23 25
      vertex 2.77556e-15 -23 25
    endloop
  endfacet
  facet normal -0 0 1
    outer loop
      vertex -12 -21 25
      vertex -10 -23 25
      vertex 2.77556e-15 -21 25
    endloop
  endfacet
  facet normal 0 0 1
    outer loop
      vertex -12 -24 25
      vertex -10 -23 25
      vertex -12 -21 25
    endloop
  endfacet
  facet normal 0 0 1
    outer loop
      vertex -10 -23 25
      vertex -12 -24 25
      vertex -10 -26 25
    endloop
  endfacet
  facet normal 0 0 1
    outer loop
      vertex -12 -24 25
      vertex -12 -26 25
      vertex -10 -26 25
    endloop
  endfacet
  facet normal -0 0 1
    outer loop
      vertex -33 -24 25
      vertex -12 -26 25
      vertex -12 -24 25
    endloop
  endfacet
  facet normal 0 0 1
    outer loop
      vertex -12 -26 25
      vertex -33 -24 25
      vertex -33 -26 25
    endloop
  endfacet
  facet normal -0 0 1
    outer loop
      vertex -42 -24 25
      vertex -35 -26 25
      vertex -35 -24 25
    endloop
  endfacet
  facet normal 0 0 1
    outer loop
      vertex -35 -26 25
      vertex -42 -24 25
      vertex -42 -26 25
    endloop
  endfacet
  facet normal 0 1 0
    outer loop
      vertex -10 26 25
      vertex -12 26 2.66454e-15
      vertex -12 26 25
    endloop
  endfacet
  facet normal -0 1 0
    outer loop
      vertex -12 26 2.66454e-15
      vertex -10 26 25
      vertex -10 26 2.22045e-15
    endloop
  endfacet
  facet normal -1 0 0
    outer loop
      vertex -12 21 2.66454e-15
      vertex -12 24 25
      vertex -12 24 2.66454e-15
    endloop
  endfacet
  facet normal -1 -0 0
    outer loop
      vertex -12 24 25
      vertex -12 21 2.66454e-15
      vertex -12 21 25
    endloop
  endfacet
  facet normal 0 -1 0
    outer loop
      vertex -12 -26 2.66454e-15
      vertex -10 -26 25
      vertex -12 -26 25
    endloop
  endfacet
  facet normal 0 -1 -0
    outer loop
      vertex -10 -26 25
      vertex -12 -26 2.66454e-15
      vertex -10 -26 2.22045e-15
    endloop
  endfacet
  facet normal -1 0 0
    outer loop
      vertex -12 -24 2.66454e-15
      vertex -12 -21 25
      vertex -12 -21 2.66454e-15
    endloop
  endfacet
  facet normal -1 -0 0
    outer loop
      vertex -12 -21 25
      vertex -12 -24 2.66454e-15
      vertex -12 -24 25
    endloop
  endfacet
  facet normal 0 1 0
    outer loop
      vertex -35 26 25
      vertex -42 26 22.5
      vertex -42 26 25
    endloop
  endfacet
  facet normal 0 1 0
    outer loop
      vertex -35 26 25
      vertex -42 26 2.5
      vertex -42 26 22.5
    endloop
  endfacet
  facet normal 0 1 -0
    outer loop
      vertex -35 26 7.77156e-15
      vertex -42 26 2.5
      vertex -35 26 25
    endloop
  endfacet
  facet normal 0 1 0
    outer loop
      vertex -42 26 2.5
      vertex -35 26 7.77156e-15
      vertex -42 26 9.32587e-15
    endloop
  endfacet
  facet normal 0 1 0
    outer loop
      vertex -12 26 25
      vertex -33 26 7.32747e-15
      vertex -33 26 25
    endloop
  endfacet
  facet normal -0 1 0
    outer loop
      vertex -33 26 7.32747e-15
      vertex -12 26 25
      vertex -12 26 2.66454e-15
    endloop
  endfacet
  facet normal 0 -1 0
    outer loop
      vertex -33 24 7.32747e-15
      vertex -12 24 25
      vertex -33 24 25
    endloop
  endfacet
  facet normal 0 -1 -0
    outer loop
      vertex -12 24 25
      vertex -33 24 7.32747e-15
      vertex -12 24 2.66454e-15
    endloop
  endfacet
  facet normal 0 -1 0
    outer loop
      vertex -37 24 7.26913
      vertex -35 24 25
      vertex -42 24 25
    endloop
  endfacet
  facet normal 0 -1 -0
    outer loop
      vertex -35 24 25
      vertex -37 24 7.26913
      vertex -35 24 7.26913
    endloop
  endfacet
  facet normal 0 -1 0
    outer loop
      vertex -42 24 9.32587e-15
      vertex -37 24 7.26913
      vertex -42 24 25
    endloop
  endfacet
  facet normal 0 -1 -0
    outer loop
      vertex -37 24 7.26913
      vertex -42 24 9.32587e-15
      vertex -37 24 6.23087
    endloop
  endfacet
  facet normal 0 -1 0
    outer loop
      vertex -35 24 7.77156e-15
      vertex -37 24 6.23087
      vertex -42 24 9.32587e-15
    endloop
  endfacet
  facet normal 0 -1 0
    outer loop
      vertex -37 24 6.23087
      vertex -35 24 7.77156e-15
      vertex -35 24 6.23087
    endloop
  endfacet
  facet normal -1 0 0
    outer loop
      vertex -42 24 9.32587e-15
      vertex -42 26 2.5
      vertex -42 26 9.32587e-15
    endloop
  endfacet
  facet normal -1 -0 0
    outer loop
      vertex -42 26 2.5
      vertex -42 24 9.32587e-15
      vertex -42 26 22.5
    endloop
  endfacet
  facet normal -1 0 0
    outer loop
      vertex -42 24 25
      vertex -42 26 22.5
      vertex -42 24 9.32587e-15
    endloop
  endfacet
  facet normal -1 0 0
    outer loop
      vertex -42 26 22.5
      vertex -42 24 25
      vertex -42 26 25
    endloop
  endfacet
  facet normal 0 1 0
    outer loop
      vertex -12 -24 25
      vertex -33 -24 7.32747e-15
      vertex -33 -24 25
    endloop
  endfacet
  facet normal -0 1 0
    outer loop
      vertex -33 -24 7.32747e-15
      vertex -12 -24 25
      vertex -12 -24 2.66454e-15
    endloop
  endfacet
  facet normal 0 1 -0
    outer loop
      vertex -35 -24 7.77156e-15
      vertex -37 -24 5.84081
      vertex -35 -24 5.84081
    endloop
  endfacet
  facet normal 0 1 0
    outer loop
      vertex -37 -24 5.84081
      vertex -35 -24 7.77156e-15
      vertex -42 -24 9.32587e-15
    endloop
  endfacet
  facet normal 0 1 0
    outer loop
      vertex -37 -24 7.65919
      vertex -35 -24 25
      vertex -35 -24 7.65919
    endloop
  endfacet
  facet normal 0 1 0
    outer loop
      vertex -35 -24 25
      vertex -37 -24 7.65919
      vertex -42 -24 25
    endloop
  endfacet
  facet normal 0 1 0
    outer loop
      vertex -42 -24 9.32587e-15
      vertex -37 -24 7.65919
      vertex -37 -24 5.84081
    endloop
  endfacet
  facet normal 0 1 0
    outer loop
      vertex -37 -24 7.65919
      vertex -42 -24 9.32587e-15
      vertex -42 -24 25
    endloop
  endfacet
  facet normal 0 -1 0
    outer loop
      vertex -33 -26 7.32747e-15
      vertex -12 -26 25
      vertex -33 -26 25
    endloop
  endfacet
  facet normal 0 -1 -0
    outer loop
      vertex -12 -26 25
      vertex -33 -26 7.32747e-15
      vertex -12 -26 2.66454e-15
    endloop
  endfacet
  facet normal 0 -1 0
    outer loop
      vertex -42 -26 9.32587e-15
      vertex -35 -26 25
      vertex -42 -26 25
    endloop
  endfacet
  facet normal 0 -1 -0
    outer loop
      vertex -35 -26 25
      vertex -42 -26 9.32587e-15
      vertex -35 -26 7.77156e-15
    endloop
  endfacet
  facet normal -1 0 0
    outer loop
      vertex -42 -26 9.32587e-15
      vertex -42 -24 25
      vertex -42 -24 9.32587e-15
    endloop
  endfacet
  facet normal -1 -0 0
    outer loop
      vertex -42 -24 25
      vertex -42 -26 9.32587e-15
      vertex -42 -26 25
    endloop
  endfacet
  facet normal 1 0 0
    outer loop
      vertex -40 26 22.5
      vertex -40 31 7.5
      vertex -40 31 17.5
    endloop
  endfacet
  facet normal 1 0 0
    outer loop
      vertex -40 31 7.5
      vertex -40 26 22.5
      vertex -40 26 2.5
    endloop
  endfacet
  facet normal 0 0.707107 0.707107
    outer loop
      vertex -40 31 17.5
      vertex -42 26 22.5
      vertex -40 26 22.5
    endloop
  endfacet
  facet normal 0 0.707107 0.707107
    outer loop
      vertex -42 26 22.5
      vertex -40 31 17.5
      vertex -42 31 17.5
    endloop
  endfacet
  facet normal 0 0.707107 -0.707107
    outer loop
      vertex -40 26 2.5
      vertex -42 31 7.5
      vertex -40 31 7.5
    endloop
  endfacet
  facet normal 0 0.707107 -0.707107
    outer loop
      vertex -42 31 7.5
      vertex -40 26 2.5
      vertex -42 26 2.5
    endloop
  endfacet
  facet normal 0 1 -0
    outer loop
      vertex -40 31 7.5
      vertex -42 31 17.5
      vertex -40 31 17.5
    endloop
  endfacet
  facet normal 0 1 0
    outer loop
      vertex -42 31 17.5
      vertex -40 31 7.5
      vertex -42 31 7.5
    endloop
  endfacet
  facet normal 0 -1 0
    outer loop
      vertex -42 26 2.5
      vertex -40 26 22.5
      vertex -42 26 22.5
    endloop
  endfacet
  facet normal 0 -1 -0
    outer loop
      vertex -40 26 22.5
      vertex -42 26 2.5
      vertex -40 26 2.5
    endloop
  endfacet
  facet normal -1 0 0
    outer loop
      vertex -42 26 2.5
      vertex -42 31 17.5
      vertex -42 31 7.5
    endloop
  endfacet
  facet normal -1 -0 0
    outer loop
      vertex -42 31 17.5
      vertex -42 26 2.5
      vertex -42 26 22.5
    endloop
  endfacet
  facet normal -1 0 0
    outer loop
      vertex -42 -31 7.5
      vertex -42 -26 22.5
      vertex -42 -26 2.5
    endloop
  endfacet
  facet normal -1 0 0
    outer loop
      vertex -42 -26 22.5
      vertex -42 -31 7.5
      vertex -42 -31 17.5
    endloop
  endfacet
  facet normal 0 -0.707107 0.707107
    outer loop
      vertex -42 -31 17.5
      vertex -40 -26 22.5
      vertex -42 -26 22.5
    endloop
  endfacet
  facet normal 0 -0.707107 0.707107
    outer loop
      vertex -40 -26 22.5
      vertex -42 -31 17.5
      vertex -40 -31 17.5
    endloop
  endfacet
  facet normal 0 -0.707107 -0.707107
    outer loop
      vertex -42 -26 2.5
      vertex -40 -31 7.5
      vertex -42 -31 7.5
    endloop
  endfacet
  facet normal 0 -0.707107 -0.707107
    outer loop
      vertex -40 -31 7.5
      vertex -42 -26 2.5
      vertex -40 -26 2.5
    endloop
  endfacet
  facet normal 0 1 -0
    outer loop
      vertex -40 -26 2.5
      vertex -42 -26 22.5
      vertex -40 -26 22.5
    endloop
  endfacet
  facet normal 0 1 0
    outer loop
      vertex -42 -26 22.5
      vertex -40 -26 2.5
      vertex -42 -26 2.5
    endloop
  endfacet
  facet normal 0 -1 0
    outer loop
      vertex -42 -31 7.5
      vertex -40 -31 17.5
      vertex -42 -31 17.5
    endloop
  endfacet
  facet normal 0 -1 -0
    outer loop
      vertex -40 -31 17.5
      vertex -42 -31 7.5
      vertex -40 -31 7.5
    endloop
  endfacet
  facet normal 1 -0 0
    outer loop
      vertex -40 -31 17.5
      vertex -40 -26 2.5
      vertex -40 -26 22.5
    endloop
  endfacet
  facet normal 1 0 0
    outer loop
      vertex -40 -26 2.5
      vertex -40 -31 17.5
      vertex -40 -31 7.5
    endloop
  endfacet
  facet normal 9.53674e-08 9.53674e-08 -1
    outer loop
      vertex -20 26 9.53674e-07
      vertex -35 31 7.77156e-15
      vertex -25 31 9.53674e-07
    endloop
  endfacet
  facet normal -0.707107 0.707107 0
    outer loop
      vertex -40 26 8.88178e-15
      vertex -35 31 2
      vertex -35 31 7.77156e-15
    endloop
  endfacet
  facet normal -0.707107 0.707107 0
    outer loop
      vertex -35 31 2
      vertex -40 26 8.88178e-15
      vertex -40 26 2
    endloop
  endfacet
  facet normal 4.76837e-08 -4.76837e-08 -1
    outer loop
      vertex -35 31 7.77156e-15
      vertex -33 26 3.33786e-07
      vertex -35 26 2.38419e-07
    endloop
  endfacet
  facet normal 4.76837e-08 -4.76837e-08 -1
    outer loop
      vertex -33 26 3.33786e-07
      vertex -35 31 7.77156e-15
      vertex -20 26 9.53674e-07
    endloop
  endfacet
  facet normal 4.76837e-08 -4.76837e-08 -1
    outer loop
      vertex -35 31 7.77156e-15
      vertex -35 26 2.38419e-07
      vertex -40 26 8.88178e-15
    endloop
  endfacet
  facet normal -5.50197e-08 2.56758e-08 1
    outer loop
      vertex -35 31 2
      vertex -33 26 2
      vertex -20 26 2
    endloop
  endfacet
  facet normal 0 4.76837e-08 1
    outer loop
      vertex -35 31 2
      vertex -35 26 2
      vertex -33 26 2
    endloop
  endfacet
  facet normal -4.76837e-08 4.76837e-08 1
    outer loop
      vertex -35 26 2
      vertex -35 31 2
      vertex -40 26 2
    endloop
  endfacet
  facet normal 0 1 -0
    outer loop
      vertex -25 31 9.53674e-07
      vertex -35 31 2
      vertex -25 31 2
    endloop
  endfacet
  facet normal 0 1 0
    outer loop
      vertex -35 31 2
      vertex -25 31 9.53674e-07
      vertex -35 31 7.77156e-15
    endloop
  endfacet
  facet normal 0.707107 0.707107 0
    outer loop
      vertex -20 26 2
      vertex -25 31 9.53674e-07
      vertex -25 31 2
    endloop
  endfacet
  facet normal 0.707107 0.707107 0
    outer loop
      vertex -25 31 9.53674e-07
      vertex -20 26 2
      vertex -20 26 9.53674e-07
    endloop
  endfacet
  facet normal 0 1.90735e-07 1
    outer loop
      vertex -20 26 2
      vertex -25 31 2
      vertex -35 31 2
    endloop
  endfacet
  facet normal -9.53674e-08 -9.53674e-08 1
    outer loop
      vertex -40 -26 2
      vertex -35 -31 2
      vertex -25 -31 2
    endloop
  endfacet
  facet normal 0.707107 -0.707107 0
    outer loop
      vertex -25 -31 2
      vertex -20 -26 9.53674e-07
      vertex -20 -26 2
    endloop
  endfacet
  facet normal 0.707107 -0.707107 0
    outer loop
      vertex -20 -26 9.53674e-07
      vertex -25 -31 2
      vertex -25 -31 9.53674e-07
    endloop
  endfacet
  facet normal -5.50197e-08 5.50197e-08 1
    outer loop
      vertex -33 -26 2
      vertex -25 -31 2
      vertex -20 -26 2
    endloop
  endfacet
  facet normal -0 1.43051e-07 1
    outer loop
      vertex -35 -26 2
      vertex -25 -31 2
      vertex -33 -26 2
    endloop
  endfacet
  facet normal -4.76837e-08 4.76837e-08 1
    outer loop
      vertex -25 -31 2
      vertex -35 -26 2
      vertex -40 -26 2
    endloop
  endfacet
  facet normal 9.53674e-08 -9.53674e-08 -1
    outer loop
      vertex -25 -31 9.53674e-07
      vertex -35 -31 7.77156e-15
      vertex -20 -26 9.53674e-07
    endloop
  endfacet
  facet normal 0 -1 0
    outer loop
      vertex -35 -31 2
      vertex -25 -31 9.53674e-07
      vertex -25 -31 2
    endloop
  endfacet
  facet normal -0 -1 0
    outer loop
      vertex -25 -31 9.53674e-07
      vertex -35 -31 2
      vertex -35 -31 7.77156e-15
    endloop
  endfacet
  facet normal 4.76837e-08 4.76837e-08 -1
    outer loop
      vertex -35 -31 7.77156e-15
      vertex -33 -26 3.33786e-07
      vertex -20 -26 9.53674e-07
    endloop
  endfacet
  facet normal 4.76837e-08 4.76837e-08 -1
    outer loop
      vertex -35 -31 7.77156e-15
      vertex -35 -26 2.38419e-07
      vertex -33 -26 3.33786e-07
    endloop
  endfacet
  facet normal 4.76837e-08 4.76837e-08 -1
    outer loop
      vertex -35 -26 2.38419e-07
      vertex -35 -31 7.77156e-15
      vertex -40 -26 8.88178e-15
    endloop
  endfacet
  facet normal -0.707107 -0.707107 0
    outer loop
      vertex -35 -31 7.77156e-15
      vertex -40 -26 2
      vertex -40 -26 8.88178e-15
    endloop
  endfacet
  facet normal -0.707107 -0.707107 0
    outer loop
      vertex -40 -26 2
      vertex -35 -31 7.77156e-15
      vertex -35 -31 2
    endloop
  endfacet
endsolid OpenSCAD_Model
