solid OpenSCAD_Model
  facet normal -0 0 1
    outer loop
      vertex -42 28 25
      vertex -33 26 25
      vertex -24 28 25
    endloop
  endfacet
  facet normal 0 0 1
    outer loop
      vertex -33 26 25
      vertex -42 28 25
      vertex -35 26 25
    endloop
  endfacet
  facet normal 0 0 1
    outer loop
      vertex -35 26 25
      vertex -42 28 25
      vertex -42 26 25
    endloop
  endfacet
  facet normal 0 0 1
    outer loop
      vertex 14 23 25
      vertex 5 21 25
      vertex 14 21 25
    endloop
  endfacet
  facet normal -0 0 1
    outer loop
      vertex -14 23 25
      vertex 5 21 25
      vertex 14 23 25
    endloop
  endfacet
  facet normal 0 0 1
    outer loop
      vertex -14 23 25
      vertex 2.77556e-15 18 25
      vertex 5 21 25
    endloop
  endfacet
  facet normal 0 0 1
    outer loop
      vertex -33 18 25
      vertex -24 28 25
      vertex -33 26 25
    endloop
  endfacet
  facet normal 0 0 1
    outer loop
      vertex -24 28 25
      vertex -33 18 25
      vertex -14 23 25
    endloop
  endfacet
  facet normal 0 0 1
    outer loop
      vertex -14 23 25
      vertex -33 18 25
      vertex 2.77556e-15 18 25
    endloop
  endfacet
  facet normal -4.44089e-16 0 -1
    outer loop
      vertex -14 -23 6.21725e-15
      vertex 8 -21 -3.55271e-15
      vertex 8 -23 -3.55271e-15
    endloop
  endfacet
  facet normal -4.44089e-16 0 -1
    outer loop
      vertex -14 -23 6.21725e-15
      vertex -15 -21 6.66134e-15
      vertex 8 -21 -3.55271e-15
    endloop
  endfacet
  facet normal -4.44089e-16 0 -1
    outer loop
      vertex -24 -28 1.06581e-14
      vertex -15 -21 6.66134e-15
      vertex -14 -23 6.21725e-15
    endloop
  endfacet
  facet normal -4.44089e-16 0 -1
    outer loop
      vertex -24 -28 1.06581e-14
      vertex -25 -26 1.11022e-14
      vertex -15 -21 6.66134e-15
    endloop
  endfacet
  facet normal -4.44089e-16 0 -1
    outer loop
      vertex -27 -28 1.19904e-14
      vertex -25 -26 1.11022e-14
      vertex -24 -28 1.06581e-14
    endloop
  endfacet
  facet normal -4.44089e-16 0 -1
    outer loop
      vertex -27 -28 1.19904e-14
      vertex -33 -26 1.46549e-14
      vertex -25 -26 1.11022e-14
    endloop
  endfacet
  facet normal -4.44089e-16 0 -1
    outer loop
      vertex -27 -28 1.19904e-14
      vertex -35 -26 1.55431e-14
      vertex -33 -26 1.46549e-14
    endloop
  endfacet
  facet normal -4.44089e-16 0 -1
    outer loop
      vertex -42 -28 1.86517e-14
      vertex -35 -26 1.55431e-14
      vertex -27 -28 1.19904e-14
    endloop
  endfacet
  facet normal -4.44089e-16 0 -1
    outer loop
      vertex -35 -26 1.55431e-14
      vertex -42 -28 1.86517e-14
      vertex -42 -26 1.86517e-14
    endloop
  endfacet
  facet normal -4.44089e-16 0 -1
    outer loop
      vertex 8 21 -3.55271e-15
      vertex -14 23 6.21725e-15
      vertex 8 23 -3.55271e-15
    endloop
  endfacet
  facet normal -4.44089e-16 0 -1
    outer loop
      vertex -15 21 6.66134e-15
      vertex -14 23 6.21725e-15
      vertex 8 21 -3.55271e-15
    endloop
  endfacet
  facet normal -4.44089e-16 0 -1
    outer loop
      vertex -15 21 6.66134e-15
      vertex -24 28 1.06581e-14
      vertex -14 23 6.21725e-15
    endloop
  endfacet
  facet normal -4.44089e-16 0 -1
    outer loop
      vertex -25 26 1.11022e-14
      vertex -24 28 1.06581e-14
      vertex -15 21 6.66134e-15
    endloop
  endfacet
  facet normal -4.44089e-16 0 -1
    outer loop
      vertex -25 26 1.11022e-14
      vertex -27 28 1.19904e-14
      vertex -24 28 1.06581e-14
    endloop
  endfacet
  facet normal -4.44089e-16 0 -1
    outer loop
      vertex -33 26 1.46549e-14
      vertex -27 28 1.19904e-14
      vertex -25 26 1.11022e-14
    endloop
  endfacet
  facet normal -4.44089e-16 0 -1
    outer loop
      vertex -35 26 1.55431e-14
      vertex -27 28 1.19904e-14
      vertex -33 26 1.46549e-14
    endloop
  endfacet
  facet normal -4.44089e-16 -0 -1
    outer loop
      vertex -42 28 1.86517e-14
      vertex -35 26 1.55431e-14
      vertex -42 26 1.86517e-14
    endloop
  endfacet
  facet normal -4.44089e-16 0 -1
    outer loop
      vertex -35 26 1.55431e-14
      vertex -42 28 1.86517e-14
      vertex -27 28 1.19904e-14
    endloop
  endfacet
  facet normal 0 1 -0
    outer loop
      vertex -33 26 25
      vertex -35 26 40
      vertex -33 26 40
    endloop
  endfacet
  facet normal 0 1 0
    outer loop
      vertex -35 26 40
      vertex -33 26 25
      vertex -35 26 25
    endloop
  endfacet
  facet normal 0 -1 0
    outer loop
      vertex -33 26 1.46549e-14
      vertex -25 26 23
      vertex -33 26 23
    endloop
  endfacet
  facet normal 0 -1 -0
    outer loop
      vertex -25 26 23
      vertex -33 26 1.46549e-14
      vertex -25 26 1.11022e-14
    endloop
  endfacet
  facet normal 0 1 0
    outer loop
      vertex -33 26 1.46549e-14
      vertex -35 26 7.77156e-15
      vertex -35 26 1.55431e-14
    endloop
  endfacet
  facet normal -0 1 0
    outer loop
      vertex -35 26 7.77156e-15
      vertex -33 26 1.46549e-14
      vertex -33 26 7.32747e-15
    endloop
  endfacet
  facet normal 0 -1 0
    outer loop
      vertex -42 26 1.86517e-14
      vertex -35 26 25
      vertex -42 26 25
    endloop
  endfacet
  facet normal 0 -1 -0
    outer loop
      vertex -35 26 25
      vertex -42 26 1.86517e-14
      vertex -35 26 1.55431e-14
    endloop
  endfacet
  facet normal -1 0 0
    outer loop
      vertex -42 26 1.86517e-14
      vertex -42 28 25
      vertex -42 28 1.86517e-14
    endloop
  endfacet
  facet normal -1 -0 0
    outer loop
      vertex -42 28 25
      vertex -42 26 1.86517e-14
      vertex -42 26 25
    endloop
  endfacet
  facet normal 0 1 0
    outer loop
      vertex -24 28 25
      vertex -40 28 22.5
      vertex -42 28 25
    endloop
  endfacet
  facet normal 0 1 0
    outer loop
      vertex -24 28 25
      vertex -27 28 2
      vertex -40 28 22.5
    endloop
  endfacet
  facet normal 0 1 -0
    outer loop
      vertex -24 28 1.06581e-14
      vertex -27 28 2
      vertex -24 28 25
    endloop
  endfacet
  facet normal 0 1 0
    outer loop
      vertex -27 28 2
      vertex -24 28 1.06581e-14
      vertex -27 28 1.19904e-14
    endloop
  endfacet
  facet normal 0 1 0
    outer loop
      vertex -42 28 25
      vertex -40 28 22.5
      vertex -42 28 22.5
    endloop
  endfacet
  facet normal 0 1 0
    outer loop
      vertex -40 28 22.5
      vertex -27 28 2
      vertex -40 28 2
    endloop
  endfacet
  facet normal 0 0 0
    outer loop
      vertex -42 28 25
      vertex -42 28 22.5
      vertex -42 28 2
    endloop
  endfacet
  facet normal 0 0 0
    outer loop
      vertex -42 28 25
      vertex -42 28 2
      vertex -42 28 1.86517e-14
    endloop
  endfacet
  facet normal 0 -1 0
    outer loop
      vertex -42 28 1.15463e-14
      vertex -27 28 1.19904e-14
      vertex -42 28 1.86517e-14
    endloop
  endfacet
  facet normal 0 -1 -0
    outer loop
      vertex -27 28 1.19904e-14
      vertex -42 28 1.15463e-14
      vertex -27 28 4.88498e-15
    endloop
  endfacet
  facet normal 0.447214 0.894427 0
    outer loop
      vertex -14 23 25
      vertex -24 28 1.06581e-14
      vertex -24 28 25
    endloop
  endfacet
  facet normal 0.447214 0.894427 0
    outer loop
      vertex -24 28 1.06581e-14
      vertex -14 23 25
      vertex -14 23 6.21725e-15
    endloop
  endfacet
  facet normal 0 1 -0
    outer loop
      vertex 16 23 15
      vertex 14 23 25
      vertex 16 23 25
    endloop
  endfacet
  facet normal 0 1 0
    outer loop
      vertex 14 23 25
      vertex 16 23 15
      vertex -14 23 25
    endloop
  endfacet
  facet normal 0 1 -0
    outer loop
      vertex 8 23 -3.55271e-15
      vertex -14 23 25
      vertex 16 23 15
    endloop
  endfacet
  facet normal 0 1 0
    outer loop
      vertex -14 23 25
      vertex 8 23 -3.55271e-15
      vertex -14 23 6.21725e-15
    endloop
  endfacet
  facet normal 0 -1 0
    outer loop
      vertex -15 21 6.66134e-15
      vertex 5 21 23
      vertex -15 21 23
    endloop
  endfacet
  facet normal 0 -1 -0
    outer loop
      vertex 5 21 23
      vertex -15 21 6.66134e-15
      vertex 8 21 -3.55271e-15
    endloop
  endfacet
  facet normal 0 -1 0
    outer loop
      vertex 5 21 23
      vertex 8 21 -3.55271e-15
      vertex 14 21 15
    endloop
  endfacet
  facet normal 0 -1 -0
    outer loop
      vertex 14 21 15
      vertex 8 21 -3.55271e-15
      vertex 16 21 15
    endloop
  endfacet
  facet normal 0 -1 0
    outer loop
      vertex 5 21 23
      vertex 14 21 25
      vertex 5 21 25
    endloop
  endfacet
  facet normal 0 -1 -0
    outer loop
      vertex 14 21 25
      vertex 5 21 23
      vertex 14 21 15
    endloop
  endfacet
  facet normal -0.447214 -0.894427 0
    outer loop
      vertex -25 26 1.11022e-14
      vertex -15 21 23
      vertex -25 26 23
    endloop
  endfacet
  facet normal -0.447214 -0.894427 -0
    outer loop
      vertex -15 21 23
      vertex -25 26 1.11022e-14
      vertex -15 21 6.66134e-15
    endloop
  endfacet
  facet normal -0 0 1
    outer loop
      vertex 5 -21 25
      vertex 14 -23 25
      vertex 14 -21 25
    endloop
  endfacet
  facet normal 0 0 1
    outer loop
      vertex 5 -21 25
      vertex -14 -23 25
      vertex 14 -23 25
    endloop
  endfacet
  facet normal 0 0 1
    outer loop
      vertex 2.77556e-15 -18 25
      vertex -14 -23 25
      vertex 5 -21 25
    endloop
  endfacet
  facet normal -0 0 1
    outer loop
      vertex -33 -18 25
      vertex -14 -23 25
      vertex 2.77556e-15 -18 25
    endloop
  endfacet
  facet normal 0 0 1
    outer loop
      vertex -33 -18 25
      vertex -24 -28 25
      vertex -14 -23 25
    endloop
  endfacet
  facet normal -0 0 1
    outer loop
      vertex -33 -26 25
      vertex -24 -28 25
      vertex -33 -18 25
    endloop
  endfacet
  facet normal 0 0 1
    outer loop
      vertex -42 -28 25
      vertex -33 -26 25
      vertex -35 -26 25
    endloop
  endfacet
  facet normal 0 0 1
    outer loop
      vertex -42 -28 25
      vertex -35 -26 25
      vertex -42 -26 25
    endloop
  endfacet
  facet normal 0 0 1
    outer loop
      vertex -33 -26 25
      vertex -42 -28 25
      vertex -24 -28 25
    endloop
  endfacet
  facet normal 0 1 0
    outer loop
      vertex -25 -26 23
      vertex -33 -26 1.46549e-14
      vertex -33 -26 23
    endloop
  endfacet
  facet normal -0 1 0
    outer loop
      vertex -33 -26 1.46549e-14
      vertex -25 -26 23
      vertex -25 -26 1.11022e-14
    endloop
  endfacet
  facet normal 0 -1 0
    outer loop
      vertex -35 -26 25
      vertex -33 -26 40
      vertex -35 -26 40
    endloop
  endfacet
  facet normal 0 -1 -0
    outer loop
      vertex -33 -26 40
      vertex -35 -26 25
      vertex -33 -26 25
    endloop
  endfacet
  facet normal 0 -1 0
    outer loop
      vertex -35 -26 7.77156e-15
      vertex -33 -26 1.46549e-14
      vertex -35 -26 1.55431e-14
    endloop
  endfacet
  facet normal 0 -1 -0
    outer loop
      vertex -33 -26 1.46549e-14
      vertex -35 -26 7.77156e-15
      vertex -33 -26 7.32747e-15
    endloop
  endfacet
  facet normal 0 1 0
    outer loop
      vertex -35 -26 25
      vertex -42 -26 1.86517e-14
      vertex -42 -26 25
    endloop
  endfacet
  facet normal -0 1 0
    outer loop
      vertex -42 -26 1.86517e-14
      vertex -35 -26 25
      vertex -35 -26 1.55431e-14
    endloop
  endfacet
  facet normal -1 0 0
    outer loop
      vertex -42 -28 1.86517e-14
      vertex -42 -26 25
      vertex -42 -26 1.86517e-14
    endloop
  endfacet
  facet normal -1 -0 0
    outer loop
      vertex -42 -26 25
      vertex -42 -28 1.86517e-14
      vertex -42 -28 25
    endloop
  endfacet
  facet normal 0 -1 0
    outer loop
      vertex -40 -28 22.5
      vertex -42 -28 25
      vertex -42 -28 22.5
    endloop
  endfacet
  facet normal 0 -1 0
    outer loop
      vertex -42 -28 25
      vertex -40 -28 22.5
      vertex -24 -28 25
    endloop
  endfacet
  facet normal 0 -1 0
    outer loop
      vertex -27 -28 2
      vertex -40 -28 22.5
      vertex -40 -28 2
    endloop
  endfacet
  facet normal 0 -1 0
    outer loop
      vertex -40 -28 22.5
      vertex -27 -28 2
      vertex -24 -28 25
    endloop
  endfacet
  facet normal 0 -1 0
    outer loop
      vertex -24 -28 1.06581e-14
      vertex -27 -28 2
      vertex -27 -28 1.19904e-14
    endloop
  endfacet
  facet normal 0 -1 0
    outer loop
      vertex -27 -28 2
      vertex -24 -28 1.06581e-14
      vertex -24 -28 25
    endloop
  endfacet
  facet normal 0 0 0
    outer loop
      vertex -42 -28 25
      vertex -42 -28 1.86517e-14
      vertex -42 -28 2
    endloop
  endfacet
  facet normal -0 0 0
    outer loop
      vertex -42 -28 22.5
      vertex -42 -28 25
      vertex -42 -28 2
    endloop
  endfacet
  facet normal 0 1 0
    outer loop
      vertex -27 -28 1.19904e-14
      vertex -42 -28 1.15463e-14
      vertex -42 -28 1.86517e-14
    endloop
  endfacet
  facet normal -0 1 0
    outer loop
      vertex -42 -28 1.15463e-14
      vertex -27 -28 1.19904e-14
      vertex -27 -28 4.88498e-15
    endloop
  endfacet
  facet normal 0.447214 -0.894427 0
    outer loop
      vertex -24 -28 1.06581e-14
      vertex -14 -23 25
      vertex -24 -28 25
    endloop
  endfacet
  facet normal 0.447214 -0.894427 0
    outer loop
      vertex -14 -23 25
      vertex -24 -28 1.06581e-14
      vertex -14 -23 6.21725e-15
    endloop
  endfacet
  facet normal 0 -1 0
    outer loop
      vertex 16 -23 15
      vertex 14 -23 25
      vertex -14 -23 25
    endloop
  endfacet
  facet normal 0 -1 0
    outer loop
      vertex 14 -23 25
      vertex 16 -23 15
      vertex 16 -23 25
    endloop
  endfacet
  facet normal 0 -1 0
    outer loop
      vertex 8 -23 -3.55271e-15
      vertex -14 -23 25
      vertex -14 -23 6.21725e-15
    endloop
  endfacet
  facet normal 0 -1 0
    outer loop
      vertex -14 -23 25
      vertex 8 -23 -3.55271e-15
      vertex 16 -23 15
    endloop
  endfacet
  facet normal 0 1 0
    outer loop
      vertex 8 -21 -3.55271e-15
      vertex 14 -21 15
      vertex 16 -21 15
    endloop
  endfacet
  facet normal 0 1 0
    outer loop
      vertex 14 -21 15
      vertex 8 -21 -3.55271e-15
      vertex -15 -21 6.66134e-15
    endloop
  endfacet
  facet normal 0 1 0
    outer loop
      vertex 14 -21 25
      vertex 5 -21 23
      vertex 5 -21 25
    endloop
  endfacet
  facet normal 0 1 -0
    outer loop
      vertex 14 -21 15
      vertex 5 -21 23
      vertex 14 -21 25
    endloop
  endfacet
  facet normal 0 1 0
    outer loop
      vertex -15 -21 6.66134e-15
      vertex 5 -21 23
      vertex 14 -21 15
    endloop
  endfacet
  facet normal 0 1 0
    outer loop
      vertex 5 -21 23
      vertex -15 -21 6.66134e-15
      vertex -15 -21 23
    endloop
  endfacet
  facet normal -0.447214 0.894427 0
    outer loop
      vertex -15 -21 23
      vertex -25 -26 1.11022e-14
      vertex -25 -26 23
    endloop
  endfacet
  facet normal -0.447214 0.894427 0
    outer loop
      vertex -25 -26 1.11022e-14
      vertex -15 -21 23
      vertex -15 -21 6.66134e-15
    endloop
  endfacet
  facet normal 0.882353 0 -0.470588
    outer loop
      vertex 16 -23 15
      vertex 8 -21 -3.55271e-15
      vertex 16 -21 15
    endloop
  endfacet
  facet normal 0.882353 0 -0.470588
    outer loop
      vertex 8 -21 -3.55271e-15
      vertex 16 -23 15
      vertex 8 -23 -3.55271e-15
    endloop
  endfacet
  facet normal 0.882353 0 -0.470588
    outer loop
      vertex 16 21 15
      vertex 8 23 -3.55271e-15
      vertex 16 23 15
    endloop
  endfacet
  facet normal 0.882353 0 -0.470588
    outer loop
      vertex 8 23 -3.55271e-15
      vertex 16 21 15
      vertex 8 21 -3.55271e-15
    endloop
  endfacet
  facet normal -0 0 1
    outer loop
      vertex -35 26 40
      vertex -33 25.9417 40
      vertex -33 26 40
    endloop
  endfacet
  facet normal 0 0 1
    outer loop
      vertex -33 25.9417 40
      vertex -35 26 40
      vertex -35 25.9417 40
    endloop
  endfacet
  facet normal -0 0.120536 0.992709
    outer loop
      vertex -35 19.9145 47.7675
      vertex -33 18 48
      vertex -33 19.9145 47.7675
    endloop
  endfacet
  facet normal 0 0.120536 0.992709
    outer loop
      vertex -33 18 48
      vertex -35 19.9145 47.7675
      vertex -35 18 48
    endloop
  endfacet
  facet normal 0 1 -0
    outer loop
      vertex -33 25.9417 40
      vertex -35 25.9417 40.9643
      vertex -33 25.9417 40.9643
    endloop
  endfacet
  facet normal 0 1 0
    outer loop
      vertex -35 25.9417 40.9643
      vertex -33 25.9417 40
      vertex -35 25.9417 40
    endloop
  endfacet
  facet normal 0 0.748515 0.663118
    outer loop
      vertex -33 23.305 45.9881
      vertex -35 23.45 45.8244
      vertex -35 23.305 45.9881
    endloop
  endfacet
  facet normal -5.84469e-07 0.748511 0.663122
    outer loop
      vertex -33 23.305 45.9881
      vertex -35 23.5416 45.721
      vertex -35 23.45 45.8244
    endloop
  endfacet
  facet normal -6.25753e-07 0.748511 0.663122
    outer loop
      vertex -33 24.5839 44.5445
      vertex -35 23.5416 45.721
      vertex -33 23.305 45.9881
    endloop
  endfacet
  facet normal 0 0.748511 0.663123
    outer loop
      vertex -35 23.5416 45.721
      vertex -33 24.5839 44.5445
      vertex -35 24.5839 44.5445
    endloop
  endfacet
  facet normal -0 0.568065 0.822984
    outer loop
      vertex -35 23.305 45.9881
      vertex -33 21.7178 47.0836
      vertex -33 23.305 45.9881
    endloop
  endfacet
  facet normal 0 0.568065 0.822984
    outer loop
      vertex -33 21.7178 47.0836
      vertex -35 23.305 45.9881
      vertex -35 21.7178 47.0836
    endloop
  endfacet
  facet normal -0 0.354605 0.935016
    outer loop
      vertex -35 21.7178 47.0836
      vertex -33 19.9145 47.7675
      vertex -33 21.7178 47.0836
    endloop
  endfacet
  facet normal 0 0.354605 0.935016
    outer loop
      vertex -33 19.9145 47.7675
      vertex -35 21.7178 47.0836
      vertex -35 19.9145 47.7675
    endloop
  endfacet
  facet normal 0 0.970942 0.239316
    outer loop
      vertex -33 25.9417 40.9643
      vertex -35 25.4801 42.8368
      vertex -33 25.4801 42.8368
    endloop
  endfacet
  facet normal 0 0.970942 0.239316
    outer loop
      vertex -35 25.4801 42.8368
      vertex -33 25.9417 40.9643
      vertex -35 25.9417 40.9643
    endloop
  endfacet
  facet normal 0 0.885456 0.464723
    outer loop
      vertex -33 25.4801 42.8368
      vertex -35 24.5839 44.5445
      vertex -33 24.5839 44.5445
    endloop
  endfacet
  facet normal 0 0.885456 0.464723
    outer loop
      vertex -35 24.5839 44.5445
      vertex -33 25.4801 42.8368
      vertex -35 25.4801 42.8368
    endloop
  endfacet
  facet normal 0 -1 0
    outer loop
      vertex -35 -18 47.9417
      vertex -33 -18 48
      vertex -35 -18 48
    endloop
  endfacet
  facet normal 0 -1 -0
    outer loop
      vertex -33 -18 48
      vertex -35 -18 47.9417
      vertex -33 -18 47.9417
    endloop
  endfacet
  facet normal 0 -0.992709 0.120537
    outer loop
      vertex -35 -26 40
      vertex -33 -25.7675 41.9145
      vertex -35 -25.7675 41.9145
    endloop
  endfacet
  facet normal 0 -0.992709 0.120537
    outer loop
      vertex -33 -25.7675 41.9145
      vertex -35 -26 40
      vertex -33 -26 40
    endloop
  endfacet
  facet normal -0 0 1
    outer loop
      vertex -35 -18 47.9417
      vertex -33 -18.9643 47.9417
      vertex -33 -18 47.9417
    endloop
  endfacet
  facet normal 0 0 1
    outer loop
      vertex -33 -18.9643 47.9417
      vertex -35 -18 47.9417
      vertex -35 -18.9643 47.9417
    endloop
  endfacet
  facet normal 0 -0.663123 0.748511
    outer loop
      vertex -35 -22.5445 46.5839
      vertex -33 -23.9881 45.305
      vertex -33 -22.5445 46.5839
    endloop
  endfacet
  facet normal 0 -0.663123 0.748511
    outer loop
      vertex -33 -23.9881 45.305
      vertex -35 -22.5445 46.5839
      vertex -35 -23.9881 45.305
    endloop
  endfacet
  facet normal 0 -0.822984 0.568065
    outer loop
      vertex -35 -25.0836 43.7178
      vertex -33 -23.9881 45.305
      vertex -35 -23.9881 45.305
    endloop
  endfacet
  facet normal 0 -0.822984 0.568065
    outer loop
      vertex -33 -23.9881 45.305
      vertex -35 -25.0836 43.7178
      vertex -33 -25.0836 43.7178
    endloop
  endfacet
  facet normal 0 -0.935016 0.354605
    outer loop
      vertex -35 -25.7675 41.9145
      vertex -33 -25.0836 43.7178
      vertex -35 -25.0836 43.7178
    endloop
  endfacet
  facet normal 0 -0.935016 0.354605
    outer loop
      vertex -33 -25.0836 43.7178
      vertex -35 -25.7675 41.9145
      vertex -33 -25.7675 41.9145
    endloop
  endfacet
  facet normal 0 -0.239315 0.970942
    outer loop
      vertex -35 -18.9643 47.9417
      vertex -33 -20.8368 47.4801
      vertex -33 -18.9643 47.9417
    endloop
  endfacet
  facet normal 0 -0.239315 0.970942
    outer loop
      vertex -33 -20.8368 47.4801
      vertex -35 -18.9643 47.9417
      vertex -35 -20.8368 47.4801
    endloop
  endfacet
  facet normal 0 -0.464723 0.885456
    outer loop
      vertex -35 -20.8368 47.4801
      vertex -33 -22.5445 46.5839
      vertex -33 -20.8368 47.4801
    endloop
  endfacet
  facet normal 0 -0.464723 0.885456
    outer loop
      vertex -33 -22.5445 46.5839
      vertex -35 -20.8368 47.4801
      vertex -35 -22.5445 46.5839
    endloop
  endfacet
  facet normal 1 0 0
    outer loop
      vertex -33 -20.8368 47.4801
      vertex -33 -18 47.9417
      vertex -33 -18.9643 47.9417
    endloop
  endfacet
  facet normal 1 0 0
    outer loop
      vertex -33 -22.5445 46.5839
      vertex -33 -18 47.9417
      vertex -33 -20.8368 47.4801
    endloop
  endfacet
  facet normal 1 0 0
    outer loop
      vertex -33 -18 47.9417
      vertex -33 -22.5445 46.5839
      vertex -33 -26 40
    endloop
  endfacet
  facet normal 1 0 0
    outer loop
      vertex -33 -26 40
      vertex -33 -22.5445 46.5839
      vertex -33 -23.9881 45.305
    endloop
  endfacet
  facet normal 1 0 0
    outer loop
      vertex -33 -26 40
      vertex -33 -23.9881 45.305
      vertex -33 -25.0836 43.7178
    endloop
  endfacet
  facet normal 1 0 0
    outer loop
      vertex -33 -26 40
      vertex -33 -25.0836 43.7178
      vertex -33 -25.7675 41.9145
    endloop
  endfacet
  facet normal 1 0 0
    outer loop
      vertex -33 -18 47.9417
      vertex -33 -26 40
      vertex -33 -18 25
    endloop
  endfacet
  facet normal 1 0 0
    outer loop
      vertex -33 -18 25
      vertex -33 -26 40
      vertex -33 -26 25
    endloop
  endfacet
  facet normal 1 0 0
    outer loop
      vertex -33 25.9417 40.9643
      vertex -33 25.4801 42.8368
      vertex -33 25.9417 40
    endloop
  endfacet
  facet normal 1 -0 0
    outer loop
      vertex -33 25.9417 40
      vertex -33 26 25
      vertex -33 26 40
    endloop
  endfacet
  facet normal 1 0 0
    outer loop
      vertex -33 24.5839 44.5445
      vertex -33 25.9417 40
      vertex -33 25.4801 42.8368
    endloop
  endfacet
  facet normal 1 0 0
    outer loop
      vertex -33 25.9417 40
      vertex -33 24.5839 44.5445
      vertex -33 18 48
    endloop
  endfacet
  facet normal 1 0 0
    outer loop
      vertex -33 18 48
      vertex -33 24.5839 44.5445
      vertex -33 23.305 45.9881
    endloop
  endfacet
  facet normal 1 0 0
    outer loop
      vertex -33 18 48
      vertex -33 23.305 45.9881
      vertex -33 21.7178 47.0836
    endloop
  endfacet
  facet normal 1 0 0
    outer loop
      vertex -33 18 48
      vertex -33 21.7178 47.0836
      vertex -33 19.9145 47.7675
    endloop
  endfacet
  facet normal 1 0 0
    outer loop
      vertex -33 25.9417 40
      vertex -33 18 48
      vertex -33 18 25
    endloop
  endfacet
  facet normal 1 0 0
    outer loop
      vertex -33 25.9417 40
      vertex -33 18 25
      vertex -33 26 25
    endloop
  endfacet
  facet normal 1 0 0
    outer loop
      vertex -33 -18 25
      vertex -33 18 25
      vertex -33 18 48
    endloop
  endfacet
  facet normal 1 0 0
    outer loop
      vertex -33 18 25
      vertex -33 12.5 18.5
      vertex -33 18 23
    endloop
  endfacet
  facet normal 1 0 0
    outer loop
      vertex -33 18 23
      vertex -33 14.0637 17.747
      vertex -33 14.4499 16.055
    endloop
  endfacet
  facet normal 1 0 0
    outer loop
      vertex -33 18 23
      vertex -33 12.5 18.5
      vertex -33 14.0637 17.747
    endloop
  endfacet
  facet normal 1 0 0
    outer loop
      vertex -33 18 25
      vertex -33 -18 25
      vertex -33 12.5 18.5
    endloop
  endfacet
  facet normal 1 0 0
    outer loop
      vertex -33 12.5 18.5
      vertex -33 -18 25
      vertex -33 -12.5 18.5
    endloop
  endfacet
  facet normal 1 0 0
    outer loop
      vertex -33 -18 47.9417
      vertex -33 18 48
      vertex -33 -18 48
    endloop
  endfacet
  facet normal 1 0 0
    outer loop
      vertex -33 -18 25
      vertex -33 18 48
      vertex -33 -18 47.9417
    endloop
  endfacet
  facet normal 1 -0 0
    outer loop
      vertex -33 -18 23
      vertex -33 -12.5 18.5
      vertex -33 -18 25
    endloop
  endfacet
  facet normal 1 0 0
    outer loop
      vertex -33 -12.5 18.5
      vertex -33 -18 23
      vertex -33 -14.0637 17.747
    endloop
  endfacet
  facet normal 1 0 0
    outer loop
      vertex -33 -14.0637 17.747
      vertex -33 -18 23
      vertex -33 -14.4499 16.055
    endloop
  endfacet
  facet normal 1 -0 0
    outer loop
      vertex -33 -26 23
      vertex -33 -14.4499 16.055
      vertex -33 -18 23
    endloop
  endfacet
  facet normal 1 0 0
    outer loop
      vertex -33 -14.4499 16.055
      vertex -33 -26 23
      vertex -33 -26 1.46549e-14
    endloop
  endfacet
  facet normal 1 0 0
    outer loop
      vertex -33 -14.4499 16.055
      vertex -33 -26 1.46549e-14
      vertex -33 -14.4499 7.32747e-15
    endloop
  endfacet
  facet normal 1 0 0
    outer loop
      vertex -33 -14.4499 7.32747e-15
      vertex -33 -26 1.46549e-14
      vertex -33 -26 7.32747e-15
    endloop
  endfacet
  facet normal 1 -0 0
    outer loop
      vertex -33 14.4499 16.055
      vertex -33 26 1.46549e-14
      vertex -33 26 23
    endloop
  endfacet
  facet normal 1 0 0
    outer loop
      vertex -33 14.4499 16.055
      vertex -33 26 23
      vertex -33 18 23
    endloop
  endfacet
  facet normal 1 0 0
    outer loop
      vertex -33 14.4499 7.32747e-15
      vertex -33 26 1.46549e-14
      vertex -33 14.4499 16.055
    endloop
  endfacet
  facet normal 1 0 0
    outer loop
      vertex -33 26 1.46549e-14
      vertex -33 14.4499 7.32747e-15
      vertex -33 26 7.32747e-15
    endloop
  endfacet
  facet normal -0 0 1
    outer loop
      vertex -35 18 48
      vertex -33 -18 48
      vertex -33 18 48
    endloop
  endfacet
  facet normal 0 0 1
    outer loop
      vertex -33 -18 48
      vertex -35 18 48
      vertex -35 -18 48
    endloop
  endfacet
  facet normal -2.22045e-16 0 -1
    outer loop
      vertex -35 -26 7.77156e-15
      vertex -33 -14.4499 7.32747e-15
      vertex -33 -26 7.32747e-15
    endloop
  endfacet
  facet normal -2.22045e-16 0 -1
    outer loop
      vertex -33 -14.4499 7.32747e-15
      vertex -35 -26 7.77156e-15
      vertex -35 -14.4499 7.77156e-15
    endloop
  endfacet
  facet normal -2.22045e-16 0 -1
    outer loop
      vertex -35 14.4499 7.77156e-15
      vertex -33 26 7.32747e-15
      vertex -33 14.4499 7.32747e-15
    endloop
  endfacet
  facet normal -2.22045e-16 0 -1
    outer loop
      vertex -33 26 7.32747e-15
      vertex -35 14.4499 7.77156e-15
      vertex -35 26 7.77156e-15
    endloop
  endfacet
  facet normal -1 0 0
    outer loop
      vertex -35 -22.695 8.69986
      vertex -35 -14.4499 16.055
      vertex -35 -21.003 8.31366
    endloop
  endfacet
  facet normal -1 0 0
    outer loop
      vertex -35 -14.4499 16.055
      vertex -35 -21.003 42.6863
      vertex -35 -20.25 44.25
    endloop
  endfacet
  facet normal -1 -0 0
    outer loop
      vertex -35 -14.4499 16.055
      vertex -35 -22.695 8.69986
      vertex -35 -26 25
    endloop
  endfacet
  facet normal -1 0 0
    outer loop
      vertex -35 -14.4499 16.055
      vertex -35 -26 25
      vertex -35 -21.003 42.6863
    endloop
  endfacet
  facet normal -1 0 0
    outer loop
      vertex -35 -26 25
      vertex -35 -22.695 8.69986
      vertex -35 -24.0519 7.61777
    endloop
  endfacet
  facet normal -1 0 0
    outer loop
      vertex -35 -26 40
      vertex -35 -21.003 42.6863
      vertex -35 -26 25
    endloop
  endfacet
  facet normal -1 0 0
    outer loop
      vertex -35 -20.25 6.75
      vertex -35 -14.4499 16.055
      vertex -35 -14.4499 7.77156e-15
    endloop
  endfacet
  facet normal -1 0 0
    outer loop
      vertex -35 -14.4499 16.055
      vertex -35 -20.25 44.25
      vertex -35 -18 47.9417
    endloop
  endfacet
  facet normal -1 0 0
    outer loop
      vertex -35 -21.003 8.31366
      vertex -35 -14.4499 16.055
      vertex -35 -20.25 6.75
    endloop
  endfacet
  facet normal -1 0 0
    outer loop
      vertex -35 -14.4499 7.77156e-15
      vertex -35 -21.003 5.18634
      vertex -35 -20.25 6.75
    endloop
  endfacet
  facet normal -1 0 0
    outer loop
      vertex -35 -26 7.77156e-15
      vertex -35 -21.003 5.18634
      vertex -35 -14.4499 7.77156e-15
    endloop
  endfacet
  facet normal -1 0 0
    outer loop
      vertex -35 -26 1.55431e-14
      vertex -35 -24.0519 7.61777
      vertex -35 -24.0519 5.88223
    endloop
  endfacet
  facet normal -1 0 0
    outer loop
      vertex -35 -21.003 42.6863
      vertex -35 -26 40
      vertex -35 -22.695 42.3001
    endloop
  endfacet
  facet normal -1 0 -0
    outer loop
      vertex -35 -25.7675 41.9145
      vertex -35 -22.695 42.3001
      vertex -35 -26 40
    endloop
  endfacet
  facet normal -1 -0 0
    outer loop
      vertex -35 -22.695 42.3001
      vertex -35 -25.7675 41.9145
      vertex -35 -24.0519 43.3822
    endloop
  endfacet
  facet normal -1 0 0
    outer loop
      vertex -35 -21.003 5.18634
      vertex -35 -26 7.77156e-15
      vertex -35 -22.695 4.80014
    endloop
  endfacet
  facet normal -1 0 0
    outer loop
      vertex -35 -26 1.55431e-14
      vertex -35 -22.695 4.80014
      vertex -35 -26 7.77156e-15
    endloop
  endfacet
  facet normal -1 -0 0
    outer loop
      vertex -35 -22.695 4.80014
      vertex -35 -26 1.55431e-14
      vertex -35 -24.0519 5.88223
    endloop
  endfacet
  facet normal -1 -0 0
    outer loop
      vertex -35 -24.0519 7.61777
      vertex -35 -26 1.55431e-14
      vertex -35 -26 25
    endloop
  endfacet
  facet normal -1 0 -0
    outer loop
      vertex -35 -25.0836 43.7178
      vertex -35 -24.0519 43.3822
      vertex -35 -25.7675 41.9145
    endloop
  endfacet
  facet normal -1 0 0
    outer loop
      vertex -35 -24.0519 43.3822
      vertex -35 -25.0836 43.7178
      vertex -35 -24.0519 45.1178
    endloop
  endfacet
  facet normal -1 0 0
    outer loop
      vertex -35 21.805 8.69986
      vertex -35 26 25
      vertex -35 23.497 8.31366
    endloop
  endfacet
  facet normal -1 0 0
    outer loop
      vertex -35 26 25
      vertex -35 23.497 42.6863
      vertex -35 24.25 44.25
    endloop
  endfacet
  facet normal -1 0 0
    outer loop
      vertex -35 14.4499 16.055
      vertex -35 26 25
      vertex -35 21.805 8.69986
    endloop
  endfacet
  facet normal -1 0 0
    outer loop
      vertex -35 12.5 18.5
      vertex -35 26 25
      vertex -35 14.0637 17.747
    endloop
  endfacet
  facet normal -1 0 0
    outer loop
      vertex -35 14.4499 16.055
      vertex -35 21.805 8.69986
      vertex -35 20.4481 7.61777
    endloop
  endfacet
  facet normal -1 0 0
    outer loop
      vertex -35 26 25
      vertex -35 21.805 42.3001
      vertex -35 23.497 42.6863
    endloop
  endfacet
  facet normal -1 0 0
    outer loop
      vertex -35 21.805 4.80014
      vertex -35 26 1.55431e-14
      vertex -35 26 7.77156e-15
    endloop
  endfacet
  facet normal -1 0 0
    outer loop
      vertex -35 26 1.55431e-14
      vertex -35 24.25 6.75
      vertex -35 26 25
    endloop
  endfacet
  facet normal -1 0 0
    outer loop
      vertex -35 23.497 8.31366
      vertex -35 26 25
      vertex -35 24.25 6.75
    endloop
  endfacet
  facet normal -1 0 0
    outer loop
      vertex -35 24.25 44.25
      vertex -35 25.9417 40.9643
      vertex -35 25.9417 40
    endloop
  endfacet
  facet normal -1 0 0
    outer loop
      vertex -35 26 25
      vertex -35 25.9417 40
      vertex -35 26 40
    endloop
  endfacet
  facet normal -1 0 0
    outer loop
      vertex -35 26 25
      vertex -35 24.25 44.25
      vertex -35 25.9417 40
    endloop
  endfacet
  facet normal -1 0 0
    outer loop
      vertex -35 25.9417 40.9643
      vertex -35 24.25 44.25
      vertex -35 25.4801 42.8368
    endloop
  endfacet
  facet normal -1 0 0
    outer loop
      vertex -35 26 1.55431e-14
      vertex -35 23.497 5.18634
      vertex -35 24.25 6.75
    endloop
  endfacet
  facet normal -1 0 0
    outer loop
      vertex -35 26 1.55431e-14
      vertex -35 21.805 4.80014
      vertex -35 23.497 5.18634
    endloop
  endfacet
  facet normal -1 0 0
    outer loop
      vertex -35 14.4499 7.77156e-15
      vertex -35 21.805 4.80014
      vertex -35 26 7.77156e-15
    endloop
  endfacet
  facet normal -1 0 0
    outer loop
      vertex -35 14.4499 7.77156e-15
      vertex -35 20.4481 7.61777
      vertex -35 20.4481 5.88223
    endloop
  endfacet
  facet normal -1 -0 0
    outer loop
      vertex -35 26 25
      vertex -35 12.5 18.5
      vertex -35 21.805 42.3001
    endloop
  endfacet
  facet normal -1 -0 0
    outer loop
      vertex -35 21.805 42.3001
      vertex -35 12.5 18.5
      vertex -35 20.4481 43.3822
    endloop
  endfacet
  facet normal -1 0 -0
    outer loop
      vertex -35 18 48
      vertex -35 20.4481 43.3822
      vertex -35 12.5 18.5
    endloop
  endfacet
  facet normal -1 -0 0
    outer loop
      vertex -35 21.805 4.80014
      vertex -35 14.4499 7.77156e-15
      vertex -35 20.4481 5.88223
    endloop
  endfacet
  facet normal -1 -0 0
    outer loop
      vertex -35 20.4481 7.61777
      vertex -35 14.4499 7.77156e-15
      vertex -35 14.4499 16.055
    endloop
  endfacet
  facet normal -1 0 0
    outer loop
      vertex -35 26 25
      vertex -35 14.4499 16.055
      vertex -35 14.0637 17.747
    endloop
  endfacet
  facet normal -1 0 0
    outer loop
      vertex -35 20.4481 43.3822
      vertex -35 18 48
      vertex -35 20.4481 45.1178
    endloop
  endfacet
  facet normal -1 0 0
    outer loop
      vertex -35 20.4481 45.1178
      vertex -35 18 48
      vertex -35 19.9145 47.7675
    endloop
  endfacet
  facet normal -1 0 0
    outer loop
      vertex -35 -12.5 18.5
      vertex -35 18 48
      vertex -35 12.5 18.5
    endloop
  endfacet
  facet normal -1 0 0
    outer loop
      vertex -35 -18 47.9417
      vertex -35 -12.5 18.5
      vertex -35 -14.0637 17.747
    endloop
  endfacet
  facet normal -1 0 0
    outer loop
      vertex -35 -18 47.9417
      vertex -35 -14.0637 17.747
      vertex -35 -14.4499 16.055
    endloop
  endfacet
  facet normal -1 0 0
    outer loop
      vertex -35 -12.5 18.5
      vertex -35 -18 47.9417
      vertex -35 18 48
    endloop
  endfacet
  facet normal -1 -0 0
    outer loop
      vertex -35 18 48
      vertex -35 -18 47.9417
      vertex -35 -18 48
    endloop
  endfacet
  facet normal -1 0 0
    outer loop
      vertex -35 25.4801 42.8368
      vertex -35 24.25 44.25
      vertex -35 24.5839 44.5445
    endloop
  endfacet
  facet normal -1 -0 0
    outer loop
      vertex -35 24.5839 44.5445
      vertex -35 24.25 44.25
      vertex -35 23.5416 45.721
    endloop
  endfacet
  facet normal -1 0 0
    outer loop
      vertex -35 21.805 46.1999
      vertex -35 23.305 45.9881
      vertex -35 23.45 45.8244
    endloop
  endfacet
  facet normal -1 0 0
    outer loop
      vertex -35 21.805 46.1999
      vertex -35 21.7178 47.0836
      vertex -35 23.305 45.9881
    endloop
  endfacet
  facet normal -1 0 0
    outer loop
      vertex -35 19.9145 47.7675
      vertex -35 21.805 46.1999
      vertex -35 20.4481 45.1178
    endloop
  endfacet
  facet normal -1 0 0
    outer loop
      vertex -35 21.805 46.1999
      vertex -35 19.9145 47.7675
      vertex -35 21.7178 47.0836
    endloop
  endfacet
  facet normal -1 -0 0
    outer loop
      vertex -35 -18 47.9417
      vertex -35 -20.25 44.25
      vertex -35 -18.9643 47.9417
    endloop
  endfacet
  facet normal -1 0 0
    outer loop
      vertex -35 -21.003 45.8137
      vertex -35 -18.9643 47.9417
      vertex -35 -20.25 44.25
    endloop
  endfacet
  facet normal -1 0 0
    outer loop
      vertex -35 -18.9643 47.9417
      vertex -35 -21.003 45.8137
      vertex -35 -20.8368 47.4801
    endloop
  endfacet
  facet normal -1 0 0
    outer loop
      vertex -35 -21.003 45.8137
      vertex -35 -22.5445 46.5839
      vertex -35 -20.8368 47.4801
    endloop
  endfacet
  facet normal -1 0 0
    outer loop
      vertex -35 -22.695 46.1999
      vertex -35 -22.5445 46.5839
      vertex -35 -21.003 45.8137
    endloop
  endfacet
  facet normal -1 -0 0
    outer loop
      vertex -35 -22.695 46.1999
      vertex -35 -23.9881 45.305
      vertex -35 -22.5445 46.5839
    endloop
  endfacet
  facet normal -1 0 0
    outer loop
      vertex -35 -24.0519 45.1178
      vertex -35 -23.9881 45.305
      vertex -35 -22.695 46.1999
    endloop
  endfacet
  facet normal -1 0 0
    outer loop
      vertex -35 -23.9881 45.305
      vertex -35 -24.0519 45.1178
      vertex -35 -25.0836 43.7178
    endloop
  endfacet
  facet normal 1 0 0
    outer loop
      vertex -35 23.497 45.8137
      vertex -35 23.45 45.8244
      vertex -35 23.5416 45.721
    endloop
  endfacet
  facet normal 0 0.900969 -0.433884
    outer loop
      vertex -35 -21.003 42.6863
      vertex -37 -20.25 44.25
      vertex -35 -20.25 44.25
    endloop
  endfacet
  facet normal 0 0.900969 -0.433884
    outer loop
      vertex -37 -20.25 44.25
      vertex -35 -21.003 42.6863
      vertex -37 -21.003 42.6863
    endloop
  endfacet
  facet normal 0 -1 0
    outer loop
      vertex -37 -24.0519 43.3822
      vertex -35 -24.0519 45.1178
      vertex -37 -24.0519 45.1178
    endloop
  endfacet
  facet normal 0 -1 -0
    outer loop
      vertex -35 -24.0519 45.1178
      vertex -37 -24.0519 43.3822
      vertex -35 -24.0519 43.3822
    endloop
  endfacet
  facet normal 0 0.222521 -0.974928
    outer loop
      vertex -37 -22.695 42.3001
      vertex -35 -21.003 42.6863
      vertex -35 -22.695 42.3001
    endloop
  endfacet
  facet normal 0 0.222521 -0.974928
    outer loop
      vertex -35 -21.003 42.6863
      vertex -37 -22.695 42.3001
      vertex -37 -21.003 42.6863
    endloop
  endfacet
  facet normal 0 -0.62349 0.781831
    outer loop
      vertex -37 -22.695 46.1999
      vertex -35 -24.0519 45.1178
      vertex -35 -22.695 46.1999
    endloop
  endfacet
  facet normal 0 -0.62349 0.781831
    outer loop
      vertex -35 -24.0519 45.1178
      vertex -37 -22.695 46.1999
      vertex -37 -24.0519 45.1178
    endloop
  endfacet
  facet normal -1 0 0
    outer loop
      vertex -37 -21.003 42.6863
      vertex -37 -20.75 44.25
      vertex -37 -20.25 44.25
    endloop
  endfacet
  facet normal -1 0 0
    outer loop
      vertex -37 -21.003 42.6863
      vertex -37 -21.7865 42.8234
      vertex -37 -20.75 44.25
    endloop
  endfacet
  facet normal -1 0 0
    outer loop
      vertex -37 -22.695 42.3001
      vertex -37 -21.7865 42.8234
      vertex -37 -21.003 42.6863
    endloop
  endfacet
  facet normal -1 0 0
    outer loop
      vertex -37 -22.695 42.3001
      vertex -37 -23.4635 43.3683
      vertex -37 -21.7865 42.8234
    endloop
  endfacet
  facet normal -1 0 0
    outer loop
      vertex -37 -23.4635 43.3683
      vertex -37 -24.0519 43.3822
      vertex -37 -23.4635 45.1317
    endloop
  endfacet
  facet normal -1 0 0
    outer loop
      vertex -37 -24.0519 43.3822
      vertex -37 -23.4635 43.3683
      vertex -37 -22.695 42.3001
    endloop
  endfacet
  facet normal -1 0 0
    outer loop
      vertex -37 -20.75 44.25
      vertex -37 -21.003 45.8137
      vertex -37 -20.25 44.25
    endloop
  endfacet
  facet normal -1 0 0
    outer loop
      vertex -37 -21.7865 45.6766
      vertex -37 -21.003 45.8137
      vertex -37 -20.75 44.25
    endloop
  endfacet
  facet normal -1 0 0
    outer loop
      vertex -37 -21.7865 45.6766
      vertex -37 -22.695 46.1999
      vertex -37 -21.003 45.8137
    endloop
  endfacet
  facet normal -1 0 0
    outer loop
      vertex -37 -23.4635 45.1317
      vertex -37 -22.695 46.1999
      vertex -37 -21.7865 45.6766
    endloop
  endfacet
  facet normal -1 -0 0
    outer loop
      vertex -37 -23.4635 45.1317
      vertex -37 -24.0519 45.1178
      vertex -37 -22.695 46.1999
    endloop
  endfacet
  facet normal -1 0 0
    outer loop
      vertex -37 -24.0519 45.1178
      vertex -37 -23.4635 45.1317
      vertex -37 -24.0519 43.3822
    endloop
  endfacet
  facet normal 0 -0.62349 -0.781831
    outer loop
      vertex -37 -24.0519 43.3822
      vertex -35 -22.695 42.3001
      vertex -35 -24.0519 43.3822
    endloop
  endfacet
  facet normal -0 -0.62349 -0.781831
    outer loop
      vertex -35 -22.695 42.3001
      vertex -37 -24.0519 43.3822
      vertex -37 -22.695 42.3001
    endloop
  endfacet
  facet normal 0 0.900969 0.433884
    outer loop
      vertex -35 -20.25 44.25
      vertex -37 -21.003 45.8137
      vertex -35 -21.003 45.8137
    endloop
  endfacet
  facet normal 0 0.900969 0.433884
    outer loop
      vertex -37 -21.003 45.8137
      vertex -35 -20.25 44.25
      vertex -37 -20.25 44.25
    endloop
  endfacet
  facet normal -0 0.222521 0.974928
    outer loop
      vertex -37 -21.003 45.8137
      vertex -35 -22.695 46.1999
      vertex -35 -21.003 45.8137
    endloop
  endfacet
  facet normal 0 0.222521 0.974928
    outer loop
      vertex -35 -22.695 46.1999
      vertex -37 -21.003 45.8137
      vertex -37 -22.695 46.1999
    endloop
  endfacet
  facet normal 0 0.809016 -0.587787
    outer loop
      vertex -37 -21.7865 42.8234
      vertex -38 -20.75 44.25
      vertex -37 -20.75 44.25
    endloop
  endfacet
  facet normal 0 0.809016 -0.587787
    outer loop
      vertex -38 -20.75 44.25
      vertex -37 -21.7865 42.8234
      vertex -38 -21.7865 42.8234
    endloop
  endfacet
  facet normal 0 -1 0
    outer loop
      vertex -38 -23.4635 43.3683
      vertex -37 -23.4635 45.1317
      vertex -38 -23.4635 45.1317
    endloop
  endfacet
  facet normal 0 -1 -0
    outer loop
      vertex -37 -23.4635 45.1317
      vertex -38 -23.4635 43.3683
      vertex -37 -23.4635 43.3683
    endloop
  endfacet
  facet normal 0 -0.309017 -0.951056
    outer loop
      vertex -38 -23.4635 43.3683
      vertex -37 -21.7865 42.8234
      vertex -37 -23.4635 43.3683
    endloop
  endfacet
  facet normal -0 -0.309017 -0.951056
    outer loop
      vertex -37 -21.7865 42.8234
      vertex -38 -23.4635 43.3683
      vertex -38 -21.7865 42.8234
    endloop
  endfacet
  facet normal -1 0 0
    outer loop
      vertex -38 -21.7865 42.8234
      vertex -38 -21.7865 45.6766
      vertex -38 -20.75 44.25
    endloop
  endfacet
  facet normal -1 0 0
    outer loop
      vertex -38 -23.4635 43.3683
      vertex -38 -21.7865 45.6766
      vertex -38 -21.7865 42.8234
    endloop
  endfacet
  facet normal -1 0 0
    outer loop
      vertex -38 -21.7865 45.6766
      vertex -38 -23.4635 43.3683
      vertex -38 -23.4635 45.1317
    endloop
  endfacet
  facet normal 0 0.809016 0.587787
    outer loop
      vertex -37 -20.75 44.25
      vertex -38 -21.7865 45.6766
      vertex -37 -21.7865 45.6766
    endloop
  endfacet
  facet normal 0 0.809016 0.587787
    outer loop
      vertex -38 -21.7865 45.6766
      vertex -37 -20.75 44.25
      vertex -38 -20.75 44.25
    endloop
  endfacet
  facet normal 0 -0.309017 0.951056
    outer loop
      vertex -38 -21.7865 45.6766
      vertex -37 -23.4635 45.1317
      vertex -37 -21.7865 45.6766
    endloop
  endfacet
  facet normal 0 -0.309017 0.951056
    outer loop
      vertex -37 -23.4635 45.1317
      vertex -38 -21.7865 45.6766
      vertex -38 -23.4635 45.1317
    endloop
  endfacet
  facet normal 0 0.900969 -0.433884
    outer loop
      vertex -35 -21.003 5.18634
      vertex -37 -20.25 6.75
      vertex -35 -20.25 6.75
    endloop
  endfacet
  facet normal 0 0.900969 -0.433884
    outer loop
      vertex -37 -20.25 6.75
      vertex -35 -21.003 5.18634
      vertex -37 -21.003 5.18634
    endloop
  endfacet
  facet normal 0 -1 0
    outer loop
      vertex -37 -24.0519 5.88223
      vertex -35 -24.0519 7.61777
      vertex -37 -24.0519 7.61777
    endloop
  endfacet
  facet normal 0 -1 -0
    outer loop
      vertex -35 -24.0519 7.61777
      vertex -37 -24.0519 5.88223
      vertex -35 -24.0519 5.88223
    endloop
  endfacet
  facet normal 0 0.222521 -0.974928
    outer loop
      vertex -37 -22.695 4.80014
      vertex -35 -21.003 5.18634
      vertex -35 -22.695 4.80014
    endloop
  endfacet
  facet normal 0 0.222521 -0.974928
    outer loop
      vertex -35 -21.003 5.18634
      vertex -37 -22.695 4.80014
      vertex -37 -21.003 5.18634
    endloop
  endfacet
  facet normal 0 -0.62349 0.781831
    outer loop
      vertex -37 -22.695 8.69986
      vertex -35 -24.0519 7.61777
      vertex -35 -22.695 8.69986
    endloop
  endfacet
  facet normal 0 -0.62349 0.781831
    outer loop
      vertex -35 -24.0519 7.61777
      vertex -37 -22.695 8.69986
      vertex -37 -24.0519 7.61777
    endloop
  endfacet
  facet normal -1 0 0
    outer loop
      vertex -37 -21.003 5.18634
      vertex -37 -20.75 6.75
      vertex -37 -20.25 6.75
    endloop
  endfacet
  facet normal -1 0 0
    outer loop
      vertex -37 -21.003 5.18634
      vertex -37 -21.7865 5.32342
      vertex -37 -20.75 6.75
    endloop
  endfacet
  facet normal -1 0 0
    outer loop
      vertex -37 -22.695 4.80014
      vertex -37 -21.7865 5.32342
      vertex -37 -21.003 5.18634
    endloop
  endfacet
  facet normal -1 0 0
    outer loop
      vertex -37 -22.695 4.80014
      vertex -37 -23.4635 5.86832
      vertex -37 -21.7865 5.32342
    endloop
  endfacet
  facet normal -1 0 0
    outer loop
      vertex -37 -23.4635 5.86832
      vertex -37 -24.0519 5.88223
      vertex -37 -23.4635 7.63168
    endloop
  endfacet
  facet normal -1 0 0
    outer loop
      vertex -37 -24.0519 5.88223
      vertex -37 -23.4635 5.86832
      vertex -37 -22.695 4.80014
    endloop
  endfacet
  facet normal -1 0 0
    outer loop
      vertex -37 -20.75 6.75
      vertex -37 -21.003 8.31366
      vertex -37 -20.25 6.75
    endloop
  endfacet
  facet normal -1 0 0
    outer loop
      vertex -37 -21.7865 8.17658
      vertex -37 -21.003 8.31366
      vertex -37 -20.75 6.75
    endloop
  endfacet
  facet normal -1 0 0
    outer loop
      vertex -37 -21.7865 8.17658
      vertex -37 -22.695 8.69986
      vertex -37 -21.003 8.31366
    endloop
  endfacet
  facet normal -1 0 0
    outer loop
      vertex -37 -23.4635 7.63168
      vertex -37 -22.695 8.69986
      vertex -37 -21.7865 8.17658
    endloop
  endfacet
  facet normal -1 -0 0
    outer loop
      vertex -37 -23.4635 7.63168
      vertex -37 -24.0519 7.61777
      vertex -37 -22.695 8.69986
    endloop
  endfacet
  facet normal -1 0 0
    outer loop
      vertex -37 -24.0519 7.61777
      vertex -37 -23.4635 7.63168
      vertex -37 -24.0519 5.88223
    endloop
  endfacet
  facet normal 0 -0.62349 -0.781831
    outer loop
      vertex -37 -24.0519 5.88223
      vertex -35 -22.695 4.80014
      vertex -35 -24.0519 5.88223
    endloop
  endfacet
  facet normal -0 -0.62349 -0.781831
    outer loop
      vertex -35 -22.695 4.80014
      vertex -37 -24.0519 5.88223
      vertex -37 -22.695 4.80014
    endloop
  endfacet
  facet normal 0 0.900969 0.433884
    outer loop
      vertex -35 -20.25 6.75
      vertex -37 -21.003 8.31366
      vertex -35 -21.003 8.31366
    endloop
  endfacet
  facet normal 0 0.900969 0.433884
    outer loop
      vertex -37 -21.003 8.31366
      vertex -35 -20.25 6.75
      vertex -37 -20.25 6.75
    endloop
  endfacet
  facet normal -0 0.222521 0.974928
    outer loop
      vertex -37 -21.003 8.31366
      vertex -35 -22.695 8.69986
      vertex -35 -21.003 8.31366
    endloop
  endfacet
  facet normal 0 0.222521 0.974928
    outer loop
      vertex -35 -22.695 8.69986
      vertex -37 -21.003 8.31366
      vertex -37 -22.695 8.69986
    endloop
  endfacet
  facet normal 0 0.809017 -0.587785
    outer loop
      vertex -37 -21.7865 5.32342
      vertex -38 -20.75 6.75
      vertex -37 -20.75 6.75
    endloop
  endfacet
  facet normal 0 0.809017 -0.587785
    outer loop
      vertex -38 -20.75 6.75
      vertex -37 -21.7865 5.32342
      vertex -38 -21.7865 5.32342
    endloop
  endfacet
  facet normal 0 -1 0
    outer loop
      vertex -38 -23.4635 5.86832
      vertex -37 -23.4635 7.63168
      vertex -38 -23.4635 7.63168
    endloop
  endfacet
  facet normal 0 -1 -0
    outer loop
      vertex -37 -23.4635 7.63168
      vertex -38 -23.4635 5.86832
      vertex -37 -23.4635 5.86832
    endloop
  endfacet
  facet normal 0 -0.309017 -0.951056
    outer loop
      vertex -38 -23.4635 5.86832
      vertex -37 -21.7865 5.32342
      vertex -37 -23.4635 5.86832
    endloop
  endfacet
  facet normal -0 -0.309017 -0.951056
    outer loop
      vertex -37 -21.7865 5.32342
      vertex -38 -23.4635 5.86832
      vertex -38 -21.7865 5.32342
    endloop
  endfacet
  facet normal -1 0 0
    outer loop
      vertex -38 -21.7865 5.32342
      vertex -38 -21.7865 8.17658
      vertex -38 -20.75 6.75
    endloop
  endfacet
  facet normal -1 0 0
    outer loop
      vertex -38 -23.4635 5.86832
      vertex -38 -21.7865 8.17658
      vertex -38 -21.7865 5.32342
    endloop
  endfacet
  facet normal -1 0 0
    outer loop
      vertex -38 -21.7865 8.17658
      vertex -38 -23.4635 5.86832
      vertex -38 -23.4635 7.63168
    endloop
  endfacet
  facet normal 0 0.809017 0.587785
    outer loop
      vertex -37 -20.75 6.75
      vertex -38 -21.7865 8.17658
      vertex -37 -21.7865 8.17658
    endloop
  endfacet
  facet normal 0 0.809017 0.587785
    outer loop
      vertex -38 -21.7865 8.17658
      vertex -37 -20.75 6.75
      vertex -38 -20.75 6.75
    endloop
  endfacet
  facet normal 0 -0.309017 0.951056
    outer loop
      vertex -38 -21.7865 8.17658
      vertex -37 -23.4635 7.63168
      vertex -37 -21.7865 8.17658
    endloop
  endfacet
  facet normal 0 -0.309017 0.951056
    outer loop
      vertex -37 -23.4635 7.63168
      vertex -38 -21.7865 8.17658
      vertex -38 -23.4635 7.63168
    endloop
  endfacet
  facet normal 0 0.900969 -0.433884
    outer loop
      vertex -35 23.497 42.6863
      vertex -37 24.25 44.25
      vertex -35 24.25 44.25
    endloop
  endfacet
  facet normal 0 0.900969 -0.433884
    outer loop
      vertex -37 24.25 44.25
      vertex -35 23.497 42.6863
      vertex -37 23.497 42.6863
    endloop
  endfacet
  facet normal 0 -1 0
    outer loop
      vertex -37 20.4481 43.3822
      vertex -35 20.4481 45.1178
      vertex -37 20.4481 45.1178
    endloop
  endfacet
  facet normal 0 -1 -0
    outer loop
      vertex -35 20.4481 45.1178
      vertex -37 20.4481 43.3822
      vertex -35 20.4481 43.3822
    endloop
  endfacet
  facet normal 0 0.222521 -0.974928
    outer loop
      vertex -37 21.805 42.3001
      vertex -35 23.497 42.6863
      vertex -35 21.805 42.3001
    endloop
  endfacet
  facet normal 0 0.222521 -0.974928
    outer loop
      vertex -35 23.497 42.6863
      vertex -37 21.805 42.3001
      vertex -37 23.497 42.6863
    endloop
  endfacet
  facet normal 0 -0.62349 0.781831
    outer loop
      vertex -37 21.805 46.1999
      vertex -35 20.4481 45.1178
      vertex -35 21.805 46.1999
    endloop
  endfacet
  facet normal 0 -0.62349 0.781831
    outer loop
      vertex -35 20.4481 45.1178
      vertex -37 21.805 46.1999
      vertex -37 20.4481 45.1178
    endloop
  endfacet
  facet normal -1 0 0
    outer loop
      vertex -37 23.497 42.6863
      vertex -37 23.75 44.25
      vertex -37 24.25 44.25
    endloop
  endfacet
  facet normal -1 0 0
    outer loop
      vertex -37 23.497 42.6863
      vertex -37 22.7135 42.8234
      vertex -37 23.75 44.25
    endloop
  endfacet
  facet normal -1 0 0
    outer loop
      vertex -37 21.805 42.3001
      vertex -37 22.7135 42.8234
      vertex -37 23.497 42.6863
    endloop
  endfacet
  facet normal -1 0 0
    outer loop
      vertex -37 21.805 42.3001
      vertex -37 21.0365 43.3683
      vertex -37 22.7135 42.8234
    endloop
  endfacet
  facet normal -1 0 0
    outer loop
      vertex -37 21.0365 43.3683
      vertex -37 20.4481 43.3822
      vertex -37 21.0365 45.1317
    endloop
  endfacet
  facet normal -1 0 0
    outer loop
      vertex -37 20.4481 43.3822
      vertex -37 21.0365 43.3683
      vertex -37 21.805 42.3001
    endloop
  endfacet
  facet normal -1 0 0
    outer loop
      vertex -37 23.75 44.25
      vertex -37 23.497 45.8137
      vertex -37 24.25 44.25
    endloop
  endfacet
  facet normal -1 0 0
    outer loop
      vertex -37 22.7135 45.6766
      vertex -37 23.497 45.8137
      vertex -37 23.75 44.25
    endloop
  endfacet
  facet normal -1 0 0
    outer loop
      vertex -37 22.7135 45.6766
      vertex -37 21.805 46.1999
      vertex -37 23.497 45.8137
    endloop
  endfacet
  facet normal -1 0 0
    outer loop
      vertex -37 21.0365 45.1317
      vertex -37 21.805 46.1999
      vertex -37 22.7135 45.6766
    endloop
  endfacet
  facet normal -1 -0 0
    outer loop
      vertex -37 21.0365 45.1317
      vertex -37 20.4481 45.1178
      vertex -37 21.805 46.1999
    endloop
  endfacet
  facet normal -1 0 0
    outer loop
      vertex -37 20.4481 45.1178
      vertex -37 21.0365 45.1317
      vertex -37 20.4481 43.3822
    endloop
  endfacet
  facet normal 0 -0.62349 -0.781831
    outer loop
      vertex -37 20.4481 43.3822
      vertex -35 21.805 42.3001
      vertex -35 20.4481 43.3822
    endloop
  endfacet
  facet normal -0 -0.62349 -0.781831
    outer loop
      vertex -35 21.805 42.3001
      vertex -37 20.4481 43.3822
      vertex -37 21.805 42.3001
    endloop
  endfacet
  facet normal 0 0.900974 0.433872
    outer loop
      vertex -35 23.5416 45.721
      vertex -37 23.497 45.8137
      vertex -35 23.497 45.8137
    endloop
  endfacet
  facet normal -0 0.900968 0.433885
    outer loop
      vertex -37 24.25 44.25
      vertex -35 23.5416 45.721
      vertex -35 24.25 44.25
    endloop
  endfacet
  facet normal 6.58218e-07 0.900969 0.433884
    outer loop
      vertex -35 23.5416 45.721
      vertex -37 24.25 44.25
      vertex -37 23.497 45.8137
    endloop
  endfacet
  facet normal -0 0.222494 0.974934
    outer loop
      vertex -37 23.497 45.8137
      vertex -35 23.45 45.8244
      vertex -35 23.497 45.8137
    endloop
  endfacet
  facet normal 6.68947e-07 0.222521 0.974928
    outer loop
      vertex -37 21.805 46.1999
      vertex -35 23.45 45.8244
      vertex -37 23.497 45.8137
    endloop
  endfacet
  facet normal 0 0.222522 0.974928
    outer loop
      vertex -35 23.45 45.8244
      vertex -37 21.805 46.1999
      vertex -35 21.805 46.1999
    endloop
  endfacet
  facet normal 0 0.809016 -0.587787
    outer loop
      vertex -37 22.7135 42.8234
      vertex -38 23.75 44.25
      vertex -37 23.75 44.25
    endloop
  endfacet
  facet normal 0 0.809016 -0.587787
    outer loop
      vertex -38 23.75 44.25
      vertex -37 22.7135 42.8234
      vertex -38 22.7135 42.8234
    endloop
  endfacet
  facet normal 0 -1 0
    outer loop
      vertex -38 21.0365 43.3683
      vertex -37 21.0365 45.1317
      vertex -38 21.0365 45.1317
    endloop
  endfacet
  facet normal 0 -1 -0
    outer loop
      vertex -37 21.0365 45.1317
      vertex -38 21.0365 43.3683
      vertex -37 21.0365 43.3683
    endloop
  endfacet
  facet normal 0 -0.309017 -0.951056
    outer loop
      vertex -38 21.0365 43.3683
      vertex -37 22.7135 42.8234
      vertex -37 21.0365 43.3683
    endloop
  endfacet
  facet normal -0 -0.309017 -0.951056
    outer loop
      vertex -37 22.7135 42.8234
      vertex -38 21.0365 43.3683
      vertex -38 22.7135 42.8234
    endloop
  endfacet
  facet normal -1 0 0
    outer loop
      vertex -38 22.7135 42.8234
      vertex -38 22.7135 45.6766
      vertex -38 23.75 44.25
    endloop
  endfacet
  facet normal -1 0 0
    outer loop
      vertex -38 21.0365 43.3683
      vertex -38 22.7135 45.6766
      vertex -38 22.7135 42.8234
    endloop
  endfacet
  facet normal -1 0 0
    outer loop
      vertex -38 22.7135 45.6766
      vertex -38 21.0365 43.3683
      vertex -38 21.0365 45.1317
    endloop
  endfacet
  facet normal 0 0.809017 0.587785
    outer loop
      vertex -37 23.75 44.25
      vertex -38 22.7135 45.6766
      vertex -37 22.7135 45.6766
    endloop
  endfacet
  facet normal 0 0.809017 0.587785
    outer loop
      vertex -38 22.7135 45.6766
      vertex -37 23.75 44.25
      vertex -38 23.75 44.25
    endloop
  endfacet
  facet normal 0 -0.309017 0.951056
    outer loop
      vertex -38 22.7135 45.6766
      vertex -37 21.0365 45.1317
      vertex -37 22.7135 45.6766
    endloop
  endfacet
  facet normal 0 -0.309017 0.951056
    outer loop
      vertex -37 21.0365 45.1317
      vertex -38 22.7135 45.6766
      vertex -38 21.0365 45.1317
    endloop
  endfacet
  facet normal 0 0.900969 -0.433884
    outer loop
      vertex -35 23.497 5.18634
      vertex -37 24.25 6.75
      vertex -35 24.25 6.75
    endloop
  endfacet
  facet normal 0 0.900969 -0.433884
    outer loop
      vertex -37 24.25 6.75
      vertex -35 23.497 5.18634
      vertex -37 23.497 5.18634
    endloop
  endfacet
  facet normal 0 -1 0
    outer loop
      vertex -37 20.4481 5.88223
      vertex -35 20.4481 7.61777
      vertex -37 20.4481 7.61777
    endloop
  endfacet
  facet normal 0 -1 -0
    outer loop
      vertex -35 20.4481 7.61777
      vertex -37 20.4481 5.88223
      vertex -35 20.4481 5.88223
    endloop
  endfacet
  facet normal 0 0.222521 -0.974928
    outer loop
      vertex -37 21.805 4.80014
      vertex -35 23.497 5.18634
      vertex -35 21.805 4.80014
    endloop
  endfacet
  facet normal 0 0.222521 -0.974928
    outer loop
      vertex -35 23.497 5.18634
      vertex -37 21.805 4.80014
      vertex -37 23.497 5.18634
    endloop
  endfacet
  facet normal 0 -0.62349 0.781831
    outer loop
      vertex -37 21.805 8.69986
      vertex -35 20.4481 7.61777
      vertex -35 21.805 8.69986
    endloop
  endfacet
  facet normal 0 -0.62349 0.781831
    outer loop
      vertex -35 20.4481 7.61777
      vertex -37 21.805 8.69986
      vertex -37 20.4481 7.61777
    endloop
  endfacet
  facet normal -1 0 0
    outer loop
      vertex -37 23.497 5.18634
      vertex -37 23.75 6.75
      vertex -37 24.25 6.75
    endloop
  endfacet
  facet normal -1 0 0
    outer loop
      vertex -37 23.497 5.18634
      vertex -37 22.7135 5.32342
      vertex -37 23.75 6.75
    endloop
  endfacet
  facet normal -1 0 0
    outer loop
      vertex -37 21.805 4.80014
      vertex -37 22.7135 5.32342
      vertex -37 23.497 5.18634
    endloop
  endfacet
  facet normal -1 0 0
    outer loop
      vertex -37 21.805 4.80014
      vertex -37 21.0365 5.86832
      vertex -37 22.7135 5.32342
    endloop
  endfacet
  facet normal -1 0 0
    outer loop
      vertex -37 21.0365 5.86832
      vertex -37 20.4481 5.88223
      vertex -37 21.0365 7.63168
    endloop
  endfacet
  facet normal -1 0 0
    outer loop
      vertex -37 20.4481 5.88223
      vertex -37 21.0365 5.86832
      vertex -37 21.805 4.80014
    endloop
  endfacet
  facet normal -1 0 0
    outer loop
      vertex -37 23.75 6.75
      vertex -37 23.497 8.31366
      vertex -37 24.25 6.75
    endloop
  endfacet
  facet normal -1 0 0
    outer loop
      vertex -37 22.7135 8.17658
      vertex -37 23.497 8.31366
      vertex -37 23.75 6.75
    endloop
  endfacet
  facet normal -1 0 0
    outer loop
      vertex -37 22.7135 8.17658
      vertex -37 21.805 8.69986
      vertex -37 23.497 8.31366
    endloop
  endfacet
  facet normal -1 0 0
    outer loop
      vertex -37 21.0365 7.63168
      vertex -37 21.805 8.69986
      vertex -37 22.7135 8.17658
    endloop
  endfacet
  facet normal -1 -0 0
    outer loop
      vertex -37 21.0365 7.63168
      vertex -37 20.4481 7.61777
      vertex -37 21.805 8.69986
    endloop
  endfacet
  facet normal -1 0 0
    outer loop
      vertex -37 20.4481 7.61777
      vertex -37 21.0365 7.63168
      vertex -37 20.4481 5.88223
    endloop
  endfacet
  facet normal 0 -0.62349 -0.781831
    outer loop
      vertex -37 20.4481 5.88223
      vertex -35 21.805 4.80014
      vertex -35 20.4481 5.88223
    endloop
  endfacet
  facet normal -0 -0.62349 -0.781831
    outer loop
      vertex -35 21.805 4.80014
      vertex -37 20.4481 5.88223
      vertex -37 21.805 4.80014
    endloop
  endfacet
  facet normal 0 0.900969 0.433884
    outer loop
      vertex -35 24.25 6.75
      vertex -37 23.497 8.31366
      vertex -35 23.497 8.31366
    endloop
  endfacet
  facet normal 0 0.900969 0.433884
    outer loop
      vertex -37 23.497 8.31366
      vertex -35 24.25 6.75
      vertex -37 24.25 6.75
    endloop
  endfacet
  facet normal -0 0.222521 0.974928
    outer loop
      vertex -37 23.497 8.31366
      vertex -35 21.805 8.69986
      vertex -35 23.497 8.31366
    endloop
  endfacet
  facet normal 0 0.222521 0.974928
    outer loop
      vertex -35 21.805 8.69986
      vertex -37 23.497 8.31366
      vertex -37 21.805 8.69986
    endloop
  endfacet
  facet normal 0 0.809017 -0.587785
    outer loop
      vertex -37 22.7135 5.32342
      vertex -38 23.75 6.75
      vertex -37 23.75 6.75
    endloop
  endfacet
  facet normal 0 0.809017 -0.587785
    outer loop
      vertex -38 23.75 6.75
      vertex -37 22.7135 5.32342
      vertex -38 22.7135 5.32342
    endloop
  endfacet
  facet normal 0 -1 0
    outer loop
      vertex -38 21.0365 5.86832
      vertex -37 21.0365 7.63168
      vertex -38 21.0365 7.63168
    endloop
  endfacet
  facet normal 0 -1 -0
    outer loop
      vertex -37 21.0365 7.63168
      vertex -38 21.0365 5.86832
      vertex -37 21.0365 5.86832
    endloop
  endfacet
  facet normal 0 -0.309017 -0.951056
    outer loop
      vertex -38 21.0365 5.86832
      vertex -37 22.7135 5.32342
      vertex -37 21.0365 5.86832
    endloop
  endfacet
  facet normal -0 -0.309017 -0.951056
    outer loop
      vertex -37 22.7135 5.32342
      vertex -38 21.0365 5.86832
      vertex -38 22.7135 5.32342
    endloop
  endfacet
  facet normal -1 0 0
    outer loop
      vertex -38 22.7135 5.32342
      vertex -38 22.7135 8.17658
      vertex -38 23.75 6.75
    endloop
  endfacet
  facet normal -1 0 0
    outer loop
      vertex -38 21.0365 5.86832
      vertex -38 22.7135 8.17658
      vertex -38 22.7135 5.32342
    endloop
  endfacet
  facet normal -1 0 0
    outer loop
      vertex -38 22.7135 8.17658
      vertex -38 21.0365 5.86832
      vertex -38 21.0365 7.63168
    endloop
  endfacet
  facet normal 0 0.809017 0.587785
    outer loop
      vertex -37 23.75 6.75
      vertex -38 22.7135 8.17658
      vertex -37 22.7135 8.17658
    endloop
  endfacet
  facet normal 0 0.809017 0.587785
    outer loop
      vertex -38 22.7135 8.17658
      vertex -37 23.75 6.75
      vertex -38 23.75 6.75
    endloop
  endfacet
  facet normal 0 -0.309017 0.951056
    outer loop
      vertex -38 22.7135 8.17658
      vertex -37 21.0365 7.63168
      vertex -37 22.7135 8.17658
    endloop
  endfacet
  facet normal 0 -0.309017 0.951056
    outer loop
      vertex -37 21.0365 7.63168
      vertex -38 22.7135 8.17658
      vertex -38 21.0365 7.63168
    endloop
  endfacet
  facet normal 0 -1 0
    outer loop
      vertex -35 14.4499 7.77156e-15
      vertex -33 14.4499 16.055
      vertex -35 14.4499 16.055
    endloop
  endfacet
  facet normal 0 -1 -0
    outer loop
      vertex -33 14.4499 16.055
      vertex -35 14.4499 7.77156e-15
      vertex -33 14.4499 7.32747e-15
    endloop
  endfacet
  facet normal 0 0.974928 -0.222521
    outer loop
      vertex -33 -14.4499 16.055
      vertex -35 -14.0637 17.747
      vertex -33 -14.0637 17.747
    endloop
  endfacet
  facet normal 0 0.974928 -0.222521
    outer loop
      vertex -35 -14.0637 17.747
      vertex -33 -14.4499 16.055
      vertex -35 -14.4499 16.055
    endloop
  endfacet
  facet normal 0 -0.974928 -0.222521
    outer loop
      vertex -35 14.4499 16.055
      vertex -33 14.0637 17.747
      vertex -35 14.0637 17.747
    endloop
  endfacet
  facet normal 0 -0.974928 -0.222521
    outer loop
      vertex -33 14.0637 17.747
      vertex -35 14.4499 16.055
      vertex -33 14.4499 16.055
    endloop
  endfacet
  facet normal 0 -0.433884 -0.900969
    outer loop
      vertex -35 12.5 18.5
      vertex -33 14.0637 17.747
      vertex -33 12.5 18.5
    endloop
  endfacet
  facet normal -0 -0.433884 -0.900969
    outer loop
      vertex -33 14.0637 17.747
      vertex -35 12.5 18.5
      vertex -35 14.0637 17.747
    endloop
  endfacet
  facet normal 0 0.433884 -0.900969
    outer loop
      vertex -35 -14.0637 17.747
      vertex -33 -12.5 18.5
      vertex -33 -14.0637 17.747
    endloop
  endfacet
  facet normal 0 0.433884 -0.900969
    outer loop
      vertex -33 -12.5 18.5
      vertex -35 -14.0637 17.747
      vertex -35 -12.5 18.5
    endloop
  endfacet
  facet normal 0 0 -1
    outer loop
      vertex -35 -12.5 18.5
      vertex -33 12.5 18.5
      vertex -33 -12.5 18.5
    endloop
  endfacet
  facet normal -0 0 -1
    outer loop
      vertex -33 12.5 18.5
      vertex -35 -12.5 18.5
      vertex -35 12.5 18.5
    endloop
  endfacet
  facet normal 0 1 0
    outer loop
      vertex -33 -14.4499 16.055
      vertex -35 -14.4499 7.77156e-15
      vertex -35 -14.4499 16.055
    endloop
  endfacet
  facet normal -0 1 0
    outer loop
      vertex -35 -14.4499 7.77156e-15
      vertex -33 -14.4499 16.055
      vertex -33 -14.4499 7.32747e-15
    endloop
  endfacet
  facet normal -1 0 0
    outer loop
      vertex -42 28 1.86517e-14
      vertex -42 33 1.15463e-14
      vertex -42 28 1.15463e-14
    endloop
  endfacet
  facet normal -1 0 0
    outer loop
      vertex -42 33 1.15463e-14
      vertex -42 28 1.86517e-14
      vertex -42 33 2
    endloop
  endfacet
  facet normal -1 -0 0
    outer loop
      vertex -42 33 2
      vertex -42 28 1.86517e-14
      vertex -42 28 2
    endloop
  endfacet
  facet normal 0 0 1
    outer loop
      vertex -40 28 2
      vertex -32 33 2
      vertex -40 33 2
    endloop
  endfacet
  facet normal 0 0 1
    outer loop
      vertex -32 33 2
      vertex -40 28 2
      vertex -27 28 2
    endloop
  endfacet
  facet normal 0 1 -0
    outer loop
      vertex -32 33 7.10543e-15
      vertex -40 33 2
      vertex -32 33 2
    endloop
  endfacet
  facet normal 0 1 0
    outer loop
      vertex -40 33 2
      vertex -42 33 1.15463e-14
      vertex -42 33 2
    endloop
  endfacet
  facet normal 0 1 0
    outer loop
      vertex -40 33 2
      vertex -32 33 7.10543e-15
      vertex -42 33 1.15463e-14
    endloop
  endfacet
  facet normal 0 1 -0
    outer loop
      vertex -40 33 2
      vertex -42 33 17.5
      vertex -40 33 17.5
    endloop
  endfacet
  facet normal 0 1 0
    outer loop
      vertex -42 33 17.5
      vertex -40 33 2
      vertex -42 33 2
    endloop
  endfacet
  facet normal 0.707107 0.707107 0
    outer loop
      vertex -27 28 2
      vertex -32 33 7.10543e-15
      vertex -32 33 2
    endloop
  endfacet
  facet normal 0.707107 0.707107 -0
    outer loop
      vertex -27 28 1.19904e-14
      vertex -32 33 7.10543e-15
      vertex -27 28 2
    endloop
  endfacet
  facet normal 0.707107 0.707107 0
    outer loop
      vertex -32 33 7.10543e-15
      vertex -27 28 1.19904e-14
      vertex -27 28 4.88498e-15
    endloop
  endfacet
  facet normal -4.44089e-16 0 -1
    outer loop
      vertex -42 28 1.15463e-14
      vertex -32 33 7.10543e-15
      vertex -27 28 4.88498e-15
    endloop
  endfacet
  facet normal -4.44089e-16 0 -1
    outer loop
      vertex -32 33 7.10543e-15
      vertex -42 28 1.15463e-14
      vertex -42 33 1.15463e-14
    endloop
  endfacet
  facet normal -4.44089e-16 -0 -1
    outer loop
      vertex -42 -28 1.15463e-14
      vertex -32 -33 7.10543e-15
      vertex -42 -33 1.15463e-14
    endloop
  endfacet
  facet normal -4.44089e-16 0 -1
    outer loop
      vertex -32 -33 7.10543e-15
      vertex -42 -28 1.15463e-14
      vertex -27 -28 4.88498e-15
    endloop
  endfacet
  facet normal -1 0 0
    outer loop
      vertex -42 -33 1.15463e-14
      vertex -42 -28 1.86517e-14
      vertex -42 -28 1.15463e-14
    endloop
  endfacet
  facet normal -1 -0 0
    outer loop
      vertex -42 -28 1.86517e-14
      vertex -42 -33 1.15463e-14
      vertex -42 -28 2
    endloop
  endfacet
  facet normal -1 -0 0
    outer loop
      vertex -42 -28 2
      vertex -42 -33 1.15463e-14
      vertex -42 -33 2
    endloop
  endfacet
  facet normal 0.707107 -0.707107 0
    outer loop
      vertex -32 -33 2
      vertex -27 -28 1.19904e-14
      vertex -27 -28 2
    endloop
  endfacet
  facet normal 0.707107 -0.707107 0
    outer loop
      vertex -32 -33 7.10543e-15
      vertex -27 -28 1.19904e-14
      vertex -32 -33 2
    endloop
  endfacet
  facet normal 0.707107 -0.707107 0
    outer loop
      vertex -27 -28 1.19904e-14
      vertex -32 -33 7.10543e-15
      vertex -27 -28 4.88498e-15
    endloop
  endfacet
  facet normal -0 0 1
    outer loop
      vertex -40 -28 2
      vertex -32 -33 2
      vertex -27 -28 2
    endloop
  endfacet
  facet normal 0 0 1
    outer loop
      vertex -32 -33 2
      vertex -40 -28 2
      vertex -40 -33 2
    endloop
  endfacet
  facet normal 0 -1 0
    outer loop
      vertex -42 -33 2
      vertex -40 -33 17.5
      vertex -42 -33 17.5
    endloop
  endfacet
  facet normal 0 -1 0
    outer loop
      vertex -42 -33 2
      vertex -40 -33 2
      vertex -40 -33 17.5
    endloop
  endfacet
  facet normal 0 -1 0
    outer loop
      vertex -42 -33 1.15463e-14
      vertex -40 -33 2
      vertex -42 -33 2
    endloop
  endfacet
  facet normal 0 -1 0
    outer loop
      vertex -32 -33 7.10543e-15
      vertex -40 -33 2
      vertex -42 -33 1.15463e-14
    endloop
  endfacet
  facet normal 0 -1 0
    outer loop
      vertex -40 -33 2
      vertex -32 -33 7.10543e-15
      vertex -32 -33 2
    endloop
  endfacet
  facet normal 0 0.707107 0.707107
    outer loop
      vertex -40 33 17.5
      vertex -42 28 22.5
      vertex -40 28 22.5
    endloop
  endfacet
  facet normal 0 0.707107 0.707107
    outer loop
      vertex -42 28 22.5
      vertex -40 33 17.5
      vertex -42 33 17.5
    endloop
  endfacet
  facet normal 1 0 0
    outer loop
      vertex -40 33 17.5
      vertex -40 32 12.5
      vertex -40 33 2
    endloop
  endfacet
  facet normal 1 0 0
    outer loop
      vertex -40 33 17.5
      vertex -40 31.309 13.4511
      vertex -40 32 12.5
    endloop
  endfacet
  facet normal 1 0 0
    outer loop
      vertex -40 33 17.5
      vertex -40 30.191 13.0878
      vertex -40 31.309 13.4511
    endloop
  endfacet
  facet normal 1 0 0
    outer loop
      vertex -40 30.191 13.0878
      vertex -40 28 22.5
      vertex -40 30.191 11.9122
    endloop
  endfacet
  facet normal 1 0 0
    outer loop
      vertex -40 28 22.5
      vertex -40 30.191 13.0878
      vertex -40 33 17.5
    endloop
  endfacet
  facet normal 1 -0 0
    outer loop
      vertex -40 31.309 11.5489
      vertex -40 33 2
      vertex -40 32 12.5
    endloop
  endfacet
  facet normal 1 0 0
    outer loop
      vertex -40 28 2
      vertex -40 31.309 11.5489
      vertex -40 30.191 11.9122
    endloop
  endfacet
  facet normal 1 0 0
    outer loop
      vertex -40 31.309 11.5489
      vertex -40 28 2
      vertex -40 33 2
    endloop
  endfacet
  facet normal 1 0 0
    outer loop
      vertex -40 28 2
      vertex -40 30.191 11.9122
      vertex -40 28 22.5
    endloop
  endfacet
  facet normal -1 0 0
    outer loop
      vertex -42 33 2
      vertex -42 32 12.5
      vertex -42 33 17.5
    endloop
  endfacet
  facet normal -1 0 0
    outer loop
      vertex -42 33 2
      vertex -42 31.309 11.5489
      vertex -42 32 12.5
    endloop
  endfacet
  facet normal -1 0 0
    outer loop
      vertex -42 28 2
      vertex -42 31.309 11.5489
      vertex -42 33 2
    endloop
  endfacet
  facet normal -1 0 0
    outer loop
      vertex -42 28 22.5
      vertex -42 30.191 11.9122
      vertex -42 28 2
    endloop
  endfacet
  facet normal -1 -0 0
    outer loop
      vertex -42 31.309 11.5489
      vertex -42 28 2
      vertex -42 30.191 11.9122
    endloop
  endfacet
  facet normal -1 0 0
    outer loop
      vertex -42 31.309 13.4511
      vertex -42 33 17.5
      vertex -42 32 12.5
    endloop
  endfacet
  facet normal -1 0 0
    outer loop
      vertex -42 30.191 13.0878
      vertex -42 33 17.5
      vertex -42 31.309 13.4511
    endloop
  endfacet
  facet normal -1 0 0
    outer loop
      vertex -42 30.191 13.0878
      vertex -42 28 22.5
      vertex -42 33 17.5
    endloop
  endfacet
  facet normal -1 0 0
    outer loop
      vertex -42 30.191 11.9122
      vertex -42 28 22.5
      vertex -42 30.191 13.0878
    endloop
  endfacet
  facet normal -1 0 0
    outer loop
      vertex -42 -28 2
      vertex -42 -30 12.5
      vertex -42 -28 22.5
    endloop
  endfacet
  facet normal -1 0 0
    outer loop
      vertex -42 -28 2
      vertex -42 -30.691 11.5489
      vertex -42 -30 12.5
    endloop
  endfacet
  facet normal -1 0 0
    outer loop
      vertex -42 -33 2
      vertex -42 -30.691 11.5489
      vertex -42 -28 2
    endloop
  endfacet
  facet normal -1 0 0
    outer loop
      vertex -42 -33 17.5
      vertex -42 -31.809 11.9122
      vertex -42 -33 2
    endloop
  endfacet
  facet normal -1 -0 0
    outer loop
      vertex -42 -30.691 11.5489
      vertex -42 -33 2
      vertex -42 -31.809 11.9122
    endloop
  endfacet
  facet normal -1 0 0
    outer loop
      vertex -42 -30.691 13.4511
      vertex -42 -28 22.5
      vertex -42 -30 12.5
    endloop
  endfacet
  facet normal -1 0 0
    outer loop
      vertex -42 -33 17.5
      vertex -42 -30.691 13.4511
      vertex -42 -31.809 13.0878
    endloop
  endfacet
  facet normal -1 0 0
    outer loop
      vertex -42 -30.691 13.4511
      vertex -42 -33 17.5
      vertex -42 -28 22.5
    endloop
  endfacet
  facet normal -1 0 0
    outer loop
      vertex -42 -31.809 11.9122
      vertex -42 -33 17.5
      vertex -42 -31.809 13.0878
    endloop
  endfacet
  facet normal 0 -0.707107 0.707107
    outer loop
      vertex -42 -33 17.5
      vertex -40 -28 22.5
      vertex -42 -28 22.5
    endloop
  endfacet
  facet normal 0 -0.707107 0.707107
    outer loop
      vertex -40 -28 22.5
      vertex -42 -33 17.5
      vertex -40 -33 17.5
    endloop
  endfacet
  facet normal 1 0 0
    outer loop
      vertex -40 -28 22.5
      vertex -40 -30 12.5
      vertex -40 -28 2
    endloop
  endfacet
  facet normal 1 0 0
    outer loop
      vertex -40 -28 22.5
      vertex -40 -30.691 13.4511
      vertex -40 -30 12.5
    endloop
  endfacet
  facet normal 1 -0 0
    outer loop
      vertex -40 -33 17.5
      vertex -40 -30.691 13.4511
      vertex -40 -28 22.5
    endloop
  endfacet
  facet normal 1 0 0
    outer loop
      vertex -40 -30.691 13.4511
      vertex -40 -33 17.5
      vertex -40 -31.809 13.0878
    endloop
  endfacet
  facet normal 1 -0 0
    outer loop
      vertex -40 -30.691 11.5489
      vertex -40 -28 2
      vertex -40 -30 12.5
    endloop
  endfacet
  facet normal 1 0 0
    outer loop
      vertex -40 -33 2
      vertex -40 -30.691 11.5489
      vertex -40 -31.809 11.9122
    endloop
  endfacet
  facet normal 1 0 0
    outer loop
      vertex -40 -33 17.5
      vertex -40 -31.809 11.9122
      vertex -40 -31.809 13.0878
    endloop
  endfacet
  facet normal 1 0 0
    outer loop
      vertex -40 -30.691 11.5489
      vertex -40 -33 2
      vertex -40 -28 2
    endloop
  endfacet
  facet normal 1 0 0
    outer loop
      vertex -40 -33 2
      vertex -40 -31.809 11.9122
      vertex -40 -33 17.5
    endloop
  endfacet
  facet normal 0 -0.809017 0.587785
    outer loop
      vertex -42 -30.691 11.5489
      vertex -40 -30 12.5
      vertex -42 -30 12.5
    endloop
  endfacet
  facet normal 0 -0.809017 0.587785
    outer loop
      vertex -40 -30 12.5
      vertex -42 -30.691 11.5489
      vertex -40 -30.691 11.5489
    endloop
  endfacet
  facet normal 0 1 1.62249e-06
    outer loop
      vertex -40 -31.809 11.9122
      vertex -42 -31.809 13.0878
      vertex -40 -31.809 13.0878
    endloop
  endfacet
  facet normal 0 1 1.62249e-06
    outer loop
      vertex -42 -31.809 13.0878
      vertex -40 -31.809 11.9122
      vertex -42 -31.809 11.9122
    endloop
  endfacet
  facet normal -0 0.309018 0.951056
    outer loop
      vertex -42 -30.691 11.5489
      vertex -40 -31.809 11.9122
      vertex -40 -30.691 11.5489
    endloop
  endfacet
  facet normal 0 0.309018 0.951056
    outer loop
      vertex -40 -31.809 11.9122
      vertex -42 -30.691 11.5489
      vertex -42 -31.809 11.9122
    endloop
  endfacet
  facet normal 0 0.309017 -0.951056
    outer loop
      vertex -42 -31.809 13.0878
      vertex -40 -30.691 13.4511
      vertex -40 -31.809 13.0878
    endloop
  endfacet
  facet normal 0 0.309017 -0.951056
    outer loop
      vertex -40 -30.691 13.4511
      vertex -42 -31.809 13.0878
      vertex -42 -30.691 13.4511
    endloop
  endfacet
  facet normal 0 -0.809017 -0.587785
    outer loop
      vertex -42 -30 12.5
      vertex -40 -30.691 13.4511
      vertex -42 -30.691 13.4511
    endloop
  endfacet
  facet normal 0 -0.809017 -0.587785
    outer loop
      vertex -40 -30.691 13.4511
      vertex -42 -30 12.5
      vertex -40 -30 12.5
    endloop
  endfacet
  facet normal 0 -0.809017 0.587785
    outer loop
      vertex -42 31.309 11.5489
      vertex -40 32 12.5
      vertex -42 32 12.5
    endloop
  endfacet
  facet normal 0 -0.809017 0.587785
    outer loop
      vertex -40 32 12.5
      vertex -42 31.309 11.5489
      vertex -40 31.309 11.5489
    endloop
  endfacet
  facet normal 0 1 -0
    outer loop
      vertex -40 30.191 11.9122
      vertex -42 30.191 13.0878
      vertex -40 30.191 13.0878
    endloop
  endfacet
  facet normal 0 1 0
    outer loop
      vertex -42 30.191 13.0878
      vertex -40 30.191 11.9122
      vertex -42 30.191 11.9122
    endloop
  endfacet
  facet normal -0 0.309017 0.951056
    outer loop
      vertex -42 31.309 11.5489
      vertex -40 30.191 11.9122
      vertex -40 31.309 11.5489
    endloop
  endfacet
  facet normal 0 0.309017 0.951056
    outer loop
      vertex -40 30.191 11.9122
      vertex -42 31.309 11.5489
      vertex -42 30.191 11.9122
    endloop
  endfacet
  facet normal 0 -0.809016 -0.587786
    outer loop
      vertex -42 32 12.5
      vertex -40 31.309 13.4511
      vertex -42 31.309 13.4511
    endloop
  endfacet
  facet normal 0 -0.809016 -0.587786
    outer loop
      vertex -40 31.309 13.4511
      vertex -42 32 12.5
      vertex -40 32 12.5
    endloop
  endfacet
  facet normal 0 0.309018 -0.951056
    outer loop
      vertex -42 30.191 13.0878
      vertex -40 31.309 13.4511
      vertex -40 30.191 13.0878
    endloop
  endfacet
  facet normal 0 0.309018 -0.951056
    outer loop
      vertex -40 31.309 13.4511
      vertex -42 30.191 13.0878
      vertex -42 31.309 13.4511
    endloop
  endfacet
  facet normal 0 0 -1
    outer loop
      vertex 1.88738e-15 18 23
      vertex -15 21 23
      vertex 5 21 23
    endloop
  endfacet
  facet normal 0 0 -1
    outer loop
      vertex -33 18 23
      vertex -15 21 23
      vertex 1.88738e-15 18 23
    endloop
  endfacet
  facet normal 0 0 -1
    outer loop
      vertex -33 18 23
      vertex -25 26 23
      vertex -15 21 23
    endloop
  endfacet
  facet normal -0 0 -1
    outer loop
      vertex -25 26 23
      vertex -33 18 23
      vertex -33 26 23
    endloop
  endfacet
  facet normal 0.514496 -0.857493 -2.28482e-16
    outer loop
      vertex 1.88738e-15 18 23
      vertex 5 21 25
      vertex 2.77556e-15 18 25
    endloop
  endfacet
  facet normal 0.514496 -0.857493 0
    outer loop
      vertex 5 21 25
      vertex 1.88738e-15 18 23
      vertex 5 21 23
    endloop
  endfacet
  facet normal 0 -1 0
    outer loop
      vertex -33 18 23
      vertex 2.77556e-15 18 25
      vertex -33 18 25
    endloop
  endfacet
  facet normal 0 -1 0
    outer loop
      vertex 2.77556e-15 18 25
      vertex -33 18 23
      vertex 1.88738e-15 18 23
    endloop
  endfacet
  facet normal 0 2.38419e-07 -1
    outer loop
      vertex -33 -26 23
      vertex -33 -18 23
      vertex -25 -26 23
    endloop
  endfacet
  facet normal 0 0 -1
    outer loop
      vertex -15 -21 23
      vertex 1.88738e-15 -18 23
      vertex 5 -21 23
    endloop
  endfacet
  facet normal -5.77984e-08 2.88992e-07 -1
    outer loop
      vertex 1.88738e-15 -18 23
      vertex -15 -21 23
      vertex -33 -18 23
    endloop
  endfacet
  facet normal -7.94729e-08 1.58946e-07 -1
    outer loop
      vertex -25 -26 23
      vertex -33 -18 23
      vertex -15 -21 23
    endloop
  endfacet
  facet normal 0.514496 0.857493 -0
    outer loop
      vertex 5 -21 23
      vertex 2.77556e-15 -18 25
      vertex 5 -21 25
    endloop
  endfacet
  facet normal 0.514496 0.857493 -2.28482e-16
    outer loop
      vertex 2.77556e-15 -18 25
      vertex 5 -21 23
      vertex 1.88738e-15 -18 23
    endloop
  endfacet
  facet normal 0 1 0
    outer loop
      vertex 2.77556e-15 -18 25
      vertex -33 -18 23
      vertex -33 -18 25
    endloop
  endfacet
  facet normal -0 1 0
    outer loop
      vertex -33 -18 23
      vertex 2.77556e-15 -18 25
      vertex 1.88738e-15 -18 23
    endloop
  endfacet
  facet normal 1 -0 0
    outer loop
      vertex 16 -23 25
      vertex 16 23 15
      vertex 16 23 25
    endloop
  endfacet
  facet normal 1 0 0
    outer loop
      vertex 16 23 15
      vertex 16 -23 25
      vertex 16 -23 15
    endloop
  endfacet
  facet normal -0 0 1
    outer loop
      vertex 14 23 25
      vertex 16 -23 25
      vertex 16 23 25
    endloop
  endfacet
  facet normal 0 0 1
    outer loop
      vertex 16 -23 25
      vertex 14 23 25
      vertex 14 -23 25
    endloop
  endfacet
  facet normal 0 0 -1
    outer loop
      vertex 14 -21 15
      vertex 16 21 15
      vertex 16 -21 15
    endloop
  endfacet
  facet normal -0 0 -1
    outer loop
      vertex 16 21 15
      vertex 14 -21 15
      vertex 14 21 15
    endloop
  endfacet
  facet normal 0 0 -0
    outer loop
      vertex 16 21 15
      vertex 16 23 15
      vertex 16 -23 15
    endloop
  endfacet
  facet normal 0 0 0
    outer loop
      vertex 16 21 15
      vertex 16 -23 15
      vertex 16 -21 15
    endloop
  endfacet
  facet normal -1 0 0
    outer loop
      vertex 14 -21 15
      vertex 14 21 25
      vertex 14 21 15
    endloop
  endfacet
  facet normal -1 -0 0
    outer loop
      vertex 14 21 25
      vertex 14 -21 15
      vertex 14 -21 25
    endloop
  endfacet
  facet normal 0 0 0
    outer loop
      vertex 14 21 25
      vertex 14 -21 25
      vertex 14 -23 25
    endloop
  endfacet
  facet normal -0 0 0
    outer loop
      vertex 14 21 25
      vertex 14 -23 25
      vertex 14 23 25
    endloop
  endfacet
endsolid OpenSCAD_Model
