solid OpenSCAD_Model
  facet normal -0.809017 -0.587785 0
    outer loop
      vertex -30 0 0
      vertex -30.691 0.951056 2
      vertex -30.691 0.951056 0
    endloop
  endfacet
  facet normal -0.809017 -0.587785 0
    outer loop
      vertex -30.691 0.951056 2
      vertex -30 0 0
      vertex -30 0 2
    endloop
  endfacet
  facet normal 1 -0 0
    outer loop
      vertex -31.809 -0.587785 2
      vertex -31.809 0.587785 0
      vertex -31.809 0.587785 2
    endloop
  endfacet
  facet normal 1 0 0
    outer loop
      vertex -31.809 0.587785 0
      vertex -31.809 -0.587785 2
      vertex -31.809 -0.587785 0
    endloop
  endfacet
  facet normal 0.309017 -0.951056 0
    outer loop
      vertex -31.809 0.587785 0
      vertex -30.691 0.951056 2
      vertex -31.809 0.587785 2
    endloop
  endfacet
  facet normal 0.309017 -0.951056 0
    outer loop
      vertex -30.691 0.951056 2
      vertex -31.809 0.587785 0
      vertex -30.691 0.951056 0
    endloop
  endfacet
  facet normal 0.309017 0.951056 -0
    outer loop
      vertex -30.691 -0.951056 0
      vertex -31.809 -0.587785 2
      vertex -30.691 -0.951056 2
    endloop
  endfacet
  facet normal 0.309017 0.951056 0
    outer loop
      vertex -31.809 -0.587785 2
      vertex -30.691 -0.951056 0
      vertex -31.809 -0.587785 0
    endloop
  endfacet
  facet normal -0.809017 0.587785 0
    outer loop
      vertex -30.691 -0.951056 0
      vertex -30 0 2
      vertex -30 0 0
    endloop
  endfacet
  facet normal -0.809017 0.587785 0
    outer loop
      vertex -30 0 2
      vertex -30.691 -0.951056 0
      vertex -30.691 -0.951056 2
    endloop
  endfacet
  facet normal -0.809017 -0.587785 0
    outer loop
      vertex 32 0 0
      vertex 31.309 0.951056 2
      vertex 31.309 0.951056 0
    endloop
  endfacet
  facet normal -0.809017 -0.587785 0
    outer loop
      vertex 31.309 0.951056 2
      vertex 32 0 0
      vertex 32 0 2
    endloop
  endfacet
  facet normal 1 -0 0
    outer loop
      vertex 30.191 -0.587785 2
      vertex 30.191 0.587785 0
      vertex 30.191 0.587785 2
    endloop
  endfacet
  facet normal 1 0 0
    outer loop
      vertex 30.191 0.587785 0
      vertex 30.191 -0.587785 2
      vertex 30.191 -0.587785 0
    endloop
  endfacet
  facet normal 0.309017 -0.951056 0
    outer loop
      vertex 30.191 0.587785 0
      vertex 31.309 0.951056 2
      vertex 30.191 0.587785 2
    endloop
  endfacet
  facet normal 0.309017 -0.951056 0
    outer loop
      vertex 31.309 0.951056 2
      vertex 30.191 0.587785 0
      vertex 31.309 0.951056 0
    endloop
  endfacet
  facet normal 0.309017 0.951056 -0
    outer loop
      vertex 31.309 -0.951056 0
      vertex 30.191 -0.587785 2
      vertex 31.309 -0.951056 2
    endloop
  endfacet
  facet normal 0.309017 0.951056 0
    outer loop
      vertex 30.191 -0.587785 2
      vertex 31.309 -0.951056 0
      vertex 30.191 -0.587785 0
    endloop
  endfacet
  facet normal -0.809017 0.587785 0
    outer loop
      vertex 31.309 -0.951056 0
      vertex 32 0 2
      vertex 32 0 0
    endloop
  endfacet
  facet normal -0.809017 0.587785 0
    outer loop
      vertex 32 0 2
      vertex 31.309 -0.951056 0
      vertex 31.309 -0.951056 2
    endloop
  endfacet
  facet normal -0.587785 -0.809017 0
    outer loop
      vertex 15.9271 22.3532 0
      vertex 17.4271 21.2634 2
      vertex 15.9271 22.3532 2
    endloop
  endfacet
  facet normal -0.587785 -0.809017 -0
    outer loop
      vertex 17.4271 21.2634 2
      vertex 15.9271 22.3532 0
      vertex 17.4271 21.2634 0
    endloop
  endfacet
  facet normal -0.951057 -0.309017 0
    outer loop
      vertex 18 19.5 0
      vertex 17.4271 21.2634 2
      vertex 17.4271 21.2634 0
    endloop
  endfacet
  facet normal -0.951057 -0.309017 0
    outer loop
      vertex 17.4271 21.2634 2
      vertex 18 19.5 0
      vertex 18 19.5 2
    endloop
  endfacet
  facet normal 0 1 -0
    outer loop
      vertex 15.9271 -2.35317 0
      vertex -15.9271 -2.35317 2
      vertex 15.9271 -2.35317 2
    endloop
  endfacet
  facet normal 0 1 0
    outer loop
      vertex -15.9271 -2.35317 2
      vertex 15.9271 -2.35317 0
      vertex -15.9271 -2.35317 0
    endloop
  endfacet
  facet normal -0.587785 0.809017 0
    outer loop
      vertex 17.4271 -1.26336 0
      vertex 15.9271 -2.35317 2
      vertex 17.4271 -1.26336 2
    endloop
  endfacet
  facet normal -0.587785 0.809017 0
    outer loop
      vertex 15.9271 -2.35317 2
      vertex 17.4271 -1.26336 0
      vertex 15.9271 -2.35317 0
    endloop
  endfacet
  facet normal -1 0 0
    outer loop
      vertex 18 0.5 0
      vertex 18 19.5 2
      vertex 18 19.5 0
    endloop
  endfacet
  facet normal -1 -0 0
    outer loop
      vertex 18 19.5 2
      vertex 18 0.5 0
      vertex 18 0.5 2
    endloop
  endfacet
  facet normal 0.587785 -0.809017 0
    outer loop
      vertex -17.4271 21.2634 0
      vertex -15.9271 22.3532 2
      vertex -17.4271 21.2634 2
    endloop
  endfacet
  facet normal 0.587785 -0.809017 0
    outer loop
      vertex -15.9271 22.3532 2
      vertex -17.4271 21.2634 0
      vertex -15.9271 22.3532 0
    endloop
  endfacet
  facet normal 0 -1 0
    outer loop
      vertex -15.9271 22.3532 0
      vertex 15.9271 22.3532 2
      vertex -15.9271 22.3532 2
    endloop
  endfacet
  facet normal 0 -1 -0
    outer loop
      vertex 15.9271 22.3532 2
      vertex -15.9271 22.3532 0
      vertex 15.9271 22.3532 0
    endloop
  endfacet
  facet normal -0.951057 0.309017 0
    outer loop
      vertex 17.4271 -1.26336 0
      vertex 18 0.5 2
      vertex 18 0.5 0
    endloop
  endfacet
  facet normal -0.951057 0.309017 0
    outer loop
      vertex 18 0.5 2
      vertex 17.4271 -1.26336 0
      vertex 17.4271 -1.26336 2
    endloop
  endfacet
  facet normal 0.587785 0.809017 -0
    outer loop
      vertex -15.9271 -2.35317 0
      vertex -17.4271 -1.26336 2
      vertex -15.9271 -2.35317 2
    endloop
  endfacet
  facet normal 0.587785 0.809017 0
    outer loop
      vertex -17.4271 -1.26336 2
      vertex -15.9271 -2.35317 0
      vertex -17.4271 -1.26336 0
    endloop
  endfacet
  facet normal 1 -0 0
    outer loop
      vertex -18 0.5 2
      vertex -18 19.5 0
      vertex -18 19.5 2
    endloop
  endfacet
  facet normal 1 0 0
    outer loop
      vertex -18 19.5 0
      vertex -18 0.5 2
      vertex -18 0.5 0
    endloop
  endfacet
  facet normal 0.951057 -0.309017 0
    outer loop
      vertex -18 19.5 2
      vertex -17.4271 21.2634 0
      vertex -17.4271 21.2634 2
    endloop
  endfacet
  facet normal 0.951057 -0.309017 0
    outer loop
      vertex -17.4271 21.2634 0
      vertex -18 19.5 2
      vertex -18 19.5 0
    endloop
  endfacet
  facet normal 0.951057 0.309017 0
    outer loop
      vertex -17.4271 -1.26336 2
      vertex -18 0.5 0
      vertex -18 0.5 2
    endloop
  endfacet
  facet normal 0.951057 0.309017 0
    outer loop
      vertex -18 0.5 0
      vertex -17.4271 -1.26336 2
      vertex -17.4271 -1.26336 0
    endloop
  endfacet
  facet normal -0.951056 -0.309017 0
    outer loop
      vertex 3 -32 0
      vertex 2.42705 -30.2366 2
      vertex 2.42705 -30.2366 0
    endloop
  endfacet
  facet normal -0.951056 -0.309017 0
    outer loop
      vertex 2.42705 -30.2366 2
      vertex 3 -32 0
      vertex 3 -32 2
    endloop
  endfacet
  facet normal 0.951056 -0.309017 0
    outer loop
      vertex -3 -32 2
      vertex -2.42705 -30.2366 0
      vertex -2.42705 -30.2366 2
    endloop
  endfacet
  facet normal 0.951056 -0.309017 0
    outer loop
      vertex -2.42705 -30.2366 0
      vertex -3 -32 2
      vertex -3 -32 0
    endloop
  endfacet
  facet normal 0 1 -0
    outer loop
      vertex 0.927051 -34.8532 0
      vertex -0.927051 -34.8532 2
      vertex 0.927051 -34.8532 2
    endloop
  endfacet
  facet normal 0 1 0
    outer loop
      vertex -0.927051 -34.8532 2
      vertex 0.927051 -34.8532 0
      vertex -0.927051 -34.8532 0
    endloop
  endfacet
  facet normal 0 -1 0
    outer loop
      vertex -0.927051 -29.1468 0
      vertex 0.927051 -29.1468 2
      vertex -0.927051 -29.1468 2
    endloop
  endfacet
  facet normal 0 -1 -0
    outer loop
      vertex 0.927051 -29.1468 2
      vertex -0.927051 -29.1468 0
      vertex 0.927051 -29.1468 0
    endloop
  endfacet
  facet normal -0.587786 -0.809017 0
    outer loop
      vertex 0.927051 -29.1468 0
      vertex 2.42705 -30.2366 2
      vertex 0.927051 -29.1468 2
    endloop
  endfacet
  facet normal -0.587786 -0.809017 -0
    outer loop
      vertex 2.42705 -30.2366 2
      vertex 0.927051 -29.1468 0
      vertex 2.42705 -30.2366 0
    endloop
  endfacet
  facet normal 0.587786 -0.809017 0
    outer loop
      vertex -2.42705 -30.2366 0
      vertex -0.927051 -29.1468 2
      vertex -2.42705 -30.2366 2
    endloop
  endfacet
  facet normal 0.587786 -0.809017 0
    outer loop
      vertex -0.927051 -29.1468 2
      vertex -2.42705 -30.2366 0
      vertex -0.927051 -29.1468 0
    endloop
  endfacet
  facet normal -0.587785 0.809017 0
    outer loop
      vertex 2.42705 -33.7634 0
      vertex 0.927051 -34.8532 2
      vertex 2.42705 -33.7634 2
    endloop
  endfacet
  facet normal -0.587785 0.809017 0
    outer loop
      vertex 0.927051 -34.8532 2
      vertex 2.42705 -33.7634 0
      vertex 0.927051 -34.8532 0
    endloop
  endfacet
  facet normal 0.587785 0.809017 -0
    outer loop
      vertex -0.927051 -34.8532 0
      vertex -2.42705 -33.7634 2
      vertex -0.927051 -34.8532 2
    endloop
  endfacet
  facet normal 0.587785 0.809017 0
    outer loop
      vertex -2.42705 -33.7634 2
      vertex -0.927051 -34.8532 0
      vertex -2.42705 -33.7634 0
    endloop
  endfacet
  facet normal 0.951056 0.309017 0
    outer loop
      vertex -2.42705 -33.7634 2
      vertex -3 -32 0
      vertex -3 -32 2
    endloop
  endfacet
  facet normal 0.951056 0.309017 0
    outer loop
      vertex -3 -32 0
      vertex -2.42705 -33.7634 2
      vertex -2.42705 -33.7634 0
    endloop
  endfacet
  facet normal -0.951056 0.309017 0
    outer loop
      vertex 2.42705 -33.7634 0
      vertex 3 -32 2
      vertex 3 -32 0
    endloop
  endfacet
  facet normal -0.951056 0.309017 0
    outer loop
      vertex 3 -32 2
      vertex 2.42705 -33.7634 0
      vertex 2.42705 -33.7634 2
    endloop
  endfacet
  facet normal 0.951056 0.309017 0
    outer loop
      vertex 39.1259 8.31647 2
      vertex 36.5418 16.2695 0
      vertex 36.5418 16.2695 2
    endloop
  endfacet
  facet normal 0.951056 0.309017 0
    outer loop
      vertex 36.5418 16.2695 0
      vertex 39.1259 8.31647 2
      vertex 39.1259 8.31647 0
    endloop
  endfacet
  facet normal 0.994522 0.104528 0
    outer loop
      vertex 40 0 2
      vertex 39.1259 8.31647 0
      vertex 39.1259 8.31647 2
    endloop
  endfacet
  facet normal 0.994522 0.104528 0
    outer loop
      vertex 39.1259 8.31647 0
      vertex 40 0 2
      vertex 40 0 0
    endloop
  endfacet
  facet normal -0.207912 0.978148 0
    outer loop
      vertex -4.18114 39.7809 0
      vertex -12.3607 38.0423 2
      vertex -4.18114 39.7809 2
    endloop
  endfacet
  facet normal -0.207912 0.978148 0
    outer loop
      vertex -12.3607 38.0423 2
      vertex -4.18114 39.7809 0
      vertex -12.3607 38.0423 0
    endloop
  endfacet
  facet normal 0.587785 0.809017 -0
    outer loop
      vertex 26.7652 29.7258 0
      vertex 20 34.641 2
      vertex 26.7652 29.7258 2
    endloop
  endfacet
  facet normal 0.587785 0.809017 0
    outer loop
      vertex 20 34.641 2
      vertex 26.7652 29.7258 0
      vertex 20 34.641 0
    endloop
  endfacet
  facet normal -0.406737 -0.913545 0
    outer loop
      vertex -20 -34.641 0
      vertex -12.3607 -38.0423 2
      vertex -20 -34.641 2
    endloop
  endfacet
  facet normal -0.406737 -0.913545 -0
    outer loop
      vertex -12.3607 -38.0423 2
      vertex -20 -34.641 0
      vertex -12.3607 -38.0423 0
    endloop
  endfacet
  facet normal 0.866025 -0.5 0
    outer loop
      vertex 32.3607 -23.5114 2
      vertex 36.5418 -16.2695 0
      vertex 36.5418 -16.2695 2
    endloop
  endfacet
  facet normal 0.866025 -0.5 0
    outer loop
      vertex 36.5418 -16.2695 0
      vertex 32.3607 -23.5114 2
      vertex 32.3607 -23.5114 0
    endloop
  endfacet
  facet normal -0.743145 0.669131 0
    outer loop
      vertex -32.3607 23.5114 0
      vertex -26.7652 29.7258 2
      vertex -26.7652 29.7258 0
    endloop
  endfacet
  facet normal -0.743145 0.669131 0
    outer loop
      vertex -26.7652 29.7258 2
      vertex -32.3607 23.5114 0
      vertex -32.3607 23.5114 2
    endloop
  endfacet
  facet normal 0.207912 0.978148 -0
    outer loop
      vertex 12.3607 38.0423 0
      vertex 4.18114 39.7809 2
      vertex 12.3607 38.0423 2
    endloop
  endfacet
  facet normal 0.207912 0.978148 0
    outer loop
      vertex 4.18114 39.7809 2
      vertex 12.3607 38.0423 0
      vertex 4.18114 39.7809 0
    endloop
  endfacet
  facet normal 0.866025 0.5 0
    outer loop
      vertex 36.5418 16.2695 2
      vertex 32.3607 23.5114 0
      vertex 32.3607 23.5114 2
    endloop
  endfacet
  facet normal 0.866025 0.5 0
    outer loop
      vertex 32.3607 23.5114 0
      vertex 36.5418 16.2695 2
      vertex 36.5418 16.2695 0
    endloop
  endfacet
  facet normal -0.951056 -0.309017 0
    outer loop
      vertex -36.5418 -16.2695 0
      vertex -39.1259 -8.31647 2
      vertex -39.1259 -8.31647 0
    endloop
  endfacet
  facet normal -0.951056 -0.309017 0
    outer loop
      vertex -39.1259 -8.31647 2
      vertex -36.5418 -16.2695 0
      vertex -36.5418 -16.2695 2
    endloop
  endfacet
  facet normal -0.743145 -0.669131 0
    outer loop
      vertex -26.7652 -29.7258 0
      vertex -32.3607 -23.5114 2
      vertex -32.3607 -23.5114 0
    endloop
  endfacet
  facet normal -0.743145 -0.669131 0
    outer loop
      vertex -32.3607 -23.5114 2
      vertex -26.7652 -29.7258 0
      vertex -26.7652 -29.7258 2
    endloop
  endfacet
  facet normal -0.207912 -0.978148 0
    outer loop
      vertex -12.3607 -38.0423 0
      vertex -4.18114 -39.7809 2
      vertex -12.3607 -38.0423 2
    endloop
  endfacet
  facet normal -0.207912 -0.978148 -0
    outer loop
      vertex -4.18114 -39.7809 2
      vertex -12.3607 -38.0423 0
      vertex -4.18114 -39.7809 0
    endloop
  endfacet
  facet normal 0.207912 -0.978148 0
    outer loop
      vertex 4.18114 -39.7809 0
      vertex 12.3607 -38.0423 2
      vertex 4.18114 -39.7809 2
    endloop
  endfacet
  facet normal 0.207912 -0.978148 0
    outer loop
      vertex 12.3607 -38.0423 2
      vertex 4.18114 -39.7809 0
      vertex 12.3607 -38.0423 0
    endloop
  endfacet
  facet normal 0.587785 -0.809017 0
    outer loop
      vertex 20 -34.641 0
      vertex 26.7652 -29.7258 2
      vertex 20 -34.641 2
    endloop
  endfacet
  facet normal 0.587785 -0.809017 0
    outer loop
      vertex 26.7652 -29.7258 2
      vertex 20 -34.641 0
      vertex 26.7652 -29.7258 0
    endloop
  endfacet
  facet normal 0.951056 -0.309017 0
    outer loop
      vertex 36.5418 -16.2695 2
      vertex 39.1259 -8.31647 0
      vertex 39.1259 -8.31647 2
    endloop
  endfacet
  facet normal 0.951056 -0.309017 0
    outer loop
      vertex 39.1259 -8.31647 0
      vertex 36.5418 -16.2695 2
      vertex 36.5418 -16.2695 0
    endloop
  endfacet
  facet normal -0.951056 0.309017 0
    outer loop
      vertex -39.1259 8.31647 0
      vertex -36.5418 16.2695 2
      vertex -36.5418 16.2695 0
    endloop
  endfacet
  facet normal -0.951056 0.309017 0
    outer loop
      vertex -36.5418 16.2695 2
      vertex -39.1259 8.31647 0
      vertex -39.1259 8.31647 2
    endloop
  endfacet
  facet normal 0 0 -1
    outer loop
      vertex -36.5418 16.2695 0
      vertex -18 0.5 0
      vertex -30.691 0.951056 0
    endloop
  endfacet
  facet normal 0 0 -1
    outer loop
      vertex -39.1259 8.31647 0
      vertex -30.691 0.951056 0
      vertex -31.809 0.587785 0
    endloop
  endfacet
  facet normal 0 0 -1
    outer loop
      vertex -18 0.5 0
      vertex -32.3607 23.5114 0
      vertex -26.7652 29.7258 0
    endloop
  endfacet
  facet normal -0 0 -1
    outer loop
      vertex -30.691 -0.951056 0
      vertex -39.1259 -8.31647 0
      vertex -31.809 -0.587785 0
    endloop
  endfacet
  facet normal 0 0 -1
    outer loop
      vertex -40 0 0
      vertex -31.809 -0.587785 0
      vertex -39.1259 -8.31647 0
    endloop
  endfacet
  facet normal 0 0 -1
    outer loop
      vertex -18 0.5 0
      vertex -36.5418 16.2695 0
      vertex -32.3607 23.5114 0
    endloop
  endfacet
  facet normal 0 0 -1
    outer loop
      vertex -31.809 -0.587785 0
      vertex -40 0 0
      vertex -31.809 0.587785 0
    endloop
  endfacet
  facet normal 0 0 -1
    outer loop
      vertex -30.691 0.951056 0
      vertex -39.1259 8.31647 0
      vertex -36.5418 16.2695 0
    endloop
  endfacet
  facet normal -0 0 -1
    outer loop
      vertex -31.809 0.587785 0
      vertex -40 0 0
      vertex -39.1259 8.31647 0
    endloop
  endfacet
  facet normal 0 0 -1
    outer loop
      vertex 12.3607 -38.0423 0
      vertex 2.42705 -33.7634 0
      vertex 3 -32 0
    endloop
  endfacet
  facet normal 0 0 -1
    outer loop
      vertex 4.18114 -39.7809 0
      vertex 0.927051 -34.8532 0
      vertex 2.42705 -33.7634 0
    endloop
  endfacet
  facet normal 0 0 -1
    outer loop
      vertex 4.18114 -39.7809 0
      vertex -0.927051 -34.8532 0
      vertex 0.927051 -34.8532 0
    endloop
  endfacet
  facet normal 0 0 -1
    outer loop
      vertex -4.18114 -39.7809 0
      vertex -0.927051 -34.8532 0
      vertex 4.18114 -39.7809 0
    endloop
  endfacet
  facet normal 0 0 -1
    outer loop
      vertex -12.3607 -38.0423 0
      vertex -2.42705 -33.7634 0
      vertex -4.18114 -39.7809 0
    endloop
  endfacet
  facet normal -0 0 -1
    outer loop
      vertex -0.927051 -34.8532 0
      vertex -4.18114 -39.7809 0
      vertex -2.42705 -33.7634 0
    endloop
  endfacet
  facet normal 0 0 -1
    outer loop
      vertex 17.4271 21.2634 0
      vertex 26.7652 29.7258 0
      vertex 18 19.5 0
    endloop
  endfacet
  facet normal 0 0 -1
    outer loop
      vertex 15.9271 22.3532 0
      vertex 26.7652 29.7258 0
      vertex 17.4271 21.2634 0
    endloop
  endfacet
  facet normal -0 0 -1
    outer loop
      vertex 26.7652 29.7258 0
      vertex 15.9271 22.3532 0
      vertex 20 34.641 0
    endloop
  endfacet
  facet normal 0 0 -1
    outer loop
      vertex 15.9271 22.3532 0
      vertex 12.3607 38.0423 0
      vertex 20 34.641 0
    endloop
  endfacet
  facet normal 0 0 -1
    outer loop
      vertex 15.9271 22.3532 0
      vertex 4.18114 39.7809 0
      vertex 12.3607 38.0423 0
    endloop
  endfacet
  facet normal 0 0 -1
    outer loop
      vertex 15.9271 22.3532 0
      vertex -4.18114 39.7809 0
      vertex 4.18114 39.7809 0
    endloop
  endfacet
  facet normal 0 0 -1
    outer loop
      vertex -15.9271 22.3532 0
      vertex -4.18114 39.7809 0
      vertex 15.9271 22.3532 0
    endloop
  endfacet
  facet normal 0 0 -1
    outer loop
      vertex -4.18114 39.7809 0
      vertex -15.9271 22.3532 0
      vertex -12.3607 38.0423 0
    endloop
  endfacet
  facet normal 0 0 -1
    outer loop
      vertex -20 34.641 0
      vertex -15.9271 22.3532 0
      vertex -17.4271 21.2634 0
    endloop
  endfacet
  facet normal 0 0 -1
    outer loop
      vertex -20 34.641 0
      vertex -17.4271 21.2634 0
      vertex -18 19.5 0
    endloop
  endfacet
  facet normal 0 0 -1
    outer loop
      vertex -15.9271 22.3532 0
      vertex -20 34.641 0
      vertex -12.3607 38.0423 0
    endloop
  endfacet
  facet normal 0 0 -1
    outer loop
      vertex -18 0.5 0
      vertex -20 34.641 0
      vertex -18 19.5 0
    endloop
  endfacet
  facet normal 0 0 -1
    outer loop
      vertex -15.9271 -2.35317 0
      vertex -30.691 -0.951056 0
      vertex -17.4271 -1.26336 0
    endloop
  endfacet
  facet normal 0 0 -1
    outer loop
      vertex -30.691 0.951056 0
      vertex -18 0.5 0
      vertex -30 0 0
    endloop
  endfacet
  facet normal 0 0 -1
    outer loop
      vertex -18 0.5 0
      vertex -26.7652 29.7258 0
      vertex -20 34.641 0
    endloop
  endfacet
  facet normal 0 0 -1
    outer loop
      vertex -17.4271 -1.26336 0
      vertex -30 0 0
      vertex -18 0.5 0
    endloop
  endfacet
  facet normal 0 -0 -1
    outer loop
      vertex -30 0 0
      vertex -17.4271 -1.26336 0
      vertex -30.691 -0.951056 0
    endloop
  endfacet
  facet normal 0 0 -1
    outer loop
      vertex -39.1259 -8.31647 0
      vertex -30.691 -0.951056 0
      vertex -36.5418 -16.2695 0
    endloop
  endfacet
  facet normal -0 0 -1
    outer loop
      vertex -15.9271 -2.35317 0
      vertex -36.5418 -16.2695 0
      vertex -30.691 -0.951056 0
    endloop
  endfacet
  facet normal 0 0 -1
    outer loop
      vertex 31.309 -0.951056 0
      vertex 40 0 0
      vertex 39.1259 -8.31647 0
    endloop
  endfacet
  facet normal 0 0 -1
    outer loop
      vertex 31.309 -0.951056 0
      vertex 39.1259 -8.31647 0
      vertex 36.5418 -16.2695 0
    endloop
  endfacet
  facet normal 0 0 -1
    outer loop
      vertex 31.309 0.951056 0
      vertex 40 0 0
      vertex 32 0 0
    endloop
  endfacet
  facet normal 0 0 -1
    outer loop
      vertex 15.9271 -2.35317 0
      vertex 36.5418 -16.2695 0
      vertex 32.3607 -23.5114 0
    endloop
  endfacet
  facet normal 0 0 -1
    outer loop
      vertex 40 0 0
      vertex 31.309 0.951056 0
      vertex 39.1259 8.31647 0
    endloop
  endfacet
  facet normal -0 0 -1
    outer loop
      vertex 39.1259 8.31647 0
      vertex 31.309 0.951056 0
      vertex 36.5418 16.2695 0
    endloop
  endfacet
  facet normal -0 0 -1
    outer loop
      vertex 40 0 0
      vertex 31.309 -0.951056 0
      vertex 32 0 0
    endloop
  endfacet
  facet normal 0 0 -1
    outer loop
      vertex 36.5418 -16.2695 0
      vertex 30.191 -0.587785 0
      vertex 31.309 -0.951056 0
    endloop
  endfacet
  facet normal 0 -0 -1
    outer loop
      vertex 17.4271 -1.26336 0
      vertex 36.5418 -16.2695 0
      vertex 15.9271 -2.35317 0
    endloop
  endfacet
  facet normal 0 0 -1
    outer loop
      vertex 15.9271 -2.35317 0
      vertex 32.3607 -23.5114 0
      vertex 26.7652 -29.7258 0
    endloop
  endfacet
  facet normal 0 0 -1
    outer loop
      vertex 30.191 0.587785 0
      vertex 36.5418 16.2695 0
      vertex 31.309 0.951056 0
    endloop
  endfacet
  facet normal 0 0 -1
    outer loop
      vertex 18 19.5 0
      vertex 30.191 0.587785 0
      vertex 18 0.5 0
    endloop
  endfacet
  facet normal 0 -0 -1
    outer loop
      vertex 18 0.5 0
      vertex 30.191 -0.587785 0
      vertex 17.4271 -1.26336 0
    endloop
  endfacet
  facet normal 0 0 -1
    outer loop
      vertex 30.191 0.587785 0
      vertex 18 19.5 0
      vertex 36.5418 16.2695 0
    endloop
  endfacet
  facet normal 0 0 -1
    outer loop
      vertex 2.42705 -30.2366 0
      vertex 26.7652 -29.7258 0
      vertex 20 -34.641 0
    endloop
  endfacet
  facet normal 0 0 -1
    outer loop
      vertex 36.5418 16.2695 0
      vertex 18 19.5 0
      vertex 32.3607 23.5114 0
    endloop
  endfacet
  facet normal -0 0 -1
    outer loop
      vertex 32.3607 23.5114 0
      vertex 18 19.5 0
      vertex 26.7652 29.7258 0
    endloop
  endfacet
  facet normal 0 0 -1
    outer loop
      vertex 30.191 -0.587785 0
      vertex 18 0.5 0
      vertex 30.191 0.587785 0
    endloop
  endfacet
  facet normal 0 0 -1
    outer loop
      vertex 36.5418 -16.2695 0
      vertex 17.4271 -1.26336 0
      vertex 30.191 -0.587785 0
    endloop
  endfacet
  facet normal 0 0 -1
    outer loop
      vertex 2.42705 -30.2366 0
      vertex 20 -34.641 0
      vertex 12.3607 -38.0423 0
    endloop
  endfacet
  facet normal 0 0 -1
    outer loop
      vertex 2.42705 -33.7634 0
      vertex 12.3607 -38.0423 0
      vertex 4.18114 -39.7809 0
    endloop
  endfacet
  facet normal 0 0 -1
    outer loop
      vertex 2.42705 -30.2366 0
      vertex 12.3607 -38.0423 0
      vertex 3 -32 0
    endloop
  endfacet
  facet normal -0 0 -1
    outer loop
      vertex 26.7652 -29.7258 0
      vertex 2.42705 -30.2366 0
      vertex 15.9271 -2.35317 0
    endloop
  endfacet
  facet normal 0 0 -1
    outer loop
      vertex 0.927051 -29.1468 0
      vertex 15.9271 -2.35317 0
      vertex 2.42705 -30.2366 0
    endloop
  endfacet
  facet normal 0 0 -1
    outer loop
      vertex -0.927051 -29.1468 0
      vertex 15.9271 -2.35317 0
      vertex 0.927051 -29.1468 0
    endloop
  endfacet
  facet normal 0 0 -1
    outer loop
      vertex -15.9271 -2.35317 0
      vertex -0.927051 -29.1468 0
      vertex -2.42705 -30.2366 0
    endloop
  endfacet
  facet normal -0 0 -1
    outer loop
      vertex -2.42705 -33.7634 0
      vertex -12.3607 -38.0423 0
      vertex -3 -32 0
    endloop
  endfacet
  facet normal 0 0 -1
    outer loop
      vertex -12.3607 -38.0423 0
      vertex -2.42705 -30.2366 0
      vertex -3 -32 0
    endloop
  endfacet
  facet normal 0 0 -1
    outer loop
      vertex -20 -34.641 0
      vertex -2.42705 -30.2366 0
      vertex -12.3607 -38.0423 0
    endloop
  endfacet
  facet normal 0 0 -1
    outer loop
      vertex -0.927051 -29.1468 0
      vertex -15.9271 -2.35317 0
      vertex 15.9271 -2.35317 0
    endloop
  endfacet
  facet normal 0 0 -1
    outer loop
      vertex -26.7652 -29.7258 0
      vertex -2.42705 -30.2366 0
      vertex -20 -34.641 0
    endloop
  endfacet
  facet normal 0 0 -1
    outer loop
      vertex -2.42705 -30.2366 0
      vertex -26.7652 -29.7258 0
      vertex -15.9271 -2.35317 0
    endloop
  endfacet
  facet normal 0 0 -1
    outer loop
      vertex -36.5418 -16.2695 0
      vertex -15.9271 -2.35317 0
      vertex -32.3607 -23.5114 0
    endloop
  endfacet
  facet normal 0 0 -1
    outer loop
      vertex -32.3607 -23.5114 0
      vertex -15.9271 -2.35317 0
      vertex -26.7652 -29.7258 0
    endloop
  endfacet
  facet normal -0.587785 0.809017 0
    outer loop
      vertex -20 34.641 0
      vertex -26.7652 29.7258 2
      vertex -20 34.641 2
    endloop
  endfacet
  facet normal -0.587785 0.809017 0
    outer loop
      vertex -26.7652 29.7258 2
      vertex -20 34.641 0
      vertex -26.7652 29.7258 0
    endloop
  endfacet
  facet normal -0.406737 0.913545 0
    outer loop
      vertex -12.3607 38.0423 0
      vertex -20 34.641 2
      vertex -12.3607 38.0423 2
    endloop
  endfacet
  facet normal -0.406737 0.913545 0
    outer loop
      vertex -20 34.641 2
      vertex -12.3607 38.0423 0
      vertex -20 34.641 0
    endloop
  endfacet
  facet normal -0.866025 0.5 0
    outer loop
      vertex -36.5418 16.2695 0
      vertex -32.3607 23.5114 2
      vertex -32.3607 23.5114 0
    endloop
  endfacet
  facet normal -0.866025 0.5 0
    outer loop
      vertex -32.3607 23.5114 2
      vertex -36.5418 16.2695 0
      vertex -36.5418 16.2695 2
    endloop
  endfacet
  facet normal -0.994522 0.104528 0
    outer loop
      vertex -40 0 0
      vertex -39.1259 8.31647 2
      vertex -39.1259 8.31647 0
    endloop
  endfacet
  facet normal -0.994522 0.104528 0
    outer loop
      vertex -39.1259 8.31647 2
      vertex -40 0 0
      vertex -40 0 2
    endloop
  endfacet
  facet normal 0 0 1
    outer loop
      vertex -36.5418 -16.2695 2
      vertex -15.9271 -2.35317 2
      vertex -30.691 -0.951056 2
    endloop
  endfacet
  facet normal 0 0 1
    outer loop
      vertex -39.1259 -8.31647 2
      vertex -30.691 -0.951056 2
      vertex -31.809 -0.587785 2
    endloop
  endfacet
  facet normal 0 0 1
    outer loop
      vertex -15.9271 -2.35317 2
      vertex -32.3607 -23.5114 2
      vertex -26.7652 -29.7258 2
    endloop
  endfacet
  facet normal 0 0 1
    outer loop
      vertex -30.691 0.951056 2
      vertex -39.1259 8.31647 2
      vertex -31.809 0.587785 2
    endloop
  endfacet
  facet normal 0 0 1
    outer loop
      vertex -40 0 2
      vertex -31.809 0.587785 2
      vertex -39.1259 8.31647 2
    endloop
  endfacet
  facet normal 0 0 1
    outer loop
      vertex -15.9271 -2.35317 2
      vertex -36.5418 -16.2695 2
      vertex -32.3607 -23.5114 2
    endloop
  endfacet
  facet normal 0 0 1
    outer loop
      vertex -31.809 0.587785 2
      vertex -40 0 2
      vertex -31.809 -0.587785 2
    endloop
  endfacet
  facet normal 0 0 1
    outer loop
      vertex -30.691 -0.951056 2
      vertex -39.1259 -8.31647 2
      vertex -36.5418 -16.2695 2
    endloop
  endfacet
  facet normal 0 0 1
    outer loop
      vertex -31.809 -0.587785 2
      vertex -40 0 2
      vertex -39.1259 -8.31647 2
    endloop
  endfacet
  facet normal 0 0 1
    outer loop
      vertex 36.5418 -16.2695 2
      vertex 15.9271 -2.35317 2
      vertex 32.3607 -23.5114 2
    endloop
  endfacet
  facet normal 0 0 1
    outer loop
      vertex 32.3607 -23.5114 2
      vertex 15.9271 -2.35317 2
      vertex 26.7652 -29.7258 2
    endloop
  endfacet
  facet normal 0 0 1
    outer loop
      vertex 2.42705 -30.2366 2
      vertex 26.7652 -29.7258 2
      vertex 15.9271 -2.35317 2
    endloop
  endfacet
  facet normal 0 0 1
    outer loop
      vertex 26.7652 -29.7258 2
      vertex 2.42705 -30.2366 2
      vertex 20 -34.641 2
    endloop
  endfacet
  facet normal 0 0 1
    outer loop
      vertex 20 -34.641 2
      vertex 2.42705 -30.2366 2
      vertex 12.3607 -38.0423 2
    endloop
  endfacet
  facet normal -0 0 1
    outer loop
      vertex 2.42705 -33.7634 2
      vertex 12.3607 -38.0423 2
      vertex 3 -32 2
    endloop
  endfacet
  facet normal 0 0 1
    outer loop
      vertex 12.3607 -38.0423 2
      vertex 2.42705 -30.2366 2
      vertex 3 -32 2
    endloop
  endfacet
  facet normal 0 0 1
    outer loop
      vertex 15.9271 -2.35317 2
      vertex 0.927051 -29.1468 2
      vertex 2.42705 -30.2366 2
    endloop
  endfacet
  facet normal 0 0 1
    outer loop
      vertex 15.9271 -2.35317 2
      vertex -0.927051 -29.1468 2
      vertex 0.927051 -29.1468 2
    endloop
  endfacet
  facet normal -0 0 1
    outer loop
      vertex -15.9271 -2.35317 2
      vertex -0.927051 -29.1468 2
      vertex 15.9271 -2.35317 2
    endloop
  endfacet
  facet normal 0 0 1
    outer loop
      vertex -2.42705 -33.7634 2
      vertex -12.3607 -38.0423 2
      vertex -4.18114 -39.7809 2
    endloop
  endfacet
  facet normal 0 0 1
    outer loop
      vertex -2.42705 -30.2366 2
      vertex -12.3607 -38.0423 2
      vertex -3 -32 2
    endloop
  endfacet
  facet normal 0 0 1
    outer loop
      vertex -0.927051 -29.1468 2
      vertex -15.9271 -2.35317 2
      vertex -2.42705 -30.2366 2
    endloop
  endfacet
  facet normal -0 0 1
    outer loop
      vertex -26.7652 -29.7258 2
      vertex -2.42705 -30.2366 2
      vertex -15.9271 -2.35317 2
    endloop
  endfacet
  facet normal -0 0 1
    outer loop
      vertex -30.691 -0.951056 2
      vertex -17.4271 -1.26336 2
      vertex -30 0 2
    endloop
  endfacet
  facet normal -0 0 1
    outer loop
      vertex -30 0 2
      vertex -17.4271 -1.26336 2
      vertex -18 0.5 2
    endloop
  endfacet
  facet normal 0 0 1
    outer loop
      vertex -2.42705 -30.2366 2
      vertex -20 -34.641 2
      vertex -12.3607 -38.0423 2
    endloop
  endfacet
  facet normal -0 0 1
    outer loop
      vertex -32.3607 23.5114 2
      vertex -18 19.5 2
      vertex -26.7652 29.7258 2
    endloop
  endfacet
  facet normal 0 0 1
    outer loop
      vertex -36.5418 16.2695 2
      vertex -18 19.5 2
      vertex -32.3607 23.5114 2
    endloop
  endfacet
  facet normal 0 0 1
    outer loop
      vertex -17.4271 -1.26336 2
      vertex -30.691 -0.951056 2
      vertex -15.9271 -2.35317 2
    endloop
  endfacet
  facet normal 0 0 1
    outer loop
      vertex -2.42705 -30.2366 2
      vertex -26.7652 -29.7258 2
      vertex -20 -34.641 2
    endloop
  endfacet
  facet normal 0 0 1
    outer loop
      vertex -18 0.5 2
      vertex -30.691 0.951056 2
      vertex -30 0 2
    endloop
  endfacet
  facet normal 0 0 1
    outer loop
      vertex -18 19.5 2
      vertex -30.691 0.951056 2
      vertex -18 0.5 2
    endloop
  endfacet
  facet normal -0 0 1
    outer loop
      vertex -39.1259 8.31647 2
      vertex -30.691 0.951056 2
      vertex -36.5418 16.2695 2
    endloop
  endfacet
  facet normal 0 0 1
    outer loop
      vertex -18 19.5 2
      vertex -36.5418 16.2695 2
      vertex -30.691 0.951056 2
    endloop
  endfacet
  facet normal 0 0 1
    outer loop
      vertex 12.3607 -38.0423 2
      vertex 2.42705 -33.7634 2
      vertex 4.18114 -39.7809 2
    endloop
  endfacet
  facet normal -0 0 1
    outer loop
      vertex 0.927051 -34.8532 2
      vertex 4.18114 -39.7809 2
      vertex 2.42705 -33.7634 2
    endloop
  endfacet
  facet normal -0 0 1
    outer loop
      vertex -0.927051 -34.8532 2
      vertex 4.18114 -39.7809 2
      vertex 0.927051 -34.8532 2
    endloop
  endfacet
  facet normal 0 0 1
    outer loop
      vertex -4.18114 -39.7809 2
      vertex -0.927051 -34.8532 2
      vertex -2.42705 -33.7634 2
    endloop
  endfacet
  facet normal 0 0 1
    outer loop
      vertex -0.927051 -34.8532 2
      vertex -4.18114 -39.7809 2
      vertex 4.18114 -39.7809 2
    endloop
  endfacet
  facet normal 0 0 1
    outer loop
      vertex -12.3607 -38.0423 2
      vertex -2.42705 -33.7634 2
      vertex -3 -32 2
    endloop
  endfacet
  facet normal -0 0 1
    outer loop
      vertex 31.309 0.951056 2
      vertex 40 0 2
      vertex 39.1259 8.31647 2
    endloop
  endfacet
  facet normal 0 0 1
    outer loop
      vertex 31.309 0.951056 2
      vertex 39.1259 8.31647 2
      vertex 36.5418 16.2695 2
    endloop
  endfacet
  facet normal 0 0 1
    outer loop
      vertex 31.309 -0.951056 2
      vertex 40 0 2
      vertex 32 0 2
    endloop
  endfacet
  facet normal -0 0 1
    outer loop
      vertex 18 19.5 2
      vertex 36.5418 16.2695 2
      vertex 32.3607 23.5114 2
    endloop
  endfacet
  facet normal 0 0 1
    outer loop
      vertex 40 0 2
      vertex 31.309 -0.951056 2
      vertex 39.1259 -8.31647 2
    endloop
  endfacet
  facet normal 0 0 1
    outer loop
      vertex 39.1259 -8.31647 2
      vertex 31.309 -0.951056 2
      vertex 36.5418 -16.2695 2
    endloop
  endfacet
  facet normal 0 0 1
    outer loop
      vertex 40 0 2
      vertex 31.309 0.951056 2
      vertex 32 0 2
    endloop
  endfacet
  facet normal 0 -0 1
    outer loop
      vertex 30.191 0.587785 2
      vertex 36.5418 16.2695 2
      vertex 18 19.5 2
    endloop
  endfacet
  facet normal 0 0 1
    outer loop
      vertex 36.5418 16.2695 2
      vertex 30.191 0.587785 2
      vertex 31.309 0.951056 2
    endloop
  endfacet
  facet normal 0 0 1
    outer loop
      vertex 18 19.5 2
      vertex 32.3607 23.5114 2
      vertex 26.7652 29.7258 2
    endloop
  endfacet
  facet normal 0 0 1
    outer loop
      vertex 30.191 -0.587785 2
      vertex 36.5418 -16.2695 2
      vertex 31.309 -0.951056 2
    endloop
  endfacet
  facet normal 0 0 1
    outer loop
      vertex 17.4271 -1.26336 2
      vertex 30.191 -0.587785 2
      vertex 18 0.5 2
    endloop
  endfacet
  facet normal 0 0 1
    outer loop
      vertex 18 0.5 2
      vertex 30.191 0.587785 2
      vertex 18 19.5 2
    endloop
  endfacet
  facet normal 0 0 1
    outer loop
      vertex 30.191 0.587785 2
      vertex 18 0.5 2
      vertex 30.191 -0.587785 2
    endloop
  endfacet
  facet normal 0 0 1
    outer loop
      vertex 15.9271 22.3532 2
      vertex 26.7652 29.7258 2
      vertex 20 34.641 2
    endloop
  endfacet
  facet normal 0 0 1
    outer loop
      vertex 30.191 -0.587785 2
      vertex 17.4271 -1.26336 2
      vertex 36.5418 -16.2695 2
    endloop
  endfacet
  facet normal -0 0 1
    outer loop
      vertex 15.9271 -2.35317 2
      vertex 36.5418 -16.2695 2
      vertex 17.4271 -1.26336 2
    endloop
  endfacet
  facet normal 0 0 1
    outer loop
      vertex 26.7652 29.7258 2
      vertex 17.4271 21.2634 2
      vertex 18 19.5 2
    endloop
  endfacet
  facet normal 0 0 1
    outer loop
      vertex 26.7652 29.7258 2
      vertex 15.9271 22.3532 2
      vertex 17.4271 21.2634 2
    endloop
  endfacet
  facet normal 0 0 1
    outer loop
      vertex 12.3607 38.0423 2
      vertex 15.9271 22.3532 2
      vertex 20 34.641 2
    endloop
  endfacet
  facet normal 0 0 1
    outer loop
      vertex 4.18114 39.7809 2
      vertex 15.9271 22.3532 2
      vertex 12.3607 38.0423 2
    endloop
  endfacet
  facet normal -0 0 1
    outer loop
      vertex -4.18114 39.7809 2
      vertex 15.9271 22.3532 2
      vertex 4.18114 39.7809 2
    endloop
  endfacet
  facet normal 0 0 1
    outer loop
      vertex -15.9271 22.3532 2
      vertex -4.18114 39.7809 2
      vertex -12.3607 38.0423 2
    endloop
  endfacet
  facet normal 0 0 1
    outer loop
      vertex -4.18114 39.7809 2
      vertex -15.9271 22.3532 2
      vertex 15.9271 22.3532 2
    endloop
  endfacet
  facet normal -0 0 1
    outer loop
      vertex -20 34.641 2
      vertex -15.9271 22.3532 2
      vertex -12.3607 38.0423 2
    endloop
  endfacet
  facet normal -0 0 1
    outer loop
      vertex -26.7652 29.7258 2
      vertex -15.9271 22.3532 2
      vertex -20 34.641 2
    endloop
  endfacet
  facet normal 0 0 1
    outer loop
      vertex -17.4271 21.2634 2
      vertex -26.7652 29.7258 2
      vertex -18 19.5 2
    endloop
  endfacet
  facet normal 0 0 1
    outer loop
      vertex -15.9271 22.3532 2
      vertex -26.7652 29.7258 2
      vertex -17.4271 21.2634 2
    endloop
  endfacet
  facet normal 0 1 -0
    outer loop
      vertex 4.18114 39.7809 0
      vertex -4.18114 39.7809 2
      vertex 4.18114 39.7809 2
    endloop
  endfacet
  facet normal 0 1 0
    outer loop
      vertex -4.18114 39.7809 2
      vertex 4.18114 39.7809 0
      vertex -4.18114 39.7809 0
    endloop
  endfacet
  facet normal 0.406737 0.913545 -0
    outer loop
      vertex 20 34.641 0
      vertex 12.3607 38.0423 2
      vertex 20 34.641 2
    endloop
  endfacet
  facet normal 0.406737 0.913545 0
    outer loop
      vertex 12.3607 38.0423 2
      vertex 20 34.641 0
      vertex 12.3607 38.0423 0
    endloop
  endfacet
  facet normal -0.866025 -0.5 0
    outer loop
      vertex -32.3607 -23.5114 0
      vertex -36.5418 -16.2695 2
      vertex -36.5418 -16.2695 0
    endloop
  endfacet
  facet normal -0.866025 -0.5 0
    outer loop
      vertex -36.5418 -16.2695 2
      vertex -32.3607 -23.5114 0
      vertex -32.3607 -23.5114 2
    endloop
  endfacet
  facet normal -0.587785 -0.809017 0
    outer loop
      vertex -26.7652 -29.7258 0
      vertex -20 -34.641 2
      vertex -26.7652 -29.7258 2
    endloop
  endfacet
  facet normal -0.587785 -0.809017 -0
    outer loop
      vertex -20 -34.641 2
      vertex -26.7652 -29.7258 0
      vertex -20 -34.641 0
    endloop
  endfacet
  facet normal 0 -1 0
    outer loop
      vertex -4.18114 -39.7809 0
      vertex 4.18114 -39.7809 2
      vertex -4.18114 -39.7809 2
    endloop
  endfacet
  facet normal 0 -1 -0
    outer loop
      vertex 4.18114 -39.7809 2
      vertex -4.18114 -39.7809 0
      vertex 4.18114 -39.7809 0
    endloop
  endfacet
  facet normal 0.406737 -0.913545 0
    outer loop
      vertex 12.3607 -38.0423 0
      vertex 20 -34.641 2
      vertex 12.3607 -38.0423 2
    endloop
  endfacet
  facet normal 0.406737 -0.913545 0
    outer loop
      vertex 20 -34.641 2
      vertex 12.3607 -38.0423 0
      vertex 20 -34.641 0
    endloop
  endfacet
  facet normal 0.743145 -0.669131 0
    outer loop
      vertex 26.7652 -29.7258 2
      vertex 32.3607 -23.5114 0
      vertex 32.3607 -23.5114 2
    endloop
  endfacet
  facet normal 0.743145 -0.669131 0
    outer loop
      vertex 32.3607 -23.5114 0
      vertex 26.7652 -29.7258 2
      vertex 26.7652 -29.7258 0
    endloop
  endfacet
  facet normal 0.994522 -0.104528 0
    outer loop
      vertex 39.1259 -8.31647 2
      vertex 40 0 0
      vertex 40 0 2
    endloop
  endfacet
  facet normal 0.994522 -0.104528 0
    outer loop
      vertex 40 0 0
      vertex 39.1259 -8.31647 2
      vertex 39.1259 -8.31647 0
    endloop
  endfacet
  facet normal -0.994522 -0.104528 0
    outer loop
      vertex -39.1259 -8.31647 0
      vertex -40 0 2
      vertex -40 0 0
    endloop
  endfacet
  facet normal -0.994522 -0.104528 0
    outer loop
      vertex -40 0 2
      vertex -39.1259 -8.31647 0
      vertex -39.1259 -8.31647 2
    endloop
  endfacet
  facet normal 0.743145 0.669131 0
    outer loop
      vertex 32.3607 23.5114 2
      vertex 26.7652 29.7258 0
      vertex 26.7652 29.7258 2
    endloop
  endfacet
  facet normal 0.743145 0.669131 0
    outer loop
      vertex 26.7652 29.7258 0
      vertex 32.3607 23.5114 2
      vertex 32.3607 23.5114 0
    endloop
  endfacet
endsolid OpenSCAD_Model
